<svg id="Layer_1" data-name="Layer 1" xmlns="http://www.w3.org/2000/svg" viewBox="0 0 30 30"><defs><style>.cls-1{fill:#ef5241;}</style></defs><title>arabic-ic</title><g id="Text"><path class="cls-1" d="M25.65,16l-.3-1.95a5.15,5.15,0,0,0-.66,1.59,7.91,7.91,0,0,0,.15.85c.09.5.21,1.14.26,1.6a17.65,17.65,0,0,1,.19,2.18,6.54,6.54,0,0,1-.13,1.16l.34.13a4.85,4.85,0,0,0,.57-2A25.13,25.13,0,0,0,25.69,16m-1.64,3.63-.65-3.39.2.07A4.5,4.5,0,0,0,24,15c-.59-.25-.89-.49-.89-.73v-.18L22.82,14a3.7,3.7,0,0,0-.54,1.68l.37.23.67,3.79H20.94v1.51H24Zm-2.68,0H20.5a.55.55,0,0,1-.47-.22,2.3,2.3,0,0,0,.56-1.26,1,1,0,0,0-.44-.83A2.16,2.16,0,0,0,18.93,17a1.26,1.26,0,0,0-1.07.43,2.74,2.74,0,0,0-.38,1.45h.25c.08-.13.15-.2.23-.2s.39.22.6.65a2.58,2.58,0,0,1-.54.23c-.21,0-.41,0-.61,0h-.59v1.51h.59a2.15,2.15,0,0,0,1.77-.72,1.39,1.39,0,0,0,1.32.72h.83Zm-4.12-.06a2.8,2.8,0,0,0-.79-2L16.14,19a2.54,2.54,0,0,1,.5.68,1.43,1.43,0,0,1,.17.6c0,.3-.3.72-.92,1.27a6.33,6.33,0,0,1-1.05.8,1.61,1.61,0,0,1-.77.23A2.76,2.76,0,0,1,12.62,22l-.24.35a15.1,15.1,0,0,0,1.53,1,2.46,2.46,0,0,0,1.06.28,2.25,2.25,0,0,0,1.43-.85,2.41,2.41,0,0,0,.81-1.45Zm-5.42,2-.66,1.27,1.29.73.67-1.25Zm1.87-1.9a5.83,5.83,0,0,0-.16-1.56,2.61,2.61,0,0,0-.57-1l-.44,1.32a2.57,2.57,0,0,1,.61,1.15h-2.9v1.52h3.49ZM7.32,24.23l-.43.5-.61-.4L5.76,25l.73.39.43-.46.6.36.54-.62Zm3.19-4.51H9.74A2.82,2.82,0,0,0,8.53,20a1.58,1.58,0,0,0-.8.73,4.08,4.08,0,0,0-.37,1c0,.19.21.29.64.29a3.51,3.51,0,0,1,.79.06c.24,0,.37.07.37.11s-.33.22-1,.35a8,8,0,0,1-1.46.19q-2,0-2-1.17a3.58,3.58,0,0,1,1-2.05l-.33-.23a9.67,9.67,0,0,0-1.28,1.89,3.08,3.08,0,0,0-.29,1.3,1.33,1.33,0,0,0,.65,1.14,3,3,0,0,0,1.69.43,7.83,7.83,0,0,0,1.74-.23,3.67,3.67,0,0,0,1.2-.39,1.49,1.49,0,0,0,.44-.73,2.8,2.8,0,0,0,.22-1,.24.24,0,0,0-.21-.28c-.21-.06-.32-.11-.32-.14s.16-.08.47-.08h.72Z"/><path class="cls-1" d="M28.93,6.67l-.34-2a5.55,5.55,0,0,0-.65,1.6,6.17,6.17,0,0,0,.15.84c.11.6.2,1.13.27,1.61a19.63,19.63,0,0,1,.18,2.17,6.44,6.44,0,0,1-.13,1.16l.33.14a4.7,4.7,0,0,0,.57-2,25.15,25.15,0,0,0-.38-3.56m-1.64,3.69-.61-3.45.2.08a4.66,4.66,0,0,0,.37-1.31c-.59-.25-.89-.48-.89-.72V4.75l-.23-.11a3.44,3.44,0,0,0-.54,1.67l.36.23.67,3.79h-2.4v1.52h3.07Zm-3.85-.09a6.62,6.62,0,0,1-.94-.34c.09-.33.22-.5.36-.5s.29.11.47.33a1,1,0,0,1,.24.43c0,.06,0,.08-.13.08m1.19.39A3.94,3.94,0,0,0,24.18,9c-.28-.57-.52-.86-.73-.86a1.29,1.29,0,0,0-.73.4,3.45,3.45,0,0,0-.81,1.18q-.29.66-1.32.66H19.48v1.48h1.1A1.62,1.62,0,0,0,22,11.12a5.94,5.94,0,0,0,2.6.73Zm-8.17,1.76-.64,1.25,1.28.73.73-1.27Zm3.41-2.06a2.08,2.08,0,0,1-.65-.22,3.82,3.82,0,0,1-.65-.62,11.84,11.84,0,0,0-1.34-1.31,1.82,1.82,0,0,0-1.09-.42q-.93,0-1.53,1.38a2.32,2.32,0,0,1,.58-.08,3.42,3.42,0,0,1,2.25,1.27H13.5v1.52h6.37Zm-6,.07a5.82,5.82,0,0,0-.15-1.56,2.77,2.77,0,0,0-.56-1l-.45,1.32a2.48,2.48,0,0,1,.61,1.14h-2.9v1.52h3.45Zm-1.1-5.08-.5.9-.83-.41-.58,1.08,1,.57.45-.88.79.44.61-1.14ZM9.61,10.24a6.74,6.74,0,0,1-.95-.34c.11-.33.22-.5.37-.5s.29.11.46.33a.92.92,0,0,1,.24.43c0,.06,0,.08-.12.08m1.17.39A3.92,3.92,0,0,0,10.35,9c-.28-.57-.52-.86-.73-.86a1.27,1.27,0,0,0-.72.4,3.35,3.35,0,0,0-.82,1.18c-.18.44-.63.66-1.32.66H5.65v1.48H6.76a1.6,1.6,0,0,0,1.45-.73,5.94,5.94,0,0,0,2.6.73ZM6.15,14.26H4.94q-3.63,0-3.63-1.95a2.48,2.48,0,0,1,1.31-2,2.87,2.87,0,0,0,1,1.26,2.35,2.35,0,0,0,1.27.31H6V10.33H4.87a1.51,1.51,0,0,1-1.2-.57,1.12,1.12,0,0,0,.68-1.1,1.14,1.14,0,0,0-.41-.9,1.5,1.5,0,0,0-1-.34A1.24,1.24,0,0,0,1.82,8a2.34,2.34,0,0,0-.35,1.29l.27.05c.12-.13.21-.2.26-.2a.48.48,0,0,1,.3.41,4.39,4.39,0,0,0-1.62,3.4A2.52,2.52,0,0,0,1.5,15a4.31,4.31,0,0,0,2.63.73L6.18,14.5Z"/></g></svg>