<svg id="Layer_1" data-name="Layer 1" xmlns="http://www.w3.org/2000/svg" viewBox="0 0 30 30"><defs><style>.cls-1{fill:none;stroke:#ef5241;stroke-linecap:round;stroke-linejoin:round;stroke-width:2px;}</style></defs><title>market-ic</title><g id="Text"><path class="cls-1" d="M10.11,7V5.66A2.18,2.18,0,0,1,12.3,3.5h5.39A2.19,2.19,0,0,1,19.9,5.65h0V7"/><path class="cls-1" d="M5.45,7H2.92A1.91,1.91,0,0,0,1,8.86V24.6a1.91,1.91,0,0,0,1.92,1.9H27.08A1.91,1.91,0,0,0,29,24.6h0V8.86A1.91,1.91,0,0,0,27.08,7H5.45Z"/><line class="cls-1" x1="1" y1="18.09" x2="11.99" y2="18.09"/><line class="cls-1" x1="18.01" y1="18.09" x2="29" y2="18.09"/><path class="cls-1" d="M12.87,16.86h4.26a.87.87,0,0,1,.88.86v1a.87.87,0,0,1-.88.87H12.87a.87.87,0,0,1-.88-.87v-1A.87.87,0,0,1,12.87,16.86Z"/></g></svg>