<svg id="Layer_1" data-name="Layer 1" xmlns="http://www.w3.org/2000/svg" viewBox="0 0 30 30"><defs><style>.cls-1{fill:none;stroke:#ef5241;stroke-linecap:round;stroke-linejoin:round;stroke-width:2px;}</style></defs><title>occupation-ic</title><g id="Text"><line class="cls-1" x1="1" y1="16.7" x2="29" y2="16.7"/><path class="cls-1" d="M9.07,16.7,9.68,3.9A2.57,2.57,0,0,1,12.3,1.52h5.34A2.57,2.57,0,0,1,20.22,3.9l.6,12.8"/><path class="cls-1" d="M6.14,16.71l.76-3.53a1.6,1.6,0,0,1,1.61-1.59h.81"/><path class="cls-1" d="M23.86,16.71l-.76-3.53a1.6,1.6,0,0,0-1.61-1.59h-.81"/><line class="cls-1" x1="2.72" y1="16.71" x2="27.27" y2="16.71"/><line class="cls-1" x1="25.42" y1="17.06" x2="25.42" y2="28.37"/><line class="cls-1" x1="4.58" y1="17.06" x2="4.58" y2="28.37"/><line class="cls-1" x1="15" y1="21.72" x2="15" y2="28.29"/><polyline class="cls-1" points="18.3 28.48 18.3 26.13 11.7 26.13 11.7 28.48"/><path class="cls-1" d="M8.71,16.81H21.28c.79,2.4,1.42,2.82,1.42,3.33h0c0,.52-.63.93-1.42.93H8.71c-.78,0-1.42-.41-1.42-.93h0C7.29,19.63,7.93,19.21,8.71,16.81Z"/></g></svg>