<svg id="Layer_1" data-name="Layer 1" xmlns="http://www.w3.org/2000/svg" viewBox="0 0 30 30"><defs><style>.cls-1{fill:none;stroke:#ef5241;stroke-linecap:round;stroke-linejoin:round;stroke-width:2px;}</style></defs><title>poverty-ic</title><g id="Text"><path class="cls-1" d="M19.57,18.36s-3.3,2.46-4.09,2.83-2.62-.12-6.37-.24c-2.61-.07-2.21-3.08-.07-3,1-.12,4.23.12,6.62-1.72,4.65-3.75,8.87-2.34,9.8-1.91l3.54.1m-.32,7.19s-3.78-.09-5.19,0-4.57,1.65-6.67,2.89-9.43-.06-9.8-.31S1.66,17,1.27,16.45s-.43-.91.3-1.78a1.12,1.12,0,0,1,1.58-.14l0,0,4.37,4.08"/><ellipse class="cls-1" cx="9.88" cy="8.2" rx="3.14" ry="3.2"/></g></svg>