<svg id="Layer_1" data-name="Layer 1" xmlns="http://www.w3.org/2000/svg" viewBox="0 0 30 30"><defs><style>.cls-1{fill:#ef5241;}</style></defs><title>religious-ic</title><g id="Layer_1-2" data-name="Layer 1-2"><path class="cls-1" d="M3.4,11.83A2.74,2.74,0,0,0,3,13.28l-.73-.12c-.44-.07-.67-.29-.67-.65a2,2,0,0,1,.27-.9l.46-.82.17.08-.06.28a1.31,1.31,0,0,0-.06.27c0,.16.18.28.54.34ZM6.73,8.05a2.15,2.15,0,0,0-.29,1.19v.57H5.92l.32,1.51c.06.3.13.6.21.89a1.44,1.44,0,0,1-.53,1.11H5.77v-1a8.24,8.24,0,0,0-.07-1L5.53,9.81H1.69a7,7,0,0,0,.08-1,5.84,5.84,0,0,0-.08-.93l.13,0,.08.47h.44l0-1.15H2.13V6.81h.42v.41H2.37l0,1.15h4L6.63,8Zm5,1.13a2.57,2.57,0,0,1,.2,1v.72l-.22,2.31-.25.12-.32-2.54a1.38,1.38,0,0,0-.26-.65.75.75,0,0,0-.59-.32h-3a2,2,0,0,0,.07-.49,3.13,3.13,0,0,0-.18-1h3.34a1.46,1.46,0,0,1,.5.12,1.27,1.27,0,0,1,.72.72Zm5.78,2.11a5.89,5.89,0,0,0-.5,1.88H12.69a2.18,2.18,0,0,0,.12-.72,5.85,5.85,0,0,0-.07-.72h3.84L16.49,9.8H12.87a5.17,5.17,0,0,0-.07-1,5.67,5.67,0,0,0-.23-.94l.07,0,.31.51h.29l-.09-1.15H13V6.81h.42v.41h-.18l0,1.15h3.49l.15-.29.12.08a2.44,2.44,0,0,0-.23,1.16v.09l.1,2.33h.15l.31-.54Zm5.28-1.44h-.72l.31,1.29.09.37a7.27,7.27,0,0,1,0,.93c0,.41-.05.72-.05.91H22.2a5.88,5.88,0,0,1-.5-1.8c0-.18,0-.47,0-.84s.05-.67.05-.85h-.73L21,8.71l-.78-1-.28.76L20,9.81h-.72c.05.31.13.73.25,1.33l.1.55a6.93,6.93,0,0,1,0,.82,5.5,5.5,0,0,0-.05.81h-.18A4.79,4.79,0,0,1,19,11.71V9.81h-.72a2.32,2.32,0,0,0,0-.53A5.82,5.82,0,0,0,18,7.53h.12l.26.85h1.4l.44-1,.92,1H22.2a.5.5,0,0,1,.41.22.69.69,0,0,1,.15.44Zm2.28,2a2.83,2.83,0,0,0-.38,1.45L24,13.16c-.45-.07-.68-.29-.68-.65a2.14,2.14,0,0,1,.27-.9l.46-.82.17.08-.05.28a2.61,2.61,0,0,0-.06.27c0,.16.18.28.55.34Zm3.32-3.78a2.24,2.24,0,0,0-.3,1.19v.57h-.53l.33,1.51c.14.63.2.94.2.89a1.39,1.39,0,0,1-.51,1.11h-.14v-1a8.26,8.26,0,0,0-.08-1l-.12-1.52H23.38a6,6,0,0,0,0-1.95l.14,0,.07.47H24l0-1.15h-.17V6.81h.42v.41h-.18l.05,1.15h4L28.34,8Z"/><path class="cls-1" d="M5.5,18.88a2.42,2.42,0,0,0,.12.76H5l.5,1.82a2.65,2.65,0,0,1,.07.48,1.47,1.47,0,0,1-.18.64,4,4,0,0,1-.34.56H4.85a7.43,7.43,0,0,0,.07-.94v-.44l-.23-2.12H1.8a2.61,2.61,0,0,0,.15,1,5.91,5.91,0,0,1,.3.72A2.26,2.26,0,0,1,2.4,22a.92.92,0,0,1-.32.73A1.16,1.16,0,0,1,1.3,23H.51A2.66,2.66,0,0,0,.68,22l-.05-.4h.6a.5.5,0,0,0,.27-.08.26.26,0,0,0,.14-.24,3,3,0,0,0-.11-.66,4.63,4.63,0,0,1-.1-.65,1.12,1.12,0,0,1,.05-.31H.8A1.56,1.56,0,0,0,1,18.86a2.37,2.37,0,0,0-.09-.65H5.62a2,2,0,0,0-.12.68ZM8,19a4.07,4.07,0,0,1-.87,2.36L7,21.27a2.45,2.45,0,0,0,.43-1.34c0-.18-.13-.27-.37-.27H6.46l-.17.4H6.2a2.92,2.92,0,0,0,.09-.5,9.31,9.31,0,0,0-.18-1.83,2.22,2.22,0,0,1-.06-.51h.13l.18,1h.88a.71.71,0,0,1,.57.24A.81.81,0,0,1,8,19Zm5.54-1.16a2.33,2.33,0,0,0-.31,1.27,2.43,2.43,0,0,0,0,.49h-.5l.32,1.5c0,.16.08.31.11.46a2.14,2.14,0,0,1,.08.44,1.36,1.36,0,0,1-.51,1.1h-.15v-.81a11.9,11.9,0,0,0-.1-1.34c-.06-.45-.11-.9-.18-1.34H8.55v-1a6.37,6.37,0,0,0-.07-1h.14l.07.48h.57L9.19,17H9v-.4h.42V17H9.28l.06,1.16h3.87l.22-.4ZM18.48,19a2.17,2.17,0,0,1,.2,1v.72L18.47,23l-.23.12-.32-2.54a1.38,1.38,0,0,0-.26-.64.73.73,0,0,0-.59-.32h-3a1.62,1.62,0,0,0,.08-.49,3.13,3.13,0,0,0-.18-.95H17.3a1.36,1.36,0,0,1,.49.12,1.28,1.28,0,0,1,.69.72Zm5.37.62h-.72l.31,1.29.09.38a7.13,7.13,0,0,1-.05.92,7,7,0,0,0-.05.91h-.18a6.53,6.53,0,0,1-.5-1.79,7.47,7.47,0,0,1,0-.85,7.56,7.56,0,0,0,0-.85h-.72L22,18.5l-.76-1-.29.73.13,1.36h-.73c0,.3.14.73.26,1.33l.1.55a5.62,5.62,0,0,1-.05.82,6.8,6.8,0,0,0,0,.8l-.18,0A4.61,4.61,0,0,1,20,21.57V19.64h-.72a3.19,3.19,0,0,0,0-.54A6,6,0,0,0,19,17.37h.12l.26.85h1.41l.43-1,.95,1h1a.51.51,0,0,1,.41.21.79.79,0,0,1,.16.44Zm2.32,2a2.84,2.84,0,0,0-.39,1.45L25.06,23c-.45-.07-.68-.28-.68-.64a2,2,0,0,1,.28-.9l.43-.83.17.08-.08.28a2.74,2.74,0,0,0-.05.28q0,.24.54.33Zm3.32-3.77a2.17,2.17,0,0,0-.3,1.22v.57H28.7L29,21.18c.14.63.21.93.21.89a1.35,1.35,0,0,1-.54,1.08h-.13v-1a8.26,8.26,0,0,0-.08-1l-.19-1.51H24.47a8.91,8.91,0,0,0,.07-1,4.7,4.7,0,0,0-.09-.92h.15l.07.48h.42V17h-.17v-.4h.42V17h-.17l0,1.16h4l.23-.4Z"/></g></svg>