<svg id="Layer_1" data-name="Layer 1" xmlns="http://www.w3.org/2000/svg" viewBox="0 0 30 30"><defs><style>.cls-1{fill:none;stroke:#ef5241;stroke-linecap:round;stroke-linejoin:round;stroke-width:2px;}</style></defs><title>Artboard 1</title><g id="Text"><path class="cls-1" d="M1.42,21.47l4.31-3.6s-1-2.44,0-4.05,2-4.31,3.63-4.92,4.32-1.21,5-.5,2.68,3.54,2.52,4.45-.9,2-1.66,1.92-2.77-2.08-2.77-2.08"/><path class="cls-1" d="M11.46,17.1a8.37,8.37,0,0,0,1.31-2.33,10.82,10.82,0,0,0,0-1.8"/><path class="cls-1" d="M12.43,15.62s.17,1.07.41,1,8.2-3.17,8.2-3.5S19.56,5.59,15.18,8.6"/><path class="cls-1" d="M13.76,16.33c-.76.29.55,2.76.55,2.76s.32.63,5.21-1.55c2.29-1,2.49-1.05,2.14-1.9s-.62-2.15-1.21-2.11"/><path class="cls-1" d="M15.94,18.92s-.38,2.47,1.09,2.32,2.44-.18,3.07-.7,1.3-1.22,1.25-1.8a7.08,7.08,0,0,0-.67-1.7"/><path class="cls-1" d="M5.72,29l6-5.48s3.87.58,4.28.26,2.81-2.7,2.81-2.7"/><polyline class="cls-1" points="21.79 21.59 26.07 22.64 24.42 17.77 28.58 15.04 24.85 12.41 27.42 7.04 21.55 7.77 22.21 1 17.65 5.05 14.4 1.32 13.51 5.61"/></g></svg>