<svg id="Layer_1" data-name="Layer 1" xmlns="http://www.w3.org/2000/svg" viewBox="0 0 30 30"><defs><style>.cls-1{fill:none;stroke:#ef5241;stroke-linecap:round;stroke-linejoin:round;stroke-width:2px;}</style></defs><title>culture-ic</title><g id="Text"><path class="cls-1" d="M9.57,2.63a5,5,0,0,0-7.09,0,4.94,4.94,0,0,0,0,7,5,5,0,0,0,7.09,0h0a5,5,0,0,0,0-7"/><ellipse class="cls-1" cx="6.01" cy="6.16" rx="5.01" ry="4.97"/><path class="cls-1" d="M17.35,19.2a1.31,1.31,0,0,0,1.82-.15,1.28,1.28,0,0,0,0-1.65"/><path class="cls-1" d="M17.35,19.2a1.31,1.31,0,0,0,1.82-.15,1.28,1.28,0,0,0,0-1.65"/><path class="cls-1" d="M10.05,3.61,3.44,10.17a1.09,1.09,0,0,1-1.53.14,1.06,1.06,0,0,1-.14-1.52l.14-.14L8.52,2.09A1.09,1.09,0,0,1,10.05,2a1.08,1.08,0,0,1,.14,1.52.93.93,0,0,1-.14.14"/><path class="cls-1" d="M10.05,3.61,3.44,10.17a1.09,1.09,0,0,1-1.53.14,1.06,1.06,0,0,1-.14-1.52l.14-.14L8.52,2.09A1.09,1.09,0,0,1,10.05,2a1.08,1.08,0,0,1,.14,1.52A.93.93,0,0,1,10.05,3.61Z"/><polyline class="cls-1" points="11.23 6.97 19.57 17 16.93 19.62 6.82 11.34"/><polyline class="cls-1" points="11.23 6.97 19.57 17 16.93 19.62 6.82 11.34"/><path class="cls-1" d="M27.59,28.83,26.7,28a1.35,1.35,0,0,1,0-1.91l1.91-1.9a1.35,1.35,0,0,0,0-1.9l-.51-.5a1.37,1.37,0,0,0-1.88,0L21,26.83a1.37,1.37,0,0,1-1.92,0h0l-.5-.49a1.36,1.36,0,0,1,0-1.92l1.91-1.89a1.36,1.36,0,0,0,0-1.92l-1.4-1.39"/></g></svg>