<svg id="Layer_1" data-name="Layer 1" xmlns="http://www.w3.org/2000/svg" viewBox="0 0 30 30"><defs><style>.cls-1{fill:none;stroke:#ef5241;stroke-linecap:round;stroke-linejoin:round;stroke-width:2px;}</style></defs><title>health-ic</title><g id="Text"><path class="cls-1" d="M17.7,2.4a1.65,1.65,0,0,0-1.64,1.67v9.3A1.65,1.65,0,0,0,17.7,15s4.64.19,4.59,2.27S12.38,19.11,12,21.73s7.38,7.52,2.3,7.26c-3.49-.18-10.63-2.13-10.72-6.33"/><path class="cls-1" d="M26.79,2.4a1.65,1.65,0,0,1,1.64,1.67v9.3A1.65,1.65,0,0,1,26.79,15"/><line class="cls-1" x1="18.28" y1="1" x2="18.28" y2="3.95"/><line class="cls-1" x1="26.18" y1="1" x2="26.18" y2="3.95"/><line class="cls-1" x1="26.18" y1="1" x2="26.18" y2="3.95"/><ellipse class="cls-1" cx="3.58" cy="20.66" rx="2.01" ry="2.04"/><path class="cls-1" d="M26.18,15s-3.59-.1-3.92,2.27"/></g></svg>