<svg id="Layer_1" data-name="Layer 1" xmlns="http://www.w3.org/2000/svg" viewBox="0 0 30 30"><defs><style>.cls-1{fill:none;stroke:#ef5241;stroke-linecap:round;stroke-linejoin:round;stroke-width:2px;}</style></defs><title>power-ic</title><g id="Text"><path class="cls-1" d="M21.56,1.39h0a1.35,1.35,0,0,1,0,1.87l-.8.82a1.25,1.25,0,0,1-1.81,0h0a1.35,1.35,0,0,1,0-1.87l.8-.82A1.25,1.25,0,0,1,21.56,1.39Z"/><path class="cls-1" d="M15.71,10.08V7.85c0-2.86,1.29-2,3.3-3.68"/><rect class="cls-1" x="11.88" y="8.81" width="6.24" height="2.05"/><polygon class="cls-1" points="22.73 14.51 7.26 14.51 6.99 10.86 23.02 10.86 22.73 14.51"/><polygon class="cls-1" points="21.48 29 8.51 29 7.26 14.51 22.73 14.51 21.48 29"/></g></svg>