<svg id="Layer_1" data-name="Layer 1" xmlns="http://www.w3.org/2000/svg" viewBox="0 0 30 30"><defs><style>.cls-1{fill:none;stroke:#ef5241;stroke-linecap:round;stroke-linejoin:round;stroke-width:2px;}</style></defs><title>suburbs-ic</title><g id="Text"><path class="cls-1" d="M28.89,26.84c-5.27-1.35-22.25-1.68-28-.62"/><path class="cls-1" d="M1.3,17.76a71.1,71.1,0,0,1,12.73-2c1.81-.15,3.63-.22,5.46-.22,1.61,0-.52,0,1.09.18"/><path class="cls-1" d="M14.65,25.23s-4.29-9.66,5.93-9.55"/><path class="cls-1" d="M16.57,15.5S6.17,17.1,3.94,25.58"/><line class="cls-1" x1="24.26" y1="26.14" x2="24.26" y2="21.64"/><path class="cls-1" d="M27.57,16.1c0,5.63-1.48,5.55-3.31,5.55S21,21.77,21,16.1c0-3.41,1.18-9.72,3.31-12.45C26.39,6.38,27.55,12.69,27.57,16.1Z"/><line class="cls-1" x1="8.34" y1="16.26" x2="8.34" y2="12.65"/><path class="cls-1" d="M10.41,7.25c0,3.51-.93,4.85-2.07,4.85S6.28,10.76,6.28,7.25,8.34,3.84,8.34,3.84,10.41,3.73,10.41,7.25Z"/></g></svg>