<?xml version="1.0" encoding="utf-8"?>
<!-- Generator: Adobe Illustrator 23.0.2, SVG Export Plug-In . SVG Version: 6.00 Build 0)  -->
<svg version="1.1" id="Layer_1" xmlns="http://www.w3.org/2000/svg" xmlns:xlink="http://www.w3.org/1999/xlink" x="0px" y="0px"
	 viewBox="0 0 30 30" style="enable-background:new 0 0 30 30;" xml:space="preserve">
<style type="text/css">
	.st0{fill:#FFFFFF;}
</style>
<title>religious-ic</title>
<g id="Layer_1-2">
	<path class="st0" d="M3.4,11.8C3.1,12.3,3,12.8,3,13.3l-0.7-0.1c-0.4-0.1-0.7-0.3-0.7-0.6c0-0.3,0.1-0.6,0.3-0.9l0.5-0.8l0.2,0.1
		l-0.1,0.3c0,0.1,0,0.2-0.1,0.3c0,0.2,0.2,0.3,0.5,0.3L3.4,11.8z M6.7,8.1C6.5,8.4,6.4,8.8,6.4,9.2v0.6H5.9l0.3,1.5
		c0.1,0.3,0.1,0.6,0.2,0.9c0,0.4-0.2,0.8-0.5,1.1H5.8v-1c0-0.3,0-0.7-0.1-1L5.5,9.8H1.7c0.1-0.3,0.1-0.7,0.1-1c0-0.3,0-0.6-0.1-0.9
		h0.1l0.1,0.5h0.4V7.2H2.1V6.8h0.4v0.4H2.4v1.2h4L6.7,8.1L6.7,8.1z M11.7,9.2c0.1,0.3,0.2,0.7,0.2,1v0.7l-0.2,2.3l-0.2,0.1l-0.3-2.5
		c0-0.2-0.1-0.5-0.3-0.6c-0.1-0.2-0.4-0.3-0.6-0.3h-3c0-0.2,0.1-0.3,0.1-0.5c0-0.3-0.1-0.7-0.2-1h3.3c0.2,0,0.3,0.1,0.5,0.1
		C11.3,8.6,11.6,8.8,11.7,9.2L11.7,9.2z M17.5,11.3c-0.3,0.6-0.4,1.2-0.5,1.9h-4.3c0.1-0.2,0.1-0.5,0.1-0.7c0-0.2,0-0.5-0.1-0.7h3.8
		l-0.1-1.9h-3.6c0-0.3,0-0.7-0.1-1c0-0.3-0.1-0.6-0.2-0.9h0.1L13,8.4h0.3l-0.1-1.2H13V6.8h0.4v0.4h-0.2v1.2h3.5l0.1-0.3L17,8.2
		c-0.2,0.4-0.2,0.8-0.2,1.2v0.1l0.1,2.3H17l0.3-0.5L17.5,11.3z M22.8,9.9h-0.7l0.3,1.3l0.1,0.4c0,0.3,0,0.6,0,0.9c0,0.4,0,0.7,0,0.9
		h-0.2c-0.3-0.6-0.4-1.2-0.5-1.8c0-0.2,0-0.5,0-0.8s0-0.7,0-0.9H21l0-1.1l-0.8-1l-0.3,0.8L20,9.8h-0.7c0,0.3,0.1,0.7,0.2,1.3
		l0.1,0.6c0,0.3,0,0.5,0,0.8c0,0.3-0.1,0.5,0,0.8h-0.2c-0.2-0.5-0.4-1.1-0.4-1.6V9.8h-0.7c0-0.2,0-0.4,0-0.5c0-0.6-0.1-1.2-0.3-1.8
		h0.1l0.3,0.8h1.4l0.4-1l0.9,1h1.1c0.2,0,0.3,0.1,0.4,0.2c0.1,0.1,0.2,0.3,0.1,0.4L22.8,9.9z M25.1,11.9c-0.3,0.4-0.4,0.9-0.4,1.4
		L24,13.2c-0.5-0.1-0.7-0.3-0.7-0.6c0-0.3,0.1-0.6,0.3-0.9l0.5-0.8l0.2,0.1l0,0.3c0,0.1,0,0.2-0.1,0.3c0,0.2,0.2,0.3,0.5,0.3
		L25.1,11.9z M28.4,8.1c-0.2,0.4-0.3,0.8-0.3,1.2v0.6h-0.5l0.3,1.5c0.1,0.6,0.2,0.9,0.2,0.9c0,0.4-0.2,0.8-0.5,1.1h-0.1v-1
		c0-0.3,0-0.7-0.1-1l-0.1-1.5h-3.9c0.1-0.6,0.1-1.3,0-1.9h0.1l0.1,0.5H24V7.2h-0.2V6.8h0.4v0.4h-0.2l0,1.2h4L28.4,8.1L28.4,8.1z"/>
	<path class="st0" d="M5.5,18.9c0,0.3,0,0.5,0.1,0.8H5l0.5,1.8c0,0.2,0.1,0.3,0.1,0.5c0,0.2-0.1,0.4-0.2,0.6
		c-0.1,0.2-0.2,0.4-0.3,0.6H4.8c0-0.3,0.1-0.6,0.1-0.9v-0.4l-0.2-2.1H1.8c0,0.3,0,0.7,0.1,1c0.1,0.2,0.2,0.5,0.3,0.7
		c0.1,0.2,0.1,0.4,0.2,0.6c0,0.3-0.1,0.5-0.3,0.7C1.9,22.9,1.6,23,1.3,23H0.5c0.1-0.3,0.2-0.7,0.2-1l-0.1-0.4h0.6
		c0.1,0,0.2,0,0.3-0.1c0.1,0,0.1-0.1,0.1-0.2c0-0.2,0-0.4-0.1-0.7c0-0.2-0.1-0.4-0.1-0.6c0-0.1,0-0.2,0-0.3H0.8
		C0.9,19.4,1,19.1,1,18.9c0-0.2,0-0.4-0.1-0.6h4.7C5.5,18.4,5.5,18.7,5.5,18.9L5.5,18.9z M8,19c0,0.9-0.3,1.7-0.9,2.4L7,21.3
		c0.3-0.4,0.4-0.9,0.4-1.3c0-0.2-0.1-0.3-0.4-0.3H6.5l-0.2,0.4H6.2c0-0.2,0.1-0.3,0.1-0.5c0-0.6-0.1-1.2-0.2-1.8
		c0-0.2-0.1-0.3-0.1-0.5h0.1l0.2,1h0.9c0.2,0,0.4,0.1,0.6,0.2C7.9,18.6,8,18.8,8,19z M13.5,17.8c-0.2,0.4-0.3,0.8-0.3,1.3
		c0,0.2,0,0.3,0,0.5h-0.5l0.3,1.5c0,0.2,0.1,0.3,0.1,0.5c0,0.1,0.1,0.3,0.1,0.4c0,0.4-0.2,0.8-0.5,1.1h-0.1v-0.8
		c0-0.4,0-0.9-0.1-1.3c-0.1-0.5-0.1-0.9-0.2-1.3H8.6v-1c0-0.3,0-0.7-0.1-1h0.1l0.1,0.5h0.6L9.2,17H9v-0.4h0.4V17H9.3l0.1,1.2h3.9
		l0.2-0.4L13.5,17.8z M18.5,19c0.1,0.3,0.2,0.7,0.2,1v0.7L18.5,23l-0.2,0.1l-0.3-2.5c0-0.2-0.1-0.5-0.3-0.6
		c-0.1-0.2-0.4-0.3-0.6-0.3h-3c0.1-0.2,0.1-0.3,0.1-0.5c0-0.3-0.1-0.6-0.2-1h3.3c0.2,0,0.3,0,0.5,0.1C18.1,18.4,18.4,18.7,18.5,19
		L18.5,19z M23.8,19.6h-0.7l0.3,1.3l0.1,0.4c0,0.3,0,0.6,0,0.9c0,0.3-0.1,0.6,0,0.9h-0.2c-0.3-0.6-0.4-1.2-0.5-1.8
		c0-0.3,0-0.6,0-0.9c0-0.3,0-0.6,0-0.9H22l0-1.1l-0.8-1l-0.3,0.7l0.1,1.4h-0.7c0,0.3,0.1,0.7,0.3,1.3l0.1,0.5c0,0.3,0,0.5,0,0.8
		c0,0.3,0,0.5,0,0.8h-0.2c-0.2-0.5-0.4-1-0.5-1.5v-1.9h-0.7c0-0.2,0-0.4,0-0.5c0-0.6-0.1-1.2-0.3-1.7h0.1l0.3,0.9h1.4l0.4-1l1,1h1
		c0.2,0,0.3,0.1,0.4,0.2c0.1,0.1,0.2,0.3,0.2,0.4L23.8,19.6z M26.2,21.6c-0.3,0.4-0.4,0.9-0.4,1.5L25.1,23c-0.5-0.1-0.7-0.3-0.7-0.6
		c0-0.3,0.1-0.6,0.3-0.9l0.4-0.8l0.2,0.1L25.2,21c0,0.1,0,0.2,0,0.3c0,0.2,0.2,0.3,0.5,0.3L26.2,21.6z M29.5,17.9
		c-0.2,0.4-0.3,0.8-0.3,1.2v0.6h-0.5l0.3,1.5c0.1,0.6,0.2,0.9,0.2,0.9c0,0.4-0.2,0.8-0.5,1.1h-0.1v-1c0-0.3,0-0.7-0.1-1l-0.2-1.5
		h-3.8c0-0.3,0.1-0.7,0.1-1c0-0.3,0-0.6-0.1-0.9h0.1l0.1,0.5h0.4V17h-0.2v-0.4h0.4V17h-0.2v1.2h4L29.5,17.9L29.5,17.9z"/>
</g>
</svg>
