<?xml version="1.0" encoding="utf-8"?>
<!-- Generator: Adobe Illustrator 23.0.2, SVG Export Plug-In . SVG Version: 6.00 Build 0)  -->
<svg version="1.1" id="Layer_1" xmlns="http://www.w3.org/2000/svg" xmlns:xlink="http://www.w3.org/1999/xlink" x="0px" y="0px"
	 viewBox="0 0 30 30" style="enable-background:new 0 0 30 30;" xml:space="preserve">
<style type="text/css">
	.st0{fill:none;stroke:#FFFFFF;stroke-width:2;stroke-linecap:round;stroke-linejoin:round;}
</style>
<title>power-ic</title>
<g id="Text">
	<path class="st0" d="M21.6,1.4L21.6,1.4c0.5,0.5,0.5,1.3,0,1.9l-0.8,0.8c-0.5,0.5-1.3,0.5-1.8,0c0,0,0,0,0,0l0,0
		c-0.5-0.5-0.5-1.3,0-1.9l0.8-0.8C20.2,0.9,21,0.9,21.6,1.4C21.5,1.4,21.5,1.4,21.6,1.4z"/>
	<path class="st0" d="M15.7,10.1V7.8c0-2.9,1.3-2,3.3-3.7"/>
	<rect x="11.9" y="8.8" class="st0" width="6.2" height="2.1"/>
	<polygon class="st0" points="22.7,14.5 7.3,14.5 7,10.9 23,10.9 	"/>
	<polygon class="st0" points="21.5,29 8.5,29 7.3,14.5 22.7,14.5 	"/>
</g>
</svg>
