<?xml version="1.0" encoding="utf-8"?>
<!-- Generator: Adobe Illustrator 23.0.2, SVG Export Plug-In . SVG Version: 6.00 Build 0)  -->
<svg version="1.1" id="Layer_1" xmlns="http://www.w3.org/2000/svg" xmlns:xlink="http://www.w3.org/1999/xlink" x="0px" y="0px"
	 viewBox="0 0 30 30" style="enable-background:new 0 0 30 30;" xml:space="preserve">
<style type="text/css">
	.st0{fill:none;stroke:#FFFFFF;stroke-width:2;stroke-linecap:round;stroke-linejoin:round;}
</style>
<title>family-ic</title>
<g id="Text">
	<path class="st0" d="M1.2,5.9h3.4c1.8,0,3.3,1.5,3.3,3.3c0,0,0,0,0,0l0,0v3.8"/>
	<circle class="st0" cx="10.5" cy="26.7" r="2.3"/>
	<circle class="st0" cx="25.7" cy="26.7" r="2.3"/>
	<path class="st0" d="M20.6,10.4V1h2c3.4,0,6.1,2.8,6.2,6.2v6.2c0,2.9-2.4,5.3-5.3,5.3H13.3c-2.9,0-5.3-2.4-5.3-5.3v-2h20.9"/>
	<line class="st0" x1="24.2" y1="18.6" x2="12.4" y2="25.5"/>
	<line class="st0" x1="18.1" y1="22.6" x2="23.6" y2="25.7"/>
</g>
</svg>
