<?xml version="1.0" encoding="utf-8"?>
<!-- Generator: Adobe Illustrator 23.0.2, SVG Export Plug-In . SVG Version: 6.00 Build 0)  -->
<svg version="1.1" id="Layer_1" xmlns="http://www.w3.org/2000/svg" xmlns:xlink="http://www.w3.org/1999/xlink" x="0px" y="0px"
	 viewBox="0 0 30 30" style="enable-background:new 0 0 30 30;" xml:space="preserve">
<style type="text/css">
	.st0{fill:none;stroke:#FFFFFF;stroke-width:2;stroke-linecap:round;stroke-linejoin:round;}
</style>
<title>poverty-ic</title>
<g id="Text">
	<path class="st0" d="M19.6,18.4c0,0-3.3,2.5-4.1,2.8s-2.6-0.1-6.4-0.2c-2.6-0.1-2.2-3.1-0.1-3c1-0.1,4.2,0.1,6.6-1.7
		c4.6-3.8,8.9-2.3,9.8-1.9l3.5,0.1 M28.7,21.6c0,0-3.8-0.1-5.2,0s-4.6,1.6-6.7,2.9S7.4,24.4,7,24.2S1.7,17,1.3,16.5
		s-0.4-0.9,0.3-1.8c0.4-0.5,1.1-0.5,1.6-0.1c0,0,0,0,0,0l0,0l4.4,4.1"/>
	<ellipse class="st0" cx="9.9" cy="8.2" rx="3.1" ry="3.2"/>
</g>
</svg>
