<?xml version="1.0" encoding="utf-8"?>
<!-- Generator: Adobe Illustrator 23.0.2, SVG Export Plug-In . SVG Version: 6.00 Build 0)  -->
<svg version="1.1" id="Layer_1" xmlns="http://www.w3.org/2000/svg" xmlns:xlink="http://www.w3.org/1999/xlink" x="0px" y="0px"
	 viewBox="0 0 30 30" style="enable-background:new 0 0 30 30;" xml:space="preserve">
<style type="text/css">
	.st0{fill:none;stroke:#FFFFFF;stroke-width:2;stroke-linecap:round;stroke-linejoin:round;}
</style>
<title>occupation-ic</title>
<g id="Text">
	<line class="st0" x1="1" y1="16.7" x2="29" y2="16.7"/>
	<path class="st0" d="M9.1,16.7L9.7,3.9c0.1-1.4,1.3-2.4,2.6-2.4h5.3c1.4,0,2.5,1,2.6,2.4l0.6,12.8"/>
	<path class="st0" d="M6.1,16.7l0.8-3.5c0-0.9,0.7-1.6,1.6-1.6c0,0,0,0,0,0h0.8"/>
	<path class="st0" d="M23.9,16.7l-0.8-3.5c0-0.9-0.7-1.6-1.6-1.6c0,0,0,0,0,0h-0.8"/>
	<line class="st0" x1="2.7" y1="16.7" x2="27.3" y2="16.7"/>
	<line class="st0" x1="25.4" y1="17.1" x2="25.4" y2="28.4"/>
	<line class="st0" x1="4.6" y1="17.1" x2="4.6" y2="28.4"/>
	<line class="st0" x1="15" y1="21.7" x2="15" y2="28.3"/>
	<polyline class="st0" points="18.3,28.5 18.3,26.1 11.7,26.1 11.7,28.5 	"/>
	<path class="st0" d="M8.7,16.8h12.6c0.8,2.4,1.4,2.8,1.4,3.3l0,0c0,0.5-0.6,0.9-1.4,0.9H8.7c-0.8,0-1.4-0.4-1.4-0.9l0,0
		C7.3,19.6,7.9,19.2,8.7,16.8z"/>
</g>
</svg>
