<?xml version="1.0" encoding="utf-8"?>
<!-- Generator: Adobe Illustrator 23.0.2, SVG Export Plug-In . SVG Version: 6.00 Build 0)  -->
<svg version="1.1" id="Layer_1" xmlns="http://www.w3.org/2000/svg" xmlns:xlink="http://www.w3.org/1999/xlink" x="0px" y="0px"
	 viewBox="0 0 30 30" style="enable-background:new 0 0 30 30;" xml:space="preserve">
<style type="text/css">
	.st0{fill:#FFFFFF;}
</style>
<title>arabic-ic</title>
<g id="Text">
	<path class="st0" d="M25.6,16l-0.3-1.9c-0.3,0.5-0.5,1-0.7,1.6c0,0.3,0.1,0.6,0.1,0.8c0.1,0.5,0.2,1.1,0.3,1.6
		c0.1,0.7,0.2,1.5,0.2,2.2c0,0.4-0.1,0.8-0.1,1.2l0.3,0.1c0.3-0.6,0.5-1.3,0.6-2C26,18.4,25.9,17.2,25.6,16 M24.1,19.6l-0.6-3.4
		l0.2,0.1c0.2-0.4,0.3-0.9,0.4-1.3c-0.6-0.2-0.9-0.5-0.9-0.7v-0.2L22.8,14c-0.3,0.5-0.5,1.1-0.5,1.7l0.4,0.2l0.7,3.8h-2.4v1.5H24
		L24.1,19.6z M21.4,19.6h-0.9c-0.2,0-0.4-0.1-0.5-0.2c0.3-0.4,0.5-0.8,0.6-1.3c0-0.3-0.2-0.6-0.4-0.8c-0.4-0.2-0.8-0.3-1.2-0.3
		c-0.4,0-0.8,0.1-1.1,0.4c-0.3,0.4-0.4,0.9-0.4,1.5h0.2c0.1-0.1,0.1-0.2,0.2-0.2s0.4,0.2,0.6,0.6c-0.2,0.1-0.4,0.2-0.5,0.2
		c-0.2,0-0.4,0-0.6,0h-0.6v1.5h0.6c0.7,0,1.3-0.2,1.8-0.7c0.3,0.5,0.8,0.8,1.3,0.7h0.8L21.4,19.6z M17.2,19.6c0-0.7-0.3-1.5-0.8-2
		L16.1,19c0.2,0.2,0.4,0.4,0.5,0.7c0.1,0.2,0.2,0.4,0.2,0.6c0,0.3-0.3,0.7-0.9,1.3c-0.3,0.3-0.7,0.6-1.1,0.8
		c-0.2,0.1-0.5,0.2-0.8,0.2c-0.5,0-1-0.3-1.4-0.6l-0.2,0.4c0.5,0.4,1,0.7,1.5,1c0.3,0.2,0.7,0.3,1.1,0.3c0.6-0.1,1.1-0.4,1.4-0.9
		c0.4-0.4,0.7-0.9,0.8-1.5L17.2,19.6z M11.8,21.6l-0.7,1.3l1.3,0.7l0.7-1.2L11.8,21.6z M13.7,19.7c0-0.5,0-1-0.2-1.6
		c-0.1-0.4-0.3-0.7-0.6-1l-0.4,1.3c0.3,0.3,0.5,0.7,0.6,1.1h-2.9v1.5h3.5L13.7,19.7z M7.3,24.2l-0.4,0.5l-0.6-0.4L5.8,25l0.7,0.4
		l0.4-0.5l0.6,0.4l0.5-0.6L7.3,24.2z M10.5,19.7H9.7c-0.4,0-0.8,0.1-1.2,0.3c-0.3,0.1-0.6,0.4-0.8,0.7c-0.2,0.3-0.3,0.7-0.4,1
		C7.4,21.9,7.6,22,8,22c0.3,0,0.5,0,0.8,0.1c0.2,0,0.4,0.1,0.4,0.1s-0.3,0.2-1,0.4c-0.5,0.1-1,0.2-1.5,0.2c-1.3,0-2-0.4-2-1.2
		c0.1-0.8,0.5-1.5,1-2l-0.3-0.2c-0.5,0.6-0.9,1.2-1.3,1.9c-0.2,0.4-0.3,0.9-0.3,1.3c0,0.5,0.2,0.9,0.7,1.1C5,23.9,5.5,24.1,6.1,24
		c0.6,0,1.2-0.1,1.7-0.2c0.4-0.1,0.8-0.2,1.2-0.4c0.2-0.2,0.4-0.4,0.4-0.7c0.1-0.3,0.2-0.7,0.2-1c0-0.1-0.1-0.3-0.2-0.3c0,0,0,0,0,0
		c-0.2-0.1-0.3-0.1-0.3-0.1s0.2-0.1,0.5-0.1h0.7L10.5,19.7z"/>
	<path class="st0" d="M28.9,6.7l-0.3-2c-0.3,0.5-0.5,1-0.6,1.6c0,0.3,0.1,0.6,0.1,0.8c0.1,0.6,0.2,1.1,0.3,1.6
		c0.1,0.7,0.2,1.4,0.2,2.2c0,0.4-0.1,0.8-0.1,1.2l0.3,0.1c0.3-0.6,0.5-1.3,0.6-2C29.3,9,29.1,7.8,28.9,6.7 M27.3,10.3l-0.6-3.4
		L26.9,7c0.2-0.4,0.3-0.9,0.4-1.3c-0.6-0.2-0.9-0.5-0.9-0.7V4.8l-0.2-0.1c-0.3,0.5-0.5,1.1-0.5,1.7L26,6.5l0.7,3.8h-2.4v1.5h3.1
		L27.3,10.3z M23.4,10.2c-0.3-0.1-0.6-0.2-0.9-0.3c0.1-0.3,0.2-0.5,0.4-0.5s0.3,0.1,0.5,0.3c0.1,0.1,0.2,0.3,0.2,0.4
		C23.6,10.2,23.6,10.2,23.4,10.2 M24.6,10.6c0-0.6-0.2-1.1-0.5-1.6c-0.3-0.6-0.5-0.9-0.7-0.9c-0.3,0-0.5,0.2-0.7,0.4
		c-0.3,0.3-0.6,0.7-0.8,1.2c-0.2,0.4-0.6,0.7-1.3,0.7h-1.1v1.5h1.1c0.6,0,1.1-0.3,1.4-0.7c0.8,0.4,1.7,0.7,2.6,0.7L24.6,10.6z
		 M16.5,12.4l-0.6,1.2l1.3,0.7l0.7-1.3L16.5,12.4z M19.9,10.3c-0.2,0-0.4-0.1-0.6-0.2c-0.2-0.2-0.5-0.4-0.6-0.6
		c-0.4-0.5-0.9-0.9-1.3-1.3c-0.3-0.3-0.7-0.4-1.1-0.4c-0.6,0-1.1,0.5-1.5,1.4c0.2-0.1,0.4-0.1,0.6-0.1c0.9,0.1,1.7,0.6,2.2,1.3h-3.9
		v1.5h6.4L19.9,10.3z M13.9,10.4c0-0.5,0-1-0.1-1.6c-0.1-0.4-0.3-0.7-0.6-1l-0.4,1.3c0.3,0.3,0.5,0.7,0.6,1.1h-2.9v1.5h3.4
		L13.9,10.4z M12.8,5.3l-0.5,0.9l-0.8-0.4l-0.6,1.1l1,0.6l0.4-0.9L13.1,7l0.6-1.1L12.8,5.3z M9.6,10.2C9.3,10.2,9,10,8.7,9.9
		C8.8,9.6,8.9,9.4,9,9.4s0.3,0.1,0.5,0.3c0.1,0.1,0.2,0.3,0.2,0.4C9.7,10.2,9.7,10.2,9.6,10.2 M10.8,10.6c0-0.6-0.2-1.1-0.4-1.6
		c-0.3-0.6-0.5-0.9-0.7-0.9c-0.3,0-0.5,0.2-0.7,0.4C8.5,8.9,8.3,9.3,8.1,9.7c-0.2,0.4-0.6,0.7-1.3,0.7H5.7v1.5h1.1
		c0.6,0,1.1-0.2,1.4-0.7c0.8,0.4,1.7,0.7,2.6,0.7L10.8,10.6z M6.2,14.3H4.9c-2.4,0-3.6-0.6-3.6-1.9c0.1-0.8,0.6-1.6,1.3-2
		c0.2,0.5,0.6,0.9,1,1.3c0.4,0.2,0.8,0.3,1.3,0.3H6v-1.6H4.9c-0.5,0-0.9-0.2-1.2-0.6c0.4-0.2,0.7-0.6,0.7-1.1c0-0.3-0.1-0.7-0.4-0.9
		c-0.3-0.2-0.6-0.4-1-0.3C2.5,7.4,2.1,7.6,1.8,8C1.6,8.4,1.5,8.8,1.5,9.3l0.3,0.1C1.9,9.2,2,9.1,2,9.1c0.2,0.1,0.3,0.2,0.3,0.4
		c-1,0.8-1.6,2.1-1.6,3.4c-0.1,0.8,0.2,1.5,0.8,2c0.8,0.5,1.7,0.8,2.6,0.7l2-1.2L6.2,14.3z"/>
</g>
</svg>
