<?xml version="1.0" encoding="utf-8"?>
<!-- Generator: Adobe Illustrator 23.0.2, SVG Export Plug-In . SVG Version: 6.00 Build 0)  -->
<svg version="1.1" id="Layer_1" xmlns="http://www.w3.org/2000/svg" xmlns:xlink="http://www.w3.org/1999/xlink" x="0px" y="0px"
	 viewBox="0 0 30 30" style="enable-background:new 0 0 30 30;" xml:space="preserve">
<style type="text/css">
	.st0{fill:none;stroke:#FFFFFF;stroke-width:2;stroke-linecap:round;stroke-linejoin:round;}
</style>
<title>health-ic</title>
<g id="Text">
	<path class="st0" d="M17.7,2.4c-0.9,0-1.6,0.7-1.6,1.7c0,0,0,0,0,0v9.3c0,0.9,0.7,1.6,1.6,1.6c0,0,4.6,0.2,4.6,2.3
		s-9.9,1.8-10.3,4.5s7.4,7.5,2.3,7.3c-3.5-0.2-10.6-2.1-10.7-6.3"/>
	<path class="st0" d="M26.8,2.4c0.9,0,1.6,0.7,1.6,1.7c0,0,0,0,0,0v9.3c0,0.9-0.7,1.6-1.6,1.6"/>
	<line class="st0" x1="18.3" y1="1" x2="18.3" y2="4"/>
	<line class="st0" x1="26.2" y1="1" x2="26.2" y2="4"/>
	<line class="st0" x1="26.2" y1="1" x2="26.2" y2="4"/>
	<ellipse class="st0" cx="3.6" cy="20.7" rx="2" ry="2"/>
	<path class="st0" d="M26.2,15c0,0-3.6-0.1-3.9,2.3"/>
</g>
</svg>
