<?xml version="1.0" encoding="utf-8"?>
<!-- Generator: Adobe Illustrator 23.0.2, SVG Export Plug-In . SVG Version: 6.00 Build 0)  -->
<svg version="1.1" id="Layer_1" xmlns="http://www.w3.org/2000/svg" xmlns:xlink="http://www.w3.org/1999/xlink" x="0px" y="0px"
	 viewBox="0 0 30 30" style="enable-background:new 0 0 30 30;" xml:space="preserve">
<style type="text/css">
	.st0{fill:none;stroke:#FFFFFF;stroke-width:2;stroke-linecap:round;stroke-linejoin:round;}
</style>
<title>culture-ic</title>
<g id="Text">
	<path class="st0" d="M9.6,2.6c-1.9-2-5.1-2-7.1,0c0,0,0,0,0,0c-1.9,1.9-1.9,5.1,0,7c0,0,0,0,0,0c1.9,2,5.1,2,7.1,0c0,0,0,0,0,0l0,0
		C11.5,7.7,11.5,4.6,9.6,2.6"/>
	<ellipse class="st0" cx="6" cy="6.2" rx="5" ry="5"/>
	<path class="st0" d="M17.4,19.2c0.5,0.5,1.4,0.4,1.8-0.1c0.4-0.5,0.4-1.2,0-1.6"/>
	<path class="st0" d="M17.4,19.2c0.5,0.5,1.4,0.4,1.8-0.1c0.4-0.5,0.4-1.2,0-1.6"/>
	<path class="st0" d="M10.1,3.6l-6.6,6.6c-0.4,0.5-1.1,0.5-1.5,0.1c-0.5-0.4-0.5-1-0.2-1.5c0,0,0,0,0,0l0.1-0.1l6.6-6.6
		C8.9,1.6,9.6,1.6,10.1,2c0.5,0.4,0.5,1.1,0.1,1.5C10.1,3.6,10.1,3.6,10.1,3.6"/>
	<path class="st0" d="M10.1,3.6l-6.6,6.6c-0.4,0.5-1.1,0.5-1.5,0.1c-0.5-0.4-0.5-1-0.2-1.5c0,0,0,0,0,0l0.1-0.1l6.6-6.6
		C8.9,1.6,9.6,1.6,10.1,2c0.5,0.4,0.5,1.1,0.1,1.5C10.1,3.6,10.1,3.6,10.1,3.6z"/>
	<polyline class="st0" points="11.2,7 19.6,17 16.9,19.6 6.8,11.3 	"/>
	<polyline class="st0" points="11.2,7 19.6,17 16.9,19.6 6.8,11.3 	"/>
	<path class="st0" d="M27.6,28.8L26.7,28c-0.5-0.5-0.5-1.4,0-1.9c0,0,0,0,0,0l1.9-1.9c0.5-0.5,0.5-1.4,0-1.9l-0.5-0.5
		c-0.5-0.5-1.4-0.5-1.9,0l-5.2,5c-0.5,0.5-1.4,0.5-1.9,0l0,0l-0.5-0.5c-0.5-0.5-0.5-1.4,0-1.9l1.9-1.9c0.5-0.5,0.5-1.4,0-1.9
		l-1.4-1.4"/>
</g>
</svg>
