<?xml version="1.0" encoding="utf-8"?>
<!-- Generator: Adobe Illustrator 23.0.2, SVG Export Plug-In . SVG Version: 6.00 Build 0)  -->
<svg version="1.1" id="Layer_1" xmlns="http://www.w3.org/2000/svg" xmlns:xlink="http://www.w3.org/1999/xlink" x="0px" y="0px"
	 viewBox="0 0 30 30" style="enable-background:new 0 0 30 30;" xml:space="preserve">
<style type="text/css">
	.st0{fill:none;stroke:#FFFFFF;stroke-width:2;stroke-linecap:round;stroke-linejoin:round;}
</style>
<title>Artboard 1</title>
<g id="Text">
	<path class="st0" d="M1.4,21.5l4.3-3.6c0,0-1-2.4,0-4.1s2-4.3,3.6-4.9s4.3-1.2,5-0.5s2.7,3.5,2.5,4.4s-0.9,2-1.7,1.9
		s-2.8-2.1-2.8-2.1"/>
	<path class="st0" d="M11.5,17.1c0.6-0.7,1-1.5,1.3-2.3c0-0.6,0-1.2,0-1.8"/>
	<path class="st0" d="M12.4,15.6c0,0,0.2,1.1,0.4,1s8.2-3.2,8.2-3.5s-1.5-7.5-5.9-4.5"/>
	<path class="st0" d="M13.8,16.3c-0.8,0.3,0.6,2.8,0.6,2.8s0.3,0.6,5.2-1.5c2.3-1,2.5-1,2.1-1.9s-0.6-2.1-1.2-2.1"/>
	<path class="st0" d="M15.9,18.9c0,0-0.4,2.5,1.1,2.3s2.4-0.2,3.1-0.7s1.3-1.2,1.2-1.8c-0.1-0.6-0.4-1.2-0.7-1.7"/>
	<path class="st0" d="M5.7,29l6-5.5c0,0,3.9,0.6,4.3,0.3c0.4-0.3,2.8-2.7,2.8-2.7"/>
	<polyline class="st0" points="21.8,21.6 26.1,22.6 24.4,17.8 28.6,15 24.9,12.4 27.4,7 21.5,7.8 22.2,1 17.6,5.1 14.4,1.3 
		13.5,5.6 	"/>
</g>
</svg>
