<?xml version="1.0" encoding="utf-8"?>
<!-- Generator: Adobe Illustrator 23.0.2, SVG Export Plug-In . SVG Version: 6.00 Build 0)  -->
<svg version="1.1" id="Layer_1" xmlns="http://www.w3.org/2000/svg" xmlns:xlink="http://www.w3.org/1999/xlink" x="0px" y="0px"
	 viewBox="0 0 30 30" style="enable-background:new 0 0 30 30;" xml:space="preserve">
<style type="text/css">
	.st0{fill:none;stroke:#FFFFFF;stroke-width:2;stroke-linecap:round;stroke-linejoin:round;}
</style>
<title>suburbs-ic</title>
<g id="Text">
	<path class="st0" d="M28.9,26.8c-5.3-1.4-22.2-1.7-28-0.6"/>
	<path class="st0" d="M1.3,17.8c4.2-1.1,8.4-1.7,12.7-2c1.8-0.1,3.6-0.2,5.5-0.2c1.6,0-0.5,0,1.1,0.2"/>
	<path class="st0" d="M14.6,25.2c0,0-4.3-9.7,5.9-9.6"/>
	<path class="st0" d="M16.6,15.5c0,0-10.4,1.6-12.6,10.1"/>
	<line class="st0" x1="24.3" y1="26.1" x2="24.3" y2="21.6"/>
	<path class="st0" d="M27.6,16.1c0,5.6-1.5,5.6-3.3,5.6S21,21.8,21,16.1c0-3.4,1.2-9.7,3.3-12.4C26.4,6.4,27.5,12.7,27.6,16.1z"/>
	<line class="st0" x1="8.3" y1="16.3" x2="8.3" y2="12.6"/>
	<path class="st0" d="M10.4,7.2c0,3.5-0.9,4.9-2.1,4.9s-2.1-1.3-2.1-4.9s2.1-3.4,2.1-3.4S10.4,3.7,10.4,7.2z"/>
</g>
</svg>
