<?xml version="1.0" encoding="utf-8"?>
<!-- Generator: Adobe Illustrator 23.0.2, SVG Export Plug-In . SVG Version: 6.00 Build 0)  -->
<svg version="1.1" id="Layer_1" xmlns="http://www.w3.org/2000/svg" xmlns:xlink="http://www.w3.org/1999/xlink" x="0px" y="0px"
	 viewBox="0 0 30 30" style="enable-background:new 0 0 30 30;" xml:space="preserve">
<style type="text/css">
	.st0{fill:none;stroke:#FFFFFF;stroke-width:2;stroke-linecap:round;stroke-linejoin:round;}
</style>
<title>market-ic</title>
<g id="Text">
	<path class="st0" d="M10.1,7V5.7c0-1.2,1-2.2,2.2-2.2h5.4c1.2,0,2.2,0.9,2.2,2.2l0,0V7"/>
	<path class="st0" d="M5.4,7H2.9C1.9,7,1,7.8,1,8.9v15.7c0,1.1,0.9,1.9,1.9,1.9c0,0,0,0,0,0h24.2c1.1,0,1.9-0.8,1.9-1.9c0,0,0,0,0,0
		l0,0V8.9c0-1-0.9-1.9-1.9-1.9H5.4z"/>
	<line class="st0" x1="1" y1="18.1" x2="12" y2="18.1"/>
	<line class="st0" x1="18" y1="18.1" x2="29" y2="18.1"/>
	<path class="st0" d="M12.9,16.9h4.3c0.5,0,0.9,0.4,0.9,0.9c0,0,0,0,0,0v1c0,0.5-0.4,0.9-0.9,0.9c0,0,0,0,0,0h-4.3
		c-0.5,0-0.9-0.4-0.9-0.9c0,0,0,0,0,0v-1C12,17.2,12.4,16.9,12.9,16.9C12.9,16.9,12.9,16.9,12.9,16.9z"/>
</g>
</svg>
