<svg version="1.1" id="Layer_1" xmlns="http://www.w3.org/2000/svg" xmlns:xlink="http://www.w3.org/1999/xlink" x="0px" y="0px"
	 viewBox="457 266.647 45.275 26.353"  xml:space="preserve">
<g>
	<path fill="none" stroke="#EF5241" stroke-width="1.56" d="M459.71,278.543l7.202-9.119
		c0,0,1.174-1.997,3.209-1.997c2.035,0,4.227,3.288,4.227,3.288"/>
	<path fill="none" stroke="#EF5241" stroke-width="1.56" d="M500.019,278.543l-7.202-9.119
		c0,0-1.174-1.997-3.209-1.997s-4.227,3.288-4.227,3.288"/>
	<path fill="none" stroke="#EF5241" stroke-width="1.56" d="M477.009,280.455
		c0,0-0.235,4.208-0.548,5.793s-3.444,6.341-9.941,5.949c-7.828,0-7.985-8.533-7.985-8.533s-1.8-4.617,0.157-4.853
		s12.133-1.409,13.777-0.548C474.113,279.124,477.009,280.455,477.009,280.455z"/>
	<path fill="none" stroke="#EF5241" stroke-width="1.56" d="M482.267,280.455
		c0,0,0.235,4.208,0.548,5.793s3.443,6.341,9.941,5.949c7.828,0,7.984-8.533,7.984-8.533s1.801-4.617-0.156-4.853
		s-12.134-1.409-13.777-0.548C485.162,279.124,482.267,280.455,482.267,280.455z"/>
</g>
<line fill="none" stroke="#EF5241" stroke-width="1.56" x1="477.296" y1="280.534" x2="482.254" y2="280.534"/>
<g>
	<path fill="none" stroke="#EF5241" stroke-width="1.56" d="M460.909,289.61
		c0,0,1.043-2.453,5.387-2.453c7.83,0,7.645,2.581,7.645,2.581"/>
	<path fill="none" stroke="#EF5241" stroke-width="1.56" d="M498.251,289.61
		c0,0-1.043-2.453-5.387-2.453c-7.83,0-7.646,2.581-7.646,2.581"/>
</g>
</svg>
