<svg xmlns="http://www.w3.org/2000/svg" viewBox="0 0 39.46 28.56"><defs><style>.cls-1{fill:#ef5241;}</style></defs><title>arabic-ic</title><g id="Layer_2" data-name="Layer 2"><g id="Text"><path class="cls-1" d="M34.41,15.69,34,13a7.24,7.24,0,0,0-.91,2.2c0,.1.07.49.2,1.17s.29,1.56.37,2.2a25.44,25.44,0,0,1,.26,3,9.34,9.34,0,0,1-.18,1.6l.46.18a6.58,6.58,0,0,0,.79-2.76,33.67,33.67,0,0,0-.53-4.91m-2.26,5L31.31,16l.28.11a6.56,6.56,0,0,0,.51-1.8c-.82-.35-1.23-.67-1.23-1a2.42,2.42,0,0,0,0-.25l-.36-.18a5,5,0,0,0-.74,2.31l.5.32.93,5.22H27.92v2.09h4.23Zm-3.69,0H27.32a.76.76,0,0,1-.65-.31,3.21,3.21,0,0,0,.77-1.73,1.31,1.31,0,0,0-.61-1.14,2.86,2.86,0,0,0-1.68-.43,1.74,1.74,0,0,0-1.47.59,3.7,3.7,0,0,0-.53,2l.34,0c.11-.18.21-.27.32-.27.26,0,.54.3.83.89a3.32,3.32,0,0,1-.75.31,5.29,5.29,0,0,1-.84,0h-.81v2.09h.81a3,3,0,0,0,2.45-1,1.89,1.89,0,0,0,1.82,1h1.14Zm-5.68-.08a3.85,3.85,0,0,0-1.09-2.83l-.43,2.07a3.34,3.34,0,0,1,.68.94,2.06,2.06,0,0,1,.24.82c0,.41-.42,1-1.27,1.75a9.18,9.18,0,0,1-1.45,1.11,2.18,2.18,0,0,1-1.06.31,3.88,3.88,0,0,1-2-.79l-.33.48a20.38,20.38,0,0,0,2.11,1.32,3.27,3.27,0,0,0,1.46.38A3.12,3.12,0,0,0,21.66,25a3.33,3.33,0,0,0,1.12-2Zm-7.46,2.8-.92,1.75,1.78,1,.93-1.72Zm2.57-2.63a7.84,7.84,0,0,0-.22-2.15,3.61,3.61,0,0,0-.78-1.35l-.61,1.83a3.45,3.45,0,0,1,.84,1.58h-4v2.09h4.81ZM9.15,27l-.6.69-.84-.54L7,28l1,.54.6-.64.82.5.75-.86Zm4.39-6.21H12.48a3.68,3.68,0,0,0-1.66.39,2.17,2.17,0,0,0-1.11,1,5.61,5.61,0,0,0-.51,1.4c0,.26.29.39.88.39a6.32,6.32,0,0,1,1.1.08c.33,0,.5.1.5.16s-.45.3-1.34.48a10.25,10.25,0,0,1-2,.26c-1.85,0-2.78-.53-2.78-1.61A4.94,4.94,0,0,1,7,20.52l-.46-.32a13.16,13.16,0,0,0-1.76,2.6,4.3,4.3,0,0,0-.4,1.8,1.82,1.82,0,0,0,.89,1.56,4.12,4.12,0,0,0,2.34.6A11.06,11.06,0,0,0,10,26.44a4.77,4.77,0,0,0,1.65-.54,2,2,0,0,0,.61-1,4,4,0,0,0,.31-1.37.36.36,0,0,0-.29-.39c-.3-.07-.44-.14-.44-.18s.21-.12.64-.12h1Z"/><path class="cls-1" d="M38.93,2.8,38.47.08a6.91,6.91,0,0,0-.9,2.2,10.43,10.43,0,0,0,.2,1.16c.16.82.28,1.56.37,2.21a27.43,27.43,0,0,1,.26,3,8.49,8.49,0,0,1-.19,1.6l.46.19a6.51,6.51,0,0,0,.79-2.77,33.67,33.67,0,0,0-.53-4.91M36.67,7.85l-.84-4.76.28.11a6.56,6.56,0,0,0,.51-1.8c-.82-.35-1.23-.67-1.23-1a2.14,2.14,0,0,0,0-.25L35.07,0a4.81,4.81,0,0,0-.74,2.31l.49.32.93,5.22H32.44V9.94h4.23Zm-5.3-.13a10,10,0,0,1-1.3-.46c.13-.46.3-.69.5-.69s.4.15.64.45a1.31,1.31,0,0,1,.33.59c0,.08-.05.11-.17.11M33,8.26A5.36,5.36,0,0,0,32.38,6c-.38-.79-.71-1.18-1-1.18a1.71,1.71,0,0,0-1,.55,4.64,4.64,0,0,0-1.12,1.62c-.26.61-.87.91-1.82.91H25.91V9.94h1.52a2.19,2.19,0,0,0,2-1,8.37,8.37,0,0,0,3.59,1ZM21.75,10.68l-.89,1.73,1.77,1,1-1.74Zm4.69-2.83a2.82,2.82,0,0,1-.89-.31,5.64,5.64,0,0,1-.9-.85,17,17,0,0,0-1.84-1.81,2.52,2.52,0,0,0-1.5-.57c-.86,0-1.57.63-2.12,1.89A4.13,4.13,0,0,1,20,6.09a4.7,4.7,0,0,1,3.09,1.76H17.66V9.94h8.78Zm-8.24.09A8.26,8.26,0,0,0,18,5.79a3.72,3.72,0,0,0-.78-1.34l-.62,1.83a3.45,3.45,0,0,1,.85,1.57h-4V9.94H18.2Zm-1.52-7L16,2.18l-1.14-.56-.8,1.49,1.43.78.62-1.21,1.09.61.84-1.57ZM12.31,7.72A10,10,0,0,1,11,7.26c.14-.46.3-.69.5-.69s.4.15.64.45a1.31,1.31,0,0,1,.33.59c0,.08-.05.11-.17.11m1.61.54A5.36,5.36,0,0,0,13.32,6c-.38-.79-.71-1.18-1-1.18a1.71,1.71,0,0,0-1,.55,4.64,4.64,0,0,0-1.12,1.62c-.26.61-.87.91-1.82.91H6.85V9.94H8.37a2.18,2.18,0,0,0,2-1,8.37,8.37,0,0,0,3.59,1Zm-6.38,5-1.66,0c-3.34,0-5-.89-5-2.68a3.4,3.4,0,0,1,1.8-2.8A4,4,0,0,0,4,9.51a3.16,3.16,0,0,0,1.76.43H7.38V7.85H5.77a2.08,2.08,0,0,1-1.65-.79,1.56,1.56,0,0,0,.93-1.52,1.56,1.56,0,0,0-.56-1.23,2.11,2.11,0,0,0-1.43-.48,1.7,1.7,0,0,0-1.49.78,3.27,3.27,0,0,0-.49,1.77l.37.08c.17-.18.29-.28.37-.28s.35.19.41.57A6,6,0,0,0,0,11.43a3.52,3.52,0,0,0,1.12,2.9,6,6,0,0,0,3.63,1L7.58,13.6Z"/></g></g></svg>