<svg xmlns="http://www.w3.org/2000/svg" viewBox="0 0 1240.42 1040.65"><defs><style>.cls-1{isolation:isolate;}.cls-2{fill:none;stroke:#59334d;stroke-miterlimit:10;stroke-dasharray:3 3;opacity:0.3;}.cls-3{fill:#e6e6e6;opacity:0.4;mix-blend-mode:multiply;}</style></defs><title>bg-logo-symbol</title><g class="cls-1"><g id="Layer_2" data-name="Layer 2"><g id="BG"><path class="cls-2" d="M467.57,280.66c43.85-41.65,72.94-42.35,109.1,5.69l436.53,435.2c60.72,58.65,106.53,67,143.23-23,6.92-17,10.54-35.56,19.1-51.58,5.26-9.84,17.78-23.3,25.65-22.44,10.73,1.17,26,12.78,28.9,22.88,6.08,21.56,8.21,45.18,7,67.69-5.93,113.2-77.79,201.26-160.28,271.74-52.27,44.67-108.36,62.76-174.95,48.55C862.38,1027,806,973.74,806,973.74L420.74,590c-31.34-44-94.42-50-133.58-12.74-7.32,7-12.87,11.95-15.06,13.26C252.73,602.16,233,606,216,586.93c-17.45-19.58-10.16-39.06,4.82-55.55C248.62,500.76,427.57,318.67,467.57,280.66Z"/><circle class="cls-2" cx="173.05" cy="173.05" r="172.55"/><circle class="cls-3" cx="198.3" cy="173.05" r="172.55"/><path class="cls-3" d="M470.57,249.66c43.85-41.65,72.94-42.35,109.1,5.69l436.53,435.2c60.72,58.65,106.53,67,143.23-23,6.92-17,10.54-35.56,19.1-51.58,5.26-9.84,17.78-23.3,25.65-22.44,10.73,1.17,26,12.78,28.9,22.88,6.08,21.56,8.21,45.18,7,67.69-5.93,113.2-77.79,201.26-160.28,271.74-52.27,44.67-108.36,62.76-174.95,48.55C865.38,996,809,942.74,809,942.74L423.74,559c-31.34-44-94.42-50-133.58-12.74-7.32,7-12.87,11.95-15.06,13.26C255.73,571.16,236,575,219,555.93c-17.45-19.58-10.16-39.06,4.82-55.55C251.62,469.76,430.57,287.67,470.57,249.66Z"/></g></g></g></svg>