<svg xmlns="http://www.w3.org/2000/svg" viewBox="0 0 27.46 26.95"><defs><style>.cls-1{fill:none;stroke:#59334d;stroke-linecap:round;stroke-linejoin:round;stroke-width:2px;}</style></defs><title>contact-add-ic</title><g id="Layer_2" data-name="Layer 2"><g id="Text"><g id="text-2" data-name="text"><path class="cls-1" d="M22,10.15V24A1.93,1.93,0,0,1,20.05,26H2.93A1.93,1.93,0,0,1,1,24V7.44A1.93,1.93,0,0,1,2.93,5.51H17.27"/><path class="cls-1" d="M11.13,16.46h0c-.35-.35,2.26-7,2.66-7.44L21.5,1.31a1,1,0,0,1,1.33-.08l3.39,3.38A1,1,0,0,1,26.14,6l-7.71,7.72C18,14.07,11.45,16.8,11.13,16.46Z"/><line class="cls-1" x1="23.99" y1="3.48" x2="17.79" y2="9.68"/><line class="cls-1" x1="13.77" y1="9.01" x2="18.53" y2="13.57"/><line class="cls-1" x1="11.67" y1="14.1" x2="13.37" y2="15.74"/></g></g></g></svg>