<svg xmlns="http://www.w3.org/2000/svg" viewBox="0 0 15.16 31.14"><defs><style>.cls-1{fill:#59334d;}</style></defs><title>contact-other-ic</title><g id="Layer_2" data-name="Layer 2"><g id="Text"><path class="cls-1" d="M8.83,10.26c1.36,0,1.83.48,1.64,1.82l0,13.8c0,1.89.63,2.74,2.63,1.9a10.18,10.18,0,0,1,1.12-.51c.24-.08.65-.09.76.05a.89.89,0,0,1,.1.82,5.17,5.17,0,0,1-1,1.18C12.25,31,9.72,31.27,7.3,31.08a4.31,4.31,0,0,1-3.54-2,6.45,6.45,0,0,1-.54-2.49l0-12.18A2,2,0,0,0,1.28,12.1l-.45,0C.34,12,0,11.7,0,11.12s.46-.77,1-.8C1.88,10.28,7.6,10.23,8.83,10.26Z"/><path class="cls-1" d="M10.07,3.94A3.84,3.84,0,0,1,6.2,7.79,3.9,3.9,0,1,1,6.28,0,3.85,3.85,0,0,1,10.07,3.94Z"/></g></g></svg>