<svg xmlns="http://www.w3.org/2000/svg" viewBox="0 0 14.81 42.48"><defs><style>.cls-1{fill:none;stroke:#ef5241;stroke-linecap:round;stroke-linejoin:round;stroke-width:2px;}</style></defs><title>culture-ic</title><g id="Layer_2" data-name="Layer 2"><g id="Text"><path class="cls-1" d="M13,6.57a5.57,5.57,0,1,0-5.57,5.57A5.57,5.57,0,0,0,13,6.57"/><circle class="cls-1" cx="7.41" cy="6.57" r="5.57" transform="translate(-2.43 5.48) rotate(-35.24)"/><path class="cls-1" d="M6,25.81a1.43,1.43,0,0,0,2.85,0"/><path class="cls-1" d="M6,25.81a1.43,1.43,0,0,0,2.85,0"/><path class="cls-1" d="M12.6,7.73H2.21a1.21,1.21,0,1,1,0-2.41H12.6a1.21,1.21,0,1,1,0,2.41"/><path class="cls-1" d="M12.6,7.73H2.21a1.21,1.21,0,1,1,0-2.41H12.6a1.21,1.21,0,1,1,0,2.41Z"/><polyline class="cls-1" points="10.87 11.31 9.48 25.81 5.33 25.81 3.94 11.31"/><polyline class="cls-1" points="10.87 11.31 9.48 25.81 5.33 25.81 3.94 11.31"/><path class="cls-1" d="M6.42,41.48v-1.4a1.52,1.52,0,0,1,1.51-1.51h3a1.52,1.52,0,0,0,1.51-1.51v-.79A1.52,1.52,0,0,0,11,34.75H2.86a1.51,1.51,0,0,1-1.52-1.51v-.79a1.52,1.52,0,0,1,1.52-1.51h3a1.52,1.52,0,0,0,1.52-1.51v-2.2"/></g></g></svg>