<svg xmlns="http://www.w3.org/2000/svg" viewBox="0 0 13.61 8.22"><defs><style>.cls-1{fill:#1a1a1a;}</style></defs><title>dropdown-open-arrow-ic</title><g id="Layer_2" data-name="Layer 2"><g id="Text"><path class="cls-1" d="M0,0A29.86,29.86,0,0,1,4,2.85c.63.5,1.21,1.06,1.82,1.58S6.94,5.53,7.51,6.1H6.1C6.67,5.53,7.24,5,7.83,4.43S9,3.35,9.65,2.85a30,30,0,0,1,4-2.85,29.22,29.22,0,0,1-2.85,4c-.5.64-1.06,1.22-1.59,1.82S8.07,6.94,7.51,7.51l-.71.71-.7-.71C5.53,6.94,5,6.36,4.43,5.77S3.35,4.58,2.85,4A29.86,29.86,0,0,1,0,0Z"/></g></g></svg>