<svg xmlns="http://www.w3.org/2000/svg" viewBox="0 0 8.23 13.6"><defs><style>.cls-1{fill:#1a1a1a;}</style></defs><title>dropdown-closed-arrow-ic</title><g id="Layer_2" data-name="Layer 2"><g id="Text"><path class="cls-1" d="M8.23,0A30.87,30.87,0,0,1,5.37,4c-.5.63-1,1.21-1.58,1.82S2.69,6.94,2.13,7.51V6.1c.56.56,1.12,1.14,1.66,1.73S4.87,9,5.37,9.65A30.53,30.53,0,0,1,8.22,13.6a29,29,0,0,1-4-2.85c-.63-.5-1.21-1.05-1.82-1.58S1.28,8.07.71,7.51L0,6.8l.71-.7C1.29,5.53,1.86,5,2.46,4.43S3.64,3.35,4.27,2.85A30,30,0,0,1,8.23,0Z"/></g></g></svg>