<svg xmlns="http://www.w3.org/2000/svg" viewBox="0 0 16 16"><circle fill="#59334d" cx="8" cy="8" r="8"/><path fill="#fff" d="M9,5.76c.57,0,.77.21.69.77v5.82c0,.79.26,1.15,1.11.8a4,4,0,0,1,.47-.22c.1,0,.27,0,.32,0a.4.4,0,0,1,0,.35,2,2,0,0,1-.41.5,3.74,3.74,0,0,1-2.88.74,1.81,1.81,0,0,1-1.49-.84,2.67,2.67,0,0,1-.23-1V7.51a.84.84,0,0,0-.81-1l-.19,0c-.2,0-.36-.15-.35-.39s.2-.33.41-.34C6,5.77,8.45,5.75,9,5.76Z"/><path fill="#fff" d="M9.49,3.1A1.62,1.62,0,0,1,7.86,4.72a1.64,1.64,0,1,1,0-3.28A1.61,1.61,0,0,1,9.49,3.1Z"/></svg>
