<svg xmlns="http://www.w3.org/2000/svg" viewBox="0 0 52.92 51.89"><defs><style>.cls-1{opacity:0.5;}.cls-2{fill:#fff;}.cls-3{fill:none;stroke:#fff;stroke-linecap:round;stroke-linejoin:round;stroke-width:2px;}</style></defs><title>footer-help</title><g id="Layer_2" data-name="Layer 2"><g id="Footer"><g class="cls-1"><path class="cls-2" d="M6.11,17.86a.9.9,0,0,0,0-1.79.9.9,0,0,0,0,1.79Z"/><path class="cls-2" d="M13.82,17.86a.9.9,0,0,0,0-1.79.9.9,0,0,0,0,1.79Z"/><path class="cls-2" d="M21.53,17.86a.9.9,0,0,0,0-1.79.9.9,0,0,0,0,1.79Z"/><path class="cls-2" d="M6.11,24.86a.89.89,0,0,0,0-1.78.89.89,0,0,0,0,1.78Z"/><path class="cls-2" d="M13.82,24.86a.89.89,0,0,0,0-1.78.89.89,0,0,0,0,1.78Z"/><path class="cls-2" d="M21.53,24.86a.89.89,0,0,0,0-1.78.89.89,0,0,0,0,1.78Z"/><path class="cls-2" d="M6.11,31.87a.9.9,0,0,0,0-1.79.9.9,0,0,0,0,1.79Z"/><path class="cls-2" d="M13.82,31.87a.9.9,0,0,0,0-1.79.9.9,0,0,0,0,1.79Z"/><path class="cls-2" d="M21.53,31.87a.9.9,0,0,0,0-1.79.9.9,0,0,0,0,1.79Z"/><path class="cls-2" d="M29.24,31.87a.9.9,0,0,0,0-1.79.9.9,0,0,0,0,1.79Z"/><path class="cls-2" d="M37,31.87a.9.9,0,0,0,0-1.79.9.9,0,0,0,0,1.79Z"/><path class="cls-2" d="M6.11,38.87a.89.89,0,0,0,0-1.78.89.89,0,0,0,0,1.78Z"/><path class="cls-2" d="M13.82,38.87a.89.89,0,0,0,0-1.78.89.89,0,0,0,0,1.78Z"/><path class="cls-2" d="M21.53,38.87a.89.89,0,0,0,0-1.78.89.89,0,0,0,0,1.78Z"/><path class="cls-2" d="M29.24,38.87a.89.89,0,0,0,0-1.78.89.89,0,0,0,0,1.78Z"/><path class="cls-2" d="M37,38.87a.89.89,0,0,0,0-1.78.89.89,0,0,0,0,1.78Z"/><path class="cls-2" d="M6.11,45.88a.9.9,0,0,0,0-1.79.9.9,0,0,0,0,1.79Z"/><path class="cls-2" d="M13.82,45.88a.9.9,0,0,0,0-1.79.9.9,0,0,0,0,1.79Z"/><path class="cls-2" d="M21.53,45.88a.9.9,0,0,0,0-1.79.9.9,0,0,0,0,1.79Z"/><path class="cls-2" d="M29.24,45.88a.9.9,0,0,0,0-1.79.9.9,0,0,0,0,1.79Z"/><path class="cls-2" d="M37,45.88a.9.9,0,0,0,0-1.79.9.9,0,0,0,0,1.79Z"/></g><g id="text"><path class="cls-3" d="M43,19.3V47a3.86,3.86,0,0,1-3.86,3.86H4.86A3.86,3.86,0,0,1,1,47V13.88A3.86,3.86,0,0,1,4.86,10H33.54"/><path class="cls-3" d="M21.25,31.91h0c-.69-.69,4.53-14.08,5.32-14.87L42,1.61a1.93,1.93,0,0,1,2.66-.15l6.77,6.77A1.93,1.93,0,0,1,51.28,11L35.85,26.38C35.06,27.13,21.91,32.61,21.25,31.91Z"/><line class="cls-3" x1="46.98" y1="5.95" x2="34.58" y2="18.35"/><line class="cls-3" x1="26.54" y1="17.02" x2="36.06" y2="26.15"/><line class="cls-3" x1="22.33" y1="27.21" x2="25.74" y2="30.49"/></g></g></g></svg>