<svg xmlns="http://www.w3.org/2000/svg" viewBox="0 0 63.98 41.47"><defs><style>.cls-1{opacity:0.5;}.cls-2{fill:#fff;}.cls-3{fill:none;stroke:#fff;stroke-linecap:round;stroke-linejoin:round;stroke-width:2px;}</style></defs><title>footer-newsletter</title><g id="Layer_2" data-name="Layer 2"><g id="Footer"><g class="cls-1"><path class="cls-2" d="M.86,13.45a.9.9,0,0,0,0-1.79.9.9,0,0,0,0,1.79Z"/><path class="cls-2" d="M8.58,13.45a.9.9,0,0,0,0-1.79.9.9,0,0,0,0,1.79Z"/><path class="cls-2" d="M16.29,13.45a.9.9,0,0,0,0-1.79.9.9,0,0,0,0,1.79Z"/><path class="cls-2" d="M24,13.45a.9.9,0,0,0,0-1.79.9.9,0,0,0,0,1.79Z"/><path class="cls-2" d="M31.71,13.45a.9.9,0,0,0,0-1.79.9.9,0,0,0,0,1.79Z"/><path class="cls-2" d="M39.43,13.45a.9.9,0,0,0,0-1.79.9.9,0,0,0,0,1.79Z"/><path class="cls-2" d="M47.14,13.45a.9.9,0,0,0,0-1.79.9.9,0,0,0,0,1.79Z"/><path class="cls-2" d="M.86,20.45a.89.89,0,0,0,0-1.78.89.89,0,0,0,0,1.78Z"/><path class="cls-2" d="M8.58,20.45a.89.89,0,0,0,0-1.78.89.89,0,0,0,0,1.78Z"/><path class="cls-2" d="M16.29,20.45a.89.89,0,0,0,0-1.78.89.89,0,0,0,0,1.78Z"/><path class="cls-2" d="M24,20.45a.89.89,0,0,0,0-1.78.89.89,0,0,0,0,1.78Z"/><path class="cls-2" d="M31.71,20.45a.89.89,0,0,0,0-1.78.89.89,0,0,0,0,1.78Z"/><path class="cls-2" d="M39.43,20.45a.89.89,0,0,0,0-1.78.89.89,0,0,0,0,1.78Z"/><path class="cls-2" d="M47.14,20.45a.89.89,0,0,0,0-1.78.89.89,0,0,0,0,1.78Z"/><path class="cls-2" d="M.86,27.46a.9.9,0,0,0,0-1.79.9.9,0,0,0,0,1.79Z"/><path class="cls-2" d="M8.58,27.46a.9.9,0,0,0,0-1.79.9.9,0,0,0,0,1.79Z"/><path class="cls-2" d="M16.29,27.46a.9.9,0,0,0,0-1.79.9.9,0,0,0,0,1.79Z"/><path class="cls-2" d="M24,27.46a.9.9,0,0,0,0-1.79.9.9,0,0,0,0,1.79Z"/><path class="cls-2" d="M31.71,27.46a.9.9,0,0,0,0-1.79.9.9,0,0,0,0,1.79Z"/><path class="cls-2" d="M39.43,27.46a.9.9,0,0,0,0-1.79.9.9,0,0,0,0,1.79Z"/><path class="cls-2" d="M47.14,27.46a.9.9,0,0,0,0-1.79.9.9,0,0,0,0,1.79Z"/><path class="cls-2" d="M.86,34.46a.89.89,0,0,0,0-1.78.89.89,0,0,0,0,1.78Z"/><path class="cls-2" d="M8.58,34.46a.89.89,0,0,0,0-1.78.89.89,0,0,0,0,1.78Z"/><path class="cls-2" d="M16.29,34.46a.89.89,0,0,0,0-1.78.89.89,0,0,0,0,1.78Z"/><path class="cls-2" d="M24,34.46a.89.89,0,0,0,0-1.78.89.89,0,0,0,0,1.78Z"/><path class="cls-2" d="M31.71,34.46a.89.89,0,0,0,0-1.78.89.89,0,0,0,0,1.78Z"/><path class="cls-2" d="M39.43,34.46a.89.89,0,0,0,0-1.78.89.89,0,0,0,0,1.78Z"/><path class="cls-2" d="M47.14,34.46a.89.89,0,0,0,0-1.78.89.89,0,0,0,0,1.78Z"/><path class="cls-2" d="M.86,41.47a.9.9,0,0,0,0-1.79.9.9,0,0,0,0,1.79Z"/><path class="cls-2" d="M8.58,41.47a.9.9,0,0,0,0-1.79.9.9,0,0,0,0,1.79Z"/><path class="cls-2" d="M16.29,41.47a.9.9,0,0,0,0-1.79.9.9,0,0,0,0,1.79Z"/><path class="cls-2" d="M24,41.47a.9.9,0,0,0,0-1.79.9.9,0,0,0,0,1.79Z"/><path class="cls-2" d="M31.71,41.47a.9.9,0,0,0,0-1.79.9.9,0,0,0,0,1.79Z"/><path class="cls-2" d="M39.43,41.47a.9.9,0,0,0,0-1.79.9.9,0,0,0,0,1.79Z"/><path class="cls-2" d="M47.14,41.47a.9.9,0,0,0,0-1.79.9.9,0,0,0,0,1.79Z"/></g><g id="Drop_Down" data-name="Drop Down"><polyline class="cls-3" points="59.3 13.74 59.3 33.74 16 33.74 16 5.16 45.24 5.16"/><polyline class="cls-3" points="16 10.49 37.64 25.95 49.09 17.79"/><line class="cls-3" x1="16" y1="31.57" x2="29.39" y2="20.05"/><line class="cls-3" x1="59.3" y1="31.57" x2="45.89" y2="20.05"/><path class="cls-3" d="M60.22,1,63,4.27H54.51a4.35,4.35,0,0,0-4.35,4.35"/><line class="cls-3" x1="60.22" y1="7.99" x2="62.98" y2="4.2"/></g></g></g></svg>