<svg xmlns="http://www.w3.org/2000/svg" viewBox="0 0 199.4 110.42"><defs><style>.cls-1{fill:#fff;}</style></defs><title>footer-logo</title><g id="Layer_2" data-name="Layer 2"><g id="Isolation_Mode" data-name="Isolation Mode"><path class="cls-1" d="M170.31,26.22c3.07.07,4.14,1.09,3.71,4.12l0,31.3c.07,4.29,1.42,6.23,6,4.32a27.49,27.49,0,0,1,2.53-1.17c.55-.16,1.48-.2,1.73.12a2.06,2.06,0,0,1,.22,1.86,11,11,0,0,1-2.18,2.68c-4.28,3.85-10,4.43-15.51,4a9.78,9.78,0,0,1-8-4.54c-1.12-1.72-1.23-5.66-1.23-5.66l0-27.61a4.51,4.51,0,0,0-4.34-5.25,8.94,8.94,0,0,1-1-.07c-1.11-.27-2-.84-1.89-2.14s1-1.77,2.17-1.82C154.54,26.26,167.5,26.14,170.31,26.22Z"/><path class="cls-1" d="M170.31,26.22c3.07.07,4.14,1.09,3.71,4.12l0,31.3c.07,4.29,1.42,6.23,6,4.32a27.49,27.49,0,0,1,2.53-1.17c.55-.16,1.48-.2,1.73.12a2.06,2.06,0,0,1,.22,1.86,11,11,0,0,1-2.18,2.68c-4.28,3.85-10,4.43-15.51,4a9.78,9.78,0,0,1-8-4.54c-1.12-1.72-1.23-5.66-1.23-5.66l0-27.61a4.51,4.51,0,0,0-4.34-5.25,8.94,8.94,0,0,1-1-.07c-1.11-.27-2-.84-1.89-2.14s1-1.77,2.17-1.82C154.54,26.26,167.5,26.14,170.31,26.22Z"/><path class="cls-1" d="M173.1,8.93a8.68,8.68,0,0,1-8.77,8.73,8.89,8.89,0,0,1-8.76-8.84A8.86,8.86,0,0,1,164.51,0,8.71,8.71,0,0,1,173.1,8.93Z"/><path class="cls-1" d="M105.83,96.92a3.28,3.28,0,0,1-3.31,3.29,3.33,3.33,0,1,1,.06-6.66A3.3,3.3,0,0,1,105.83,96.92Z"/><path class="cls-1" d="M47.06,70.86l-12.91,2V40.13c0-1.1-.46-1.66-1.38-1.66H21.09V72.05H0l2.61-11.5H8.26V42.08l4-3c.19-.13.26-.25.19-.38s-.09-.24-.28-.24H4.84V27H33q14.1,0,14.1,14.58Z"/><path class="cls-1" d="M99,28.88,95.22,49a27,27,0,0,1-6.91,14.23Q83.06,68.63,73.52,72L52.19,79.41l2.23-12.63,10.83-3.9-6.12-24c-.07-.35-.34-.52-.81-.52H53.76V27H68.15a2.22,2.22,0,0,1,2.33,2.13l5.27,25.55-3.52,5.18c-.12.19-.16.35-.09.47s.28,0,.47-.09l1.29-.57q7.39-3.14,8.54-9.93l2-11.3H79.55V27H97.36C98.65,27,99.19,27.64,99,28.88Z"/><path class="cls-1" d="M144.13,37.05,138.2,39a2.48,2.48,0,0,0-1.95,2.43V70.48l-12.87,2.33V43l4.7-4c.44-.34.41-.52-.09-.52H104.43V27h39.7Z"/><path class="cls-1" d="M199.4,52.77l-12.87,2.37V39.37c0-.6-.25-.9-.76-.9h-3.89V27h10.68q6.84,0,6.84,7.17Z"/><path class="cls-1" d="M.6,102.13V98.86H.82a4.35,4.35,0,0,0,1.28,2.23,3.12,3.12,0,0,0,2,.64c1.24,0,1.86-.39,1.86-1.19a.82.82,0,0,0-.45-.76,6,6,0,0,0-1.83-.62,7,7,0,0,1-2.08-.88,2.31,2.31,0,0,1-1-2.08,3.06,3.06,0,0,1,.88-2.28,3.23,3.23,0,0,1,2.34-.85,4.54,4.54,0,0,1,1.84.42,1.49,1.49,0,0,0,.53.15.4.4,0,0,0,.31-.13A1.78,1.78,0,0,0,6.81,93H7v2.79H6.79q-.93-2.37-2.88-2.37a2.22,2.22,0,0,0-1.28.3.9.9,0,0,0-.42.76.65.65,0,0,0,.13.43,1.58,1.58,0,0,0,.2.22.83.83,0,0,0,.24.16l.27.13.34.12a1.94,1.94,0,0,0,.34.09,12.33,12.33,0,0,1,1.79.54,6.09,6.09,0,0,1,1,.55,2.53,2.53,0,0,1,1,2.24,2.93,2.93,0,0,1-.91,2.34,3.69,3.69,0,0,1-2.5.79A4.79,4.79,0,0,1,2,101.6a.73.73,0,0,0-.34-.14c-.27,0-.53.22-.79.67Z"/><path class="cls-1" d="M8.4,88.25h4.4v6.69a3.09,3.09,0,0,1,.9-1.35,2.72,2.72,0,0,1,1.83-.52c1.88,0,2.83,1,2.83,3.05v5.5h1V102H14.21v-.33H15V95.69a4.13,4.13,0,0,0-.15-1.42.54.54,0,0,0-.53-.32c-.39,0-.73.26-1,.77a3.61,3.61,0,0,0-.45,1.86v5h.79V102H8.4v-.33h1v-13h-1Z"/><path class="cls-1" d="M21.21,100.92A4.68,4.68,0,0,1,20,97.54a4.14,4.14,0,0,1,1.32-3.31,5,5,0,0,1,3.37-1.16q4.14,0,4,4.17H23.56V98a6.13,6.13,0,0,0,.46,2.7,1.62,1.62,0,0,0,1.59.92,2.72,2.72,0,0,0,2.77-2.27l.33.06a3.77,3.77,0,0,1-1.25,2,4.23,4.23,0,0,1-2.71.73A4.73,4.73,0,0,1,21.21,100.92Zm2.37-4h1.88V96a8,8,0,0,0-.17-2,.69.69,0,0,0-.7-.54.8.8,0,0,0-.76.58,5.38,5.38,0,0,0-.25,2Z"/><path class="cls-1" d="M39.21,102v-.33h.84L38,97.38l-.35.1v4.14h.84V102H33.24v-.33h1v-13H33.17v-.33h4.47v8.86l.3-.11L42,93.59H40.33v-.33h3.6v.33H42.65l-2.18,1.84,3.16,6.19h.66V102Z"/><path class="cls-1" d="M44.89,93.26h4.4v1.68a3.09,3.09,0,0,1,.9-1.35A2.72,2.72,0,0,1,52,93.07c1.88,0,2.83,1,2.83,3.05v5.5h1V102H50.7v-.33h.75V95.69a4.13,4.13,0,0,0-.15-1.42.52.52,0,0,0-.52-.32c-.4,0-.74.26-1,.77a3.61,3.61,0,0,0-.45,1.86v5h.79V102H44.89v-.33h1v-8h-1Z"/><path class="cls-1" d="M57.72,101a4.51,4.51,0,0,1-1.17-3.35,4.38,4.38,0,0,1,1.25-3.36,4.93,4.93,0,0,1,3.51-1.18,4.69,4.69,0,0,1,3.38,1.09,4.43,4.43,0,0,1,1.12,3.32q0,4.65-4.64,4.65A4.66,4.66,0,0,1,57.72,101Zm4.58-2.61V96.8a12.24,12.24,0,0,0-.19-2.58c-.13-.55-.43-.82-.89-.82a.94.94,0,0,0-.65.23,1.42,1.42,0,0,0-.35.76,13.73,13.73,0,0,0-.17,2.5v1.43a12.89,12.89,0,0,0,.12,2.39,3.68,3.68,0,0,0,.25.66.76.76,0,0,0,.78.43.94.94,0,0,0,.94-.82A13.45,13.45,0,0,0,62.3,98.35Z"/><path class="cls-1" d="M72.31,93.59v-.33H77v.33h-.75l1.65,6.15,1.62-6.15H78.28v-.33h2.47v.33H80L77.79,102h-2.5L73.7,96.34,72,102H69.53l-2.7-8.36H66v-.33h5.53v.33H70.45l1.68,6.21,1.31-4.28L73,93.59Z"/><path class="cls-1" d="M81.2,102.13V98.86h.22a4.42,4.42,0,0,0,1.28,2.23,3.12,3.12,0,0,0,2,.64c1.24,0,1.86-.39,1.86-1.19a.82.82,0,0,0-.45-.76,6,6,0,0,0-1.83-.62,7,7,0,0,1-2.08-.88,2.31,2.31,0,0,1-1-2.08,3.06,3.06,0,0,1,.88-2.28,3.23,3.23,0,0,1,2.34-.85,4.54,4.54,0,0,1,1.84.42,1.49,1.49,0,0,0,.53.15.4.4,0,0,0,.31-.13,1.78,1.78,0,0,0,.31-.47h.21v2.79H87.4c-.63-1.58-1.59-2.37-2.89-2.37a2.22,2.22,0,0,0-1.28.3.9.9,0,0,0-.42.76.65.65,0,0,0,.13.43,1.58,1.58,0,0,0,.2.22.83.83,0,0,0,.24.16l.27.13.34.12a1.94,1.94,0,0,0,.34.09,11.94,11.94,0,0,1,1.79.54,6.09,6.09,0,0,1,1,.55,2.53,2.53,0,0,1,1,2.24,2.93,2.93,0,0,1-.91,2.34,3.68,3.68,0,0,1-2.5.79,4.72,4.72,0,0,1-2.19-.53.8.8,0,0,0-.35-.14c-.27,0-.53.22-.79.67Z"/><path class="cls-1" d="M132.38,100.45a3.49,3.49,0,0,1-.18,1.14c-.17.5-.42.75-.76.75H117.23a1.35,1.35,0,0,1-.91-.4,1.13,1.13,0,0,1-.45-.85V99.22a1.84,1.84,0,0,1,1-1.69l2-1.15v3h10.63V97.53H126.9a2,2,0,0,1-1.64-.82,2.82,2.82,0,0,1-.64-1.83,3.07,3.07,0,0,1,.7-2,2.67,2.67,0,0,1,2.19-.84l1,0c.45,0,.8,0,1,0A3.59,3.59,0,0,0,132.38,91Zm-2.95-4.93V94h-1.54q-.84,0-.84.81c0,.47.26.71.79.71Zm.68-6.67a1,1,0,0,1-.28.72,1.09,1.09,0,0,1-1.46,0,1,1,0,0,1-.28-.72.94.94,0,0,1,.28-.72,1.06,1.06,0,0,1,1.46,0A.94.94,0,0,1,130.11,88.85Z"/><path class="cls-1" d="M143.22,102.34h-3.29v1.44A2.87,2.87,0,0,1,137,106.7a3.17,3.17,0,0,1-2.2-.84,3,3,0,0,1-1-2.08H137V99.5a2.38,2.38,0,0,1,.8-2c.07-.06.78-.43,2.11-1.09v3h3.29Z"/><path class="cls-1" d="M154.55,102.34H139.69l1.76-3H146a7,7,0,0,1-.91-2.62,2.49,2.49,0,0,1,.81-1.91,2.85,2.85,0,0,1,2-.71l1,0,1,0q1.95,0,2.19-.36l.74-1v4.3h-4.46c-.26,0-.38.14-.38.41a1.91,1.91,0,0,0,.57,1.24,1.59,1.59,0,0,0,1.17.64h4.86Z"/><path class="cls-1" d="M162.87,101.09a1.13,1.13,0,0,1-.45.85,1.35,1.35,0,0,1-.9.4H151l1.76-3h7.56a8.16,8.16,0,0,1,.27-2.83,9.42,9.42,0,0,1,2.25-1.77ZM158,91.49a1,1,0,1,1-2,0,1,1,0,0,1,.27-.72,1.09,1.09,0,0,1,1.46,0A1,1,0,0,1,158,91.49Zm4.28,0a1,1,0,0,1-1,1,1,1,0,0,1-.72-.28,1,1,0,0,1,.72-1.73,1,1,0,0,1,.73.28A1,1,0,0,1,162.24,91.49Z"/><path class="cls-1" d="M187.32,102.34H183V97a2.65,2.65,0,0,0-.75-.12,2.29,2.29,0,0,0-2.21,2.2v.15a.66.66,0,0,1,0,.13v4a3.58,3.58,0,0,1-1.77,2.85,5.51,5.51,0,0,1-6.74.08,3.79,3.79,0,0,1-1.57-3.17,4.42,4.42,0,0,1,1.8-3.52c.38-.31.61-.47.71-.47a0,0,0,0,1,0,0v3.44a1.57,1.57,0,0,0,.85,1.42,3.22,3.22,0,0,0,1.67.43,3.18,3.18,0,0,0,1.76-.5,2.33,2.33,0,0,0,.81-2.1c0-.39,0-2.07,0-2.07a7.37,7.37,0,0,1,.29-2.36,5.34,5.34,0,0,1,1.63-2.3,3.09,3.09,0,0,1,1.76-.69l2-.22A4.81,4.81,0,0,0,185.55,93v6.42h1.77Zm-12.61,7.19c0,.59-.33.89-1,.89s-1-.3-1-.89.33-.89,1-.89S174.71,108.94,174.71,109.53Zm4.67,0c0,.59-.34.89-1,.89s-1-.3-1-.89.34-.89,1-.89S179.38,108.94,179.38,109.53Z"/><path class="cls-1" d="M199.4,101.09a1.12,1.12,0,0,1-.44.85,1.35,1.35,0,0,1-.91.4H183.79l1.76-3h2.95a6.86,6.86,0,0,1,1.47-3.2,7.21,7.21,0,0,1,2.81-2.14,3.75,3.75,0,0,1,.57-2.32,24.12,24.12,0,0,1,2-1.68v4a3.76,3.76,0,0,1,3.13,1.65,6.11,6.11,0,0,1,1,3.54Zm-6.62-1.7V96.91a3.15,3.15,0,0,0-1.24,1,4.46,4.46,0,0,0-.53,1.51Zm4.14-.55a2.15,2.15,0,0,0-.34-1.35,2.18,2.18,0,0,0-1.27-.58v2.48h1.58C196.91,99.19,196.92,99,196.92,98.84Z"/></g></g></svg>