<svg xmlns="http://www.w3.org/2000/svg" viewBox="0 0 10.92 23.36"><defs><style>.cls-1{fill:#59334d;}</style></defs><title>info-ic</title><g id="Layer_2" data-name="Layer 2"><g id="characters"><path class="cls-1" d="M6.36,8.32c1,0,1.32.35,1.18,1.31l0,9.94c0,1.36.45,2,1.89,1.37.27-.11.53-.28.81-.37s.46-.06.54,0a.62.62,0,0,1,.07.59,3.3,3.3,0,0,1-.69.85,6.36,6.36,0,0,1-4.92,1.27,3.12,3.12,0,0,1-2.55-1.44,4.55,4.55,0,0,1-.39-1.8l0-8.76A1.43,1.43,0,0,0,.92,9.65l-.32,0C.25,9.54,0,9.36,0,9s.33-.56.69-.58C1.36,8.34,5.47,8.3,6.36,8.32Z"/><path class="cls-1" d="M7.25,2.83A2.76,2.76,0,0,1,4.46,5.61,2.81,2.81,0,1,1,4.52,0,2.77,2.77,0,0,1,7.25,2.83Z"/></g></g></svg>