<svg xmlns="http://www.w3.org/2000/svg" viewBox="0 0 284.86 157.74"><defs><style>.cls-1,.cls-2{fill:#ffffff;}.cls-2{font-size:26.09px;font-family:AbrilFatface-Regular, Abril Fatface;}</style></defs><title>landingpage-logo</title><g id="Layer_2" data-name="Layer 2"><g id="logos"><path class="cls-1" d="M243.29,37.45c4.39.11,5.92,1.57,5.31,5.89l.07,44.72c.1,6.12,2,8.9,8.52,6.16,1.23-.51,2.37-1.28,3.63-1.66.77-.24,2.11-.28,2.47.16a2.94,2.94,0,0,1,.31,2.66,15.33,15.33,0,0,1-3.12,3.83c-6.11,5.51-14.31,6.34-22.16,5.72-5-.39-8.78-2.34-11.46-6.48-1.6-2.46-1.76-8.09-1.76-8.09L225,50.91a6.44,6.44,0,0,0-6.2-7.5,12,12,0,0,1-1.46-.09c-1.59-.4-2.8-1.21-2.69-3.06s1.48-2.53,3.1-2.61C220.77,37.51,239.29,37.35,243.29,37.45Z"/><path class="cls-1" d="M247.29,12.75a12.41,12.41,0,0,1-12.53,12.48A12.62,12.62,0,1,1,235,0,12.45,12.45,0,0,1,247.29,12.75Z"/><path class="cls-1" d="M151.18,138.45a4.68,4.68,0,0,1-4.73,4.71,4.76,4.76,0,1,1,.1-9.52A4.7,4.7,0,0,1,151.18,138.45Z"/><path class="cls-1" d="M67.23,101.23,48.78,104V57.33c0-1.58-.66-2.37-2-2.37H30.12v48H0L3.73,86.51h8.08V60.11l5.69-4.27c.28-.18.37-.36.28-.54s-.14-.34-.41-.34H6.92V38.61H47.08q20.16,0,20.15,20.83Z"/><path class="cls-1" d="M141.39,41.25,136,70q-2.39,12.62-9.88,20.32T105,102.79L74.56,113.44l3.19-18,15.47-5.56L84.47,55.57c-.1-.5-.48-.75-1.16-.75H76.8V38.61H97.36q2.77,0,3.32,3l7.53,36.5-5,7.4c-.18.27-.23.5-.13.67s.4,0,.67-.13l1.84-.82q10.58-4.47,12.21-14.17L120.56,55h-6.92V38.61h25.44Q141.86,38.61,141.39,41.25Z"/><path class="cls-1" d="M205.91,52.92l-8.48,2.78q-2.79,1-2.79,3.46v41.53L176.26,104V61.4L183,55.7c.63-.49.58-.74-.14-.74H149.19V38.61h56.72Z"/><path class="cls-1" d="M284.86,75.38l-18.38,3.39V56.25c0-.86-.37-1.29-1.09-1.29h-5.56V38.61h15.26q9.78,0,9.77,10.24Z"/><text class="cls-2" transform="translate(0 145.65)">she knows</text><path class="cls-1" d="M189.11,143.5a4.76,4.76,0,0,1-.26,1.63c-.23.72-.59,1.08-1.07,1.08h-20.3a1.92,1.92,0,0,1-1.31-.58,1.63,1.63,0,0,1-.65-1.22v-2.67a2.62,2.62,0,0,1,1.38-2.41l2.81-1.65V142H184.9v-2.66h-3.61a2.94,2.94,0,0,1-2.35-1.17,4,4,0,0,1-.92-2.62,4.39,4.39,0,0,1,1-2.88,3.86,3.86,0,0,1,3.13-1.2c.31,0,.78,0,1.43.06s1.13.06,1.47.06a5.14,5.14,0,0,0,4.06-1.62Zm-4.21-7.05v-2.16h-2.2c-.8,0-1.2.38-1.2,1.16s.38,1,1.13,1Zm1-9.52a1.39,1.39,0,0,1-.4,1,1.42,1.42,0,0,1-1.05.4,1.37,1.37,0,0,1-1.43-1.43,1.41,1.41,0,0,1,.4-1,1.43,1.43,0,0,1,1-.4,1.46,1.46,0,0,1,1.05.4A1.41,1.41,0,0,1,185.87,126.93Z"/><path class="cls-1" d="M204.6,146.21h-4.69v2a4.13,4.13,0,0,1-4.17,4.17,4.58,4.58,0,0,1-3.15-1.2,4.36,4.36,0,0,1-1.49-3h4.64v-6.11a3.37,3.37,0,0,1,1.14-2.83c.11-.1,1.12-.62,3-1.57V142h4.69Z"/><path class="cls-1" d="M220.79,146.21H199.56l2.51-4.22h6.52a9.87,9.87,0,0,1-1.3-3.75,3.54,3.54,0,0,1,1.16-2.72,4,4,0,0,1,2.8-1c.31,0,.79,0,1.42,0s1.11.05,1.42.05c1.85,0,2.9-.17,3.13-.51l1.06-1.51v6.15H211.9c-.37,0-.55.19-.55.58a2.69,2.69,0,0,0,.82,1.77,2.29,2.29,0,0,0,1.68.92h6.94Z"/><path class="cls-1" d="M232.67,144.41a1.62,1.62,0,0,1-.64,1.22,1.93,1.93,0,0,1-1.29.58h-15l2.52-4.22h10.79a11.62,11.62,0,0,1,.39-4.05,13.88,13.88,0,0,1,3.21-2.53Zm-7-13.7a1.44,1.44,0,1,1-2.47-1,1.54,1.54,0,0,1,2.07,0A1.39,1.39,0,0,1,225.65,130.71Zm6.12,0a1.42,1.42,0,0,1-.39,1,1.4,1.4,0,0,1-1,.4,1.46,1.46,0,0,1-1-2.47,1.43,1.43,0,0,1,1-.4,1.44,1.44,0,0,1,1,.4A1.43,1.43,0,0,1,231.77,130.71Z"/><path class="cls-1" d="M267.6,146.21h-6.13v-7.6a3.9,3.9,0,0,0-1.08-.17,3.27,3.27,0,0,0-3.14,3.14v.21a1.64,1.64,0,0,1,0,.2v5.66q0,2.23-2.53,4.06a7.88,7.88,0,0,1-9.63.12,5.44,5.44,0,0,1-2.25-4.53,6.31,6.31,0,0,1,2.58-5,2.9,2.9,0,0,1,1-.67s0,0,0,0v4.92a2.25,2.25,0,0,0,1.22,2,4.92,4.92,0,0,0,4.9-.09c.77-.5,1.16-1.5,1.16-3,0-.56,0-3,0-3a10.13,10.13,0,0,1,.42-3.37,7.77,7.77,0,0,1,2.32-3.29,4.43,4.43,0,0,1,2.51-1l2.87-.32a6.81,6.81,0,0,0,3.18-1.76V142h2.53Zm-18,10.26c0,.85-.48,1.27-1.43,1.27s-1.45-.42-1.45-1.27.48-1.26,1.45-1.26S249.59,155.63,249.59,156.47Zm6.66,0c0,.85-.47,1.27-1.43,1.27s-1.45-.42-1.45-1.27.48-1.26,1.45-1.26S256.25,155.63,256.25,156.47Z"/><path class="cls-1" d="M284.86,144.41a1.64,1.64,0,0,1-.63,1.22,1.91,1.91,0,0,1-1.3.58H262.56l2.51-4.22h4.22a9.94,9.94,0,0,1,2.09-4.58,10.18,10.18,0,0,1,4-3,5.42,5.42,0,0,1,.8-3.32,35.84,35.84,0,0,1,2.8-2.39v5.64a5.38,5.38,0,0,1,4.48,2.35,8.71,8.71,0,0,1,1.37,5.07ZM275.41,142v-3.55a4.43,4.43,0,0,0-1.78,1.39,6.29,6.29,0,0,0-.76,2.16Zm5.9-.79a3,3,0,0,0-.48-1.93,3.12,3.12,0,0,0-1.82-.83V142h2.27C281.3,141.71,281.31,141.44,281.31,141.2Z"/><path class="cls-1" d="M243.29,37.45c4.39.11,5.92,1.57,5.31,5.89l.07,44.72c.1,6.12,2,8.9,8.52,6.16,1.23-.51,2.37-1.28,3.63-1.66.77-.24,2.11-.28,2.47.16a2.94,2.94,0,0,1,.31,2.66,15.33,15.33,0,0,1-3.12,3.83c-6.11,5.51-14.31,6.34-22.16,5.72-5-.39-8.78-2.34-11.46-6.48-1.6-2.46-1.76-8.09-1.76-8.09L225,50.91a6.44,6.44,0,0,0-6.2-7.5,12,12,0,0,1-1.46-.09c-1.59-.4-2.8-1.21-2.69-3.06s1.48-2.53,3.1-2.61C220.77,37.51,239.29,37.35,243.29,37.45Z"/></g></g></svg>
