<svg xmlns="http://www.w3.org/2000/svg" viewBox="0 0 284.86 157.74"><defs><style>.cls-1{fill:#59334d;}</style></defs><title>landingpage-logo</title><g id="Layer_2" data-name="Layer 2"><g id="logos"><path class="cls-1" d="M243.29,37.45c4.39.11,5.92,1.57,5.31,5.89l.07,44.72c.1,6.12,2,8.9,8.52,6.16,1.23-.51,2.37-1.28,3.63-1.66.77-.24,2.11-.28,2.47.16a2.94,2.94,0,0,1,.31,2.66,15.33,15.33,0,0,1-3.12,3.83c-6.11,5.51-14.31,6.34-22.16,5.72-5-.39-8.78-2.34-11.46-6.48-1.6-2.46-1.76-8.09-1.76-8.09L225,50.91a6.43,6.43,0,0,0-6.19-7.5,12,12,0,0,1-1.46-.09c-1.59-.4-2.8-1.21-2.69-3.06s1.48-2.53,3.09-2.61C220.77,37.51,239.29,37.35,243.29,37.45Z"/><path class="cls-1" d="M247.29,12.75a12.41,12.41,0,0,1-12.53,12.48A12.7,12.7,0,0,1,222.24,12.6,12.67,12.67,0,0,1,235,0,12.45,12.45,0,0,1,247.29,12.75Z"/><path class="cls-1" d="M151.18,138.45a4.68,4.68,0,0,1-4.73,4.71,4.76,4.76,0,1,1,.1-9.52A4.7,4.7,0,0,1,151.18,138.45Z"/><path class="cls-1" d="M67.23,101.23,48.78,104V57.33c0-1.58-.66-2.37-2-2.37H30.12v48H0L3.73,86.51H11.8V60.11l5.7-4.27c.28-.18.36-.36.28-.54s-.14-.34-.41-.34H6.92V38.61H47.08q20.16,0,20.15,20.83Z"/><path class="cls-1" d="M141.39,41.25,136,70q-2.39,12.62-9.88,20.32T105,102.79L74.56,113.44l3.19-18,15.47-5.56L84.47,55.57c-.1-.5-.48-.75-1.16-.75H76.8V38.61H97.36q2.77,0,3.32,3l7.53,36.5-5,7.4a.67.67,0,0,0-.14.67c.18.1.41,0,.68-.13l1.83-.82q10.59-4.47,12.22-14.17L120.56,55h-6.92V38.61h25.44Q141.86,38.61,141.39,41.25Z"/><path class="cls-1" d="M205.91,52.92l-8.48,2.78q-2.79,1-2.79,3.46v41.53L176.26,104V61.4L183,55.7c.64-.49.59-.74-.13-.74H149.19V38.61h56.72Z"/><path class="cls-1" d="M284.86,75.38l-18.38,3.39V56.25c0-.86-.37-1.29-1.09-1.29h-5.56V38.61h15.26q9.78,0,9.77,10.24Z"/><path class="cls-1" d="M.86,145.91v-4.67h.31A6.29,6.29,0,0,0,3,144.42a4.46,4.46,0,0,0,2.87.91c1.77,0,2.66-.56,2.66-1.69a1.19,1.19,0,0,0-.65-1.1,8.93,8.93,0,0,0-2.61-.89,10.18,10.18,0,0,1-3-1.25,3.3,3.3,0,0,1-1.44-3,4.33,4.33,0,0,1,1.25-3.25A4.61,4.61,0,0,1,5.45,133a6.51,6.51,0,0,1,2.64.6,2.14,2.14,0,0,0,.76.21.6.6,0,0,0,.44-.18,2.94,2.94,0,0,0,.44-.68H10v4H9.71q-1.34-3.39-4.13-3.39a3.19,3.19,0,0,0-1.82.43,1.3,1.3,0,0,0-.6,1.09.94.94,0,0,0,.18.61,2.58,2.58,0,0,0,.29.32,1.31,1.31,0,0,0,.34.23c.15.07.28.14.39.18l.48.17a4.7,4.7,0,0,0,.48.13,19.78,19.78,0,0,1,2.56.77,8.55,8.55,0,0,1,1.49.8,3.61,3.61,0,0,1,1.43,3.19,4.19,4.19,0,0,1-1.3,3.34,5.25,5.25,0,0,1-3.58,1.14,7,7,0,0,1-3.13-.76,1,1,0,0,0-.49-.21c-.39,0-.76.32-1.13,1Z"/><path class="cls-1" d="M12,126.08h6.29v9.55a4.35,4.35,0,0,1,1.28-1.94,4,4,0,0,1,2.61-.73c2.69,0,4,1.46,4,4.36v7.86h1.46v.47H20.3v-.47h1.07V136.7a6,6,0,0,0-.21-2,.76.76,0,0,0-.76-.45,1.78,1.78,0,0,0-1.47,1.09,5.16,5.16,0,0,0-.64,2.66v7.21h1.12v.47H12v-.47h1.44V126.55H12Z"/><path class="cls-1" d="M30.31,144.17a6.61,6.61,0,0,1-1.69-4.83,5.92,5.92,0,0,1,1.89-4.73A7.07,7.07,0,0,1,35.33,133q5.93,0,5.69,5.95H33.66v1a9,9,0,0,0,.65,3.86,2.33,2.33,0,0,0,2.27,1.31q3,0,4-3.24l.47.08a5.38,5.38,0,0,1-1.79,2.92,6,6,0,0,1-3.88,1A6.7,6.7,0,0,1,30.31,144.17Zm3.37-5.78h2.69v-1.28a10.73,10.73,0,0,0-.25-2.88,1,1,0,0,0-1-.77,1.15,1.15,0,0,0-1.09.82,7.78,7.78,0,0,0-.36,2.83Z"/><path class="cls-1" d="M56,145.65v-.47h1.2l-2.95-6.06-.5.13v5.93H55v.47H47.49v-.47h1.43V126.55H47.38v-.47h6.39v12.65l.42-.16,5.87-4.88H57.61v-.46h5.14v.46H60.92l-3.1,2.64,4.51,8.85h.94v.47Z"/><path class="cls-1" d="M64.13,133.23h6.29v2.4a4.44,4.44,0,0,1,1.28-1.94,4,4,0,0,1,2.61-.73c2.7,0,4,1.46,4,4.36v7.86h1.46v.47H72.43v-.47H73.5V136.7a6,6,0,0,0-.21-2,.76.76,0,0,0-.76-.45c-.55,0-1,.36-1.47,1.09a5.16,5.16,0,0,0-.64,2.66v7.21h1.12v.47H64.13v-.47h1.44V133.69H64.13Z"/><path class="cls-1" d="M82.45,144.24a6.51,6.51,0,0,1-1.67-4.79,6.28,6.28,0,0,1,1.79-4.8,7,7,0,0,1,5-1.69,6.65,6.65,0,0,1,4.83,1.56A6.33,6.33,0,0,1,94,139.25q0,6.66-6.63,6.66A6.7,6.7,0,0,1,82.45,144.24ZM89,140.51v-2.22a17.93,17.93,0,0,0-.27-3.69c-.19-.78-.61-1.17-1.27-1.17a1.32,1.32,0,0,0-.93.33,2.1,2.1,0,0,0-.51,1.08,20.72,20.72,0,0,0-.23,3.58v2a18.82,18.82,0,0,0,.17,3.42,5.72,5.72,0,0,0,.35.94,1.11,1.11,0,0,0,1.12.63,1.32,1.32,0,0,0,1.33-1.18A17.57,17.57,0,0,0,89,140.51Z"/><path class="cls-1" d="M103.3,133.69v-.46H110v.46H109l2.35,8.8,2.32-8.8h-1.8v-.46h3.52v.46h-1.09l-3.13,12h-3.58l-2.27-8-2.45,8h-3.5l-3.86-12H94.3v-.46h7.9v.46h-1.56l2.4,8.88,1.88-6.11-.66-2.77Z"/><path class="cls-1" d="M116,145.91v-4.67h.32a6.28,6.28,0,0,0,1.82,3.18,4.48,4.48,0,0,0,2.87.91c1.78,0,2.67-.56,2.67-1.69a1.18,1.18,0,0,0-.66-1.1,8.73,8.73,0,0,0-2.61-.89,10.18,10.18,0,0,1-3-1.25,3.3,3.3,0,0,1-1.44-3,4.3,4.3,0,0,1,1.26-3.25A4.59,4.59,0,0,1,120.6,133a6.46,6.46,0,0,1,2.63.6,2.14,2.14,0,0,0,.76.21.6.6,0,0,0,.44-.18,3.26,3.26,0,0,0,.45-.68h.28v4h-.31q-1.34-3.39-4.12-3.39a3.21,3.21,0,0,0-1.83.43,1.3,1.3,0,0,0-.6,1.09.94.94,0,0,0,.18.61,2.58,2.58,0,0,0,.29.32,1.31,1.31,0,0,0,.34.23l.39.18.48.17a4.13,4.13,0,0,0,.49.13,20,20,0,0,1,2.55.77,8.21,8.21,0,0,1,1.49.8,3.59,3.59,0,0,1,1.44,3.19,4.19,4.19,0,0,1-1.31,3.34,5.24,5.24,0,0,1-3.57,1.14,7,7,0,0,1-3.13-.76,1,1,0,0,0-.5-.21c-.38,0-.76.32-1.12,1Z"/><path class="cls-1" d="M189.11,143.5a4.76,4.76,0,0,1-.26,1.63c-.23.72-.59,1.08-1.07,1.08h-20.3a1.92,1.92,0,0,1-1.31-.58,1.63,1.63,0,0,1-.65-1.22v-2.67a2.63,2.63,0,0,1,1.37-2.41l2.82-1.65V142h15.18v-2.66h-3.6a2.94,2.94,0,0,1-2.35-1.17,4,4,0,0,1-.92-2.62,4.39,4.39,0,0,1,1-2.88,3.85,3.85,0,0,1,3.13-1.2c.31,0,.78,0,1.43.06s1.13.06,1.47.06a5.14,5.14,0,0,0,4.06-1.62Zm-4.22-7.05v-2.16H182.7c-.8,0-1.2.38-1.2,1.16s.38,1,1.13,1Zm1-9.52a1.39,1.39,0,0,1-.4,1,1.42,1.42,0,0,1-1.05.4,1.37,1.37,0,0,1-1.43-1.43,1.41,1.41,0,0,1,.4-1,1.43,1.43,0,0,1,1-.4,1.46,1.46,0,0,1,1.05.4A1.41,1.41,0,0,1,185.87,126.93Z"/><path class="cls-1" d="M204.6,146.21h-4.69v2a4.13,4.13,0,0,1-4.17,4.17,4.56,4.56,0,0,1-3.15-1.2,4.36,4.36,0,0,1-1.49-3h4.64v-6.11a3.37,3.37,0,0,1,1.14-2.83c.11-.1,1.12-.62,3-1.57V142h4.69Z"/><path class="cls-1" d="M220.79,146.21H199.56l2.51-4.22h6.52a9.87,9.87,0,0,1-1.3-3.75,3.54,3.54,0,0,1,1.16-2.72,4,4,0,0,1,2.79-1c.32,0,.8,0,1.43,0s1.11.05,1.42.05c1.85,0,2.9-.17,3.13-.51l1.06-1.51v6.15h-6.39c-.36,0-.54.19-.54.58a2.69,2.69,0,0,0,.82,1.77,2.29,2.29,0,0,0,1.68.92h6.94Z"/><path class="cls-1" d="M232.67,144.41a1.62,1.62,0,0,1-.64,1.22,1.93,1.93,0,0,1-1.29.58h-15l2.52-4.22h10.79a11.62,11.62,0,0,1,.39-4.05,13.88,13.88,0,0,1,3.21-2.53Zm-7-13.7a1.44,1.44,0,1,1-2.47-1,1.54,1.54,0,0,1,2.07,0A1.39,1.39,0,0,1,225.65,130.71Zm6.12,0a1.42,1.42,0,0,1-.39,1,1.4,1.4,0,0,1-1,.4,1.46,1.46,0,0,1-1-2.47,1.43,1.43,0,0,1,1-.4,1.44,1.44,0,0,1,1,.4A1.43,1.43,0,0,1,231.77,130.71Z"/><path class="cls-1" d="M267.6,146.21h-6.13v-7.6a3.9,3.9,0,0,0-1.08-.17,3.25,3.25,0,0,0-3.14,3.14v.21a1.64,1.64,0,0,1,0,.2v5.66q0,2.23-2.53,4.06a7.88,7.88,0,0,1-9.63.12,5.44,5.44,0,0,1-2.25-4.53,6.31,6.31,0,0,1,2.58-5,2.9,2.9,0,0,1,1-.67s0,0,0,0v4.92a2.25,2.25,0,0,0,1.22,2,4.92,4.92,0,0,0,4.9-.09c.77-.5,1.16-1.5,1.16-3,0-.56,0-3,0-3a10.13,10.13,0,0,1,.42-3.37,7.77,7.77,0,0,1,2.32-3.29,4.43,4.43,0,0,1,2.51-1l2.87-.32a6.81,6.81,0,0,0,3.18-1.76V142h2.53Zm-18,10.26c0,.85-.48,1.27-1.43,1.27s-1.45-.42-1.45-1.27.48-1.26,1.45-1.26S249.59,155.63,249.59,156.47Zm6.66,0c0,.85-.47,1.27-1.43,1.27s-1.45-.42-1.45-1.27.48-1.26,1.45-1.26S256.25,155.63,256.25,156.47Z"/><path class="cls-1" d="M284.86,144.41a1.64,1.64,0,0,1-.63,1.22,1.91,1.91,0,0,1-1.3.58H262.56l2.51-4.22h4.22a9.94,9.94,0,0,1,2.09-4.58,10.22,10.22,0,0,1,4-3,5.42,5.42,0,0,1,.81-3.32,35.84,35.84,0,0,1,2.8-2.39v5.64a5.38,5.38,0,0,1,4.48,2.35,8.79,8.79,0,0,1,1.37,5.07ZM275.4,142v-3.55a4.46,4.46,0,0,0-1.77,1.39,6.08,6.08,0,0,0-.76,2.16Zm5.91-.79a3,3,0,0,0-.48-1.93,3.12,3.12,0,0,0-1.82-.83V142h2.27C281.3,141.71,281.31,141.44,281.31,141.2Z"/><path class="cls-1" d="M243.29,37.45c4.39.11,5.92,1.57,5.31,5.89l.07,44.72c.1,6.12,2,8.9,8.52,6.16,1.23-.51,2.37-1.28,3.63-1.66.77-.24,2.11-.28,2.47.16a2.94,2.94,0,0,1,.31,2.66,15.33,15.33,0,0,1-3.12,3.83c-6.11,5.51-14.31,6.34-22.16,5.72-5-.39-8.78-2.34-11.46-6.48-1.6-2.46-1.76-8.09-1.76-8.09L225,50.91a6.43,6.43,0,0,0-6.19-7.5,12,12,0,0,1-1.46-.09c-1.59-.4-2.8-1.21-2.69-3.06s1.48-2.53,3.09-2.61C220.77,37.51,239.29,37.35,243.29,37.45Z"/></g></g></svg>