<svg xmlns="http://www.w3.org/2000/svg" viewBox="0 0 50.06 50"><defs><style>.cls-1{isolation:isolate;}.cls-2{fill:#fff;}.cls-3{mix-blend-mode:multiply;}.cls-4{fill:#2d2d2d;}</style></defs><title>langu-overlay-ic</title><g class="cls-1"><g id="Layer_2" data-name="Layer 2"><g id="overlay"><rect class="cls-2" width="50.06" height="50" rx="25"/><g class="cls-3"><path class="cls-4" d="M19.42,30.18l-.58-2.38H15.61l-.56,2.38H12.33l3.34-11.09h3.19L22.2,30.18Zm-3.36-4.29h2.33L17.23,21Z"/><path class="cls-4" d="M25.38,18.27v1.4c0,.6,0,1.28,0,2s0,1.52,0,2.33,0,1.62,0,2.39,0,1.49-.05,2.15,0,1.22-.06,1.65a1.67,1.67,0,0,1-.31.28,1.94,1.94,0,0,1-.4.22l-.46.16a4,4,0,0,1-.46.08c0-.26,0-.55,0-.87s0-.65,0-1c0-.69,0-1.44,0-2.25s0-1.61,0-2.41,0-1.58-.06-2.33,0-1.43-.06-2,0-1.08-.05-1.46,0-.61,0-.68a1.09,1.09,0,0,1,.36-.39,4.1,4.1,0,0,1,.55-.3,5.37,5.37,0,0,1,.59-.22c.2-.05.36-.09.5-.11s0,.18,0,.32,0,.28,0,.42,0,.28,0,.41Z"/><path class="cls-4" d="M37.94,23.11a10.6,10.6,0,0,1-.31,1.13,6.53,6.53,0,0,1-.41.92A4.78,4.78,0,0,1,35.9,26.6l2.27,2.61-1.79,1.6L31,24.64a2.51,2.51,0,0,0-.24.69c-.05.27-.1.58-.13.9s0,.67-.05,1,0,.68,0,1v.41c0,.16,0,.33,0,.52s0,.37,0,.57,0,.38,0,.55H27.94c0-.19,0-.39,0-.62s0-.46,0-.73,0-.57,0-.91,0-.7,0-1.11a10.41,10.41,0,0,1,.08-1.17,5.73,5.73,0,0,1,.24-1,4.45,4.45,0,0,1,.44-.94,5.18,5.18,0,0,1,.71-.92c-.17-.23-.33-.44-.47-.66a7.16,7.16,0,0,1-.39-.66c-.12-.23-.24-.47-.35-.73s-.23-.53-.35-.84c.37-.16.77-.32,1.2-.47s.83-.3,1.21-.42c.15.38.29.72.43,1a7.71,7.71,0,0,0,.44.86,9.66,9.66,0,0,0,.55.81c.2.27.44.56.72.89l2,2.25a2.36,2.36,0,0,0,.45-.55,4.86,4.86,0,0,0,.36-.78q.06-.18.12-.39c0-.15.08-.3.11-.45l.27-1.23-1.5-.26.37-2.14,3.79.64v1.33Z"/></g></g></g></g></svg>