<svg xmlns="http://www.w3.org/2000/svg" viewBox="0 0 90.59 71.27"><defs><style>.cls-1{fill:none;stroke:#fff;stroke-linecap:round;stroke-linejoin:round;stroke-width:2px;}.cls-2,.cls-4{fill:#fff;}.cls-2,.cls-3{opacity:0.5;}</style></defs><title>lp-library-ic</title><g id="Layer_2" data-name="Layer 2"><g id="btns"><path class="cls-1" d="M89.59,42.9a2.45,2.45,0,0,1-2.44,2.44H22.26a2.45,2.45,0,0,1-2.45-2.44"/><polyline class="cls-1" points="44.23 65.44 47.72 52.64 61.69 52.64 65.18 65.44"/><polyline class="cls-1" points="44.23 65.44 35.93 65.44 35.93 70.27 73.47 70.27 73.47 65.44 65.18 65.44"/><path class="cls-1" d="M54.7,37c-5.65-10-26.42,1.23-26.42,1.23V11.24S48.77-1.41,54.7,9.05Z"/><path class="cls-1" d="M54.7,37c5.66-10,26.42,1.23,26.42,1.23V11.24S60.64-1.41,54.7,9.05Z"/><path class="cls-1" d="M71.84,6.81H87.15a2.45,2.45,0,0,1,2.44,2.45V50.19a2.45,2.45,0,0,1-2.44,2.45H22.26a2.45,2.45,0,0,1-2.45-2.45V9.26a2.45,2.45,0,0,1,2.45-2.45H38.43"/><path class="cls-2" d="M54.7,37c-5.65-10-26.42,1.23-26.42,1.23V11.24S48.77-1.41,54.7,9.05Z"/><g class="cls-3"><path class="cls-4" d="M.86,1.79A.9.9,0,0,0,.86,0a.9.9,0,0,0,0,1.79Z"/><path class="cls-4" d="M8.58,1.79A.9.9,0,0,0,8.58,0a.9.9,0,0,0,0,1.79Z"/><path class="cls-4" d="M16.29,1.79a.9.9,0,0,0,0-1.79.9.9,0,0,0,0,1.79Z"/><path class="cls-4" d="M24,1.79A.9.9,0,0,0,24,0a.9.9,0,0,0,0,1.79Z"/><path class="cls-4" d="M31.71,1.79a.9.9,0,0,0,0-1.79.9.9,0,0,0,0,1.79Z"/><path class="cls-4" d="M39.43,1.79a.9.9,0,0,0,0-1.79.9.9,0,0,0,0,1.79Z"/><path class="cls-4" d="M47.14,1.79a.9.9,0,0,0,0-1.79.9.9,0,0,0,0,1.79Z"/><path class="cls-4" d="M54.85,1.79a.9.9,0,0,0,0-1.79.9.9,0,0,0,0,1.79Z"/><path class="cls-4" d="M.86,9.65a.9.9,0,0,0,0-1.79.9.9,0,0,0,0,1.79Z"/><path class="cls-4" d="M8.58,9.65a.9.9,0,0,0,0-1.79.9.9,0,0,0,0,1.79Z"/><path class="cls-4" d="M16.29,9.65a.9.9,0,0,0,0-1.79.9.9,0,0,0,0,1.79Z"/><path class="cls-4" d="M24,9.65a.9.9,0,0,0,0-1.79.9.9,0,0,0,0,1.79Z"/><path class="cls-4" d="M31.71,9.65a.9.9,0,0,0,0-1.79.9.9,0,0,0,0,1.79Z"/><path class="cls-4" d="M39.43,9.65a.9.9,0,0,0,0-1.79.9.9,0,0,0,0,1.79Z"/><path class="cls-4" d="M47.14,9.65a.9.9,0,0,0,0-1.79.9.9,0,0,0,0,1.79Z"/><path class="cls-4" d="M54.85,9.65a.9.9,0,0,0,0-1.79.9.9,0,0,0,0,1.79Z"/><path class="cls-4" d="M.86,17.51a.9.9,0,0,0,0-1.79.9.9,0,0,0,0,1.79Z"/><path class="cls-4" d="M8.58,17.51a.9.9,0,0,0,0-1.79.9.9,0,0,0,0,1.79Z"/><path class="cls-4" d="M16.29,17.51a.9.9,0,0,0,0-1.79.9.9,0,0,0,0,1.79Z"/><path class="cls-4" d="M24,17.51a.9.9,0,0,0,0-1.79.9.9,0,0,0,0,1.79Z"/><path class="cls-4" d="M31.71,17.51a.9.9,0,0,0,0-1.79.9.9,0,0,0,0,1.79Z"/><path class="cls-4" d="M39.43,17.51a.9.9,0,0,0,0-1.79.9.9,0,0,0,0,1.79Z"/><path class="cls-4" d="M47.14,17.51a.9.9,0,0,0,0-1.79.9.9,0,0,0,0,1.79Z"/><path class="cls-4" d="M54.85,17.51a.9.9,0,0,0,0-1.79.9.9,0,0,0,0,1.79Z"/><path class="cls-4" d="M.86,25.37a.9.9,0,0,0,0-1.79.9.9,0,0,0,0,1.79Z"/><path class="cls-4" d="M8.58,25.37a.9.9,0,0,0,0-1.79.9.9,0,0,0,0,1.79Z"/><path class="cls-4" d="M16.29,25.37a.9.9,0,0,0,0-1.79.9.9,0,0,0,0,1.79Z"/><path class="cls-4" d="M24,25.37a.9.9,0,0,0,0-1.79.9.9,0,0,0,0,1.79Z"/><path class="cls-4" d="M31.71,25.37a.9.9,0,0,0,0-1.79.9.9,0,0,0,0,1.79Z"/><path class="cls-4" d="M39.43,25.37a.9.9,0,0,0,0-1.79.9.9,0,0,0,0,1.79Z"/><path class="cls-4" d="M47.14,25.37a.9.9,0,0,0,0-1.79.9.9,0,0,0,0,1.79Z"/><path class="cls-4" d="M54.85,25.37a.9.9,0,0,0,0-1.79.9.9,0,0,0,0,1.79Z"/><path class="cls-4" d="M.86,33.23a.89.89,0,0,0,0-1.78.89.89,0,0,0,0,1.78Z"/><path class="cls-4" d="M8.58,33.23a.89.89,0,0,0,0-1.78.89.89,0,0,0,0,1.78Z"/><path class="cls-4" d="M16.29,33.23a.89.89,0,0,0,0-1.78.89.89,0,0,0,0,1.78Z"/><path class="cls-4" d="M24,33.23a.89.89,0,0,0,0-1.78.89.89,0,0,0,0,1.78Z"/><path class="cls-4" d="M31.71,33.23a.89.89,0,0,0,0-1.78.89.89,0,0,0,0,1.78Z"/><path class="cls-4" d="M39.43,33.23a.89.89,0,0,0,0-1.78.89.89,0,0,0,0,1.78Z"/><path class="cls-4" d="M47.14,33.23a.89.89,0,0,0,0-1.78.89.89,0,0,0,0,1.78Z"/><path class="cls-4" d="M54.85,33.23a.89.89,0,0,0,0-1.78.89.89,0,0,0,0,1.78Z"/><path class="cls-4" d="M.86,41.09a.89.89,0,0,0,0-1.78.89.89,0,0,0,0,1.78Z"/><path class="cls-4" d="M8.58,41.09a.89.89,0,0,0,0-1.78.89.89,0,0,0,0,1.78Z"/><path class="cls-4" d="M16.29,41.09a.89.89,0,0,0,0-1.78.89.89,0,0,0,0,1.78Z"/><path class="cls-4" d="M24,41.09a.89.89,0,0,0,0-1.78.89.89,0,0,0,0,1.78Z"/><path class="cls-4" d="M31.71,41.09a.89.89,0,0,0,0-1.78.89.89,0,0,0,0,1.78Z"/><path class="cls-4" d="M39.43,41.09a.89.89,0,0,0,0-1.78.89.89,0,0,0,0,1.78Z"/><path class="cls-4" d="M47.14,41.09a.89.89,0,0,0,0-1.78.89.89,0,0,0,0,1.78Z"/><path class="cls-4" d="M54.85,41.09a.89.89,0,0,0,0-1.78.89.89,0,0,0,0,1.78Z"/></g><path class="cls-2" d="M54.7,37c5.66-10,26.42,1.23,26.42,1.23V11.24S60.64-1.41,54.7,9.05Z"/></g></g></svg>