<svg xmlns="http://www.w3.org/2000/svg" viewBox="0 0 210.16 193.2"><defs><style>.cls-1,.cls-5{fill:none;}.cls-1,.cls-2,.cls-5{stroke:#59334d;}.cls-1{stroke-linecap:round;stroke-linejoin:round;stroke-width:2px;}.cls-2{fill:#fff;}.cls-2,.cls-5{stroke-miterlimit:10;}.cls-2,.cls-3{opacity:0.5;}.cls-4,.cls-6{fill:#59334d;}.cls-5{stroke-dasharray:3 3;opacity:0.3;}.cls-6{opacity:0.2;}</style></defs><title>lp-library-info-ic</title><g id="Layer_2" data-name="Layer 2"><g id="_Layer_" data-name="&lt;Layer&gt;"><path class="cls-1" d="M149.53,103.05a2.45,2.45,0,0,1-2.45,2.44H82.19a2.45,2.45,0,0,1-2.44-2.44"/><polyline class="cls-1" points="104.16 125.58 107.65 112.78 121.62 112.78 125.12 125.58"/><polyline class="cls-1" points="104.16 125.58 95.87 125.58 95.87 130.42 133.41 130.42 133.41 125.58 125.12 125.58"/><path class="cls-1" d="M114.64,97.09c-5.66-10-26.42,1.24-26.42,1.24V71.39s20.48-12.65,26.42-2.19Z"/><path class="cls-1" d="M114.64,97.09c5.65-10,26.42,1.24,26.42,1.24V71.39s-20.49-12.65-26.42-2.19Z"/><path class="cls-1" d="M131.78,67h15.3a2.45,2.45,0,0,1,2.45,2.44v40.94a2.45,2.45,0,0,1-2.45,2.44H82.19a2.45,2.45,0,0,1-2.44-2.44V69.4A2.45,2.45,0,0,1,82.19,67H98.36"/><path class="cls-2" d="M114.64,97.09c-5.66-10-26.42,1.24-26.42,1.24V71.39s20.48-12.65,26.42-2.19Z"/><g class="cls-3"><path class="cls-4" d="M60.8,61.93a.89.89,0,0,0,0-1.78.89.89,0,0,0,0,1.78Z"/><path class="cls-4" d="M68.51,61.93a.89.89,0,0,0,0-1.78.89.89,0,0,0,0,1.78Z"/><path class="cls-4" d="M76.22,61.93a.89.89,0,0,0,0-1.78.89.89,0,0,0,0,1.78Z"/><path class="cls-4" d="M83.93,61.93a.89.89,0,0,0,0-1.78.89.89,0,0,0,0,1.78Z"/><path class="cls-4" d="M91.65,61.93a.89.89,0,0,0,0-1.78.89.89,0,0,0,0,1.78Z"/><path class="cls-4" d="M99.36,61.93a.89.89,0,0,0,0-1.78.89.89,0,0,0,0,1.78Z"/><path class="cls-4" d="M107.07,61.93a.89.89,0,0,0,0-1.78.89.89,0,0,0,0,1.78Z"/><path class="cls-4" d="M114.79,61.93a.89.89,0,0,0,0-1.78.89.89,0,0,0,0,1.78Z"/><path class="cls-4" d="M60.8,69.8a.9.9,0,0,0,0-1.79.9.9,0,0,0,0,1.79Z"/><path class="cls-4" d="M68.51,69.8a.9.9,0,0,0,0-1.79.9.9,0,0,0,0,1.79Z"/><path class="cls-4" d="M76.22,69.8a.9.9,0,0,0,0-1.79.9.9,0,0,0,0,1.79Z"/><path class="cls-4" d="M83.93,69.8a.9.9,0,0,0,0-1.79.9.9,0,0,0,0,1.79Z"/><path class="cls-4" d="M91.65,69.8a.9.9,0,0,0,0-1.79.9.9,0,0,0,0,1.79Z"/><path class="cls-4" d="M99.36,69.8a.9.9,0,0,0,0-1.79.9.9,0,0,0,0,1.79Z"/><path class="cls-4" d="M107.07,69.8a.9.9,0,0,0,0-1.79.9.9,0,0,0,0,1.79Z"/><path class="cls-4" d="M114.79,69.8a.9.9,0,0,0,0-1.79.9.9,0,0,0,0,1.79Z"/><path class="cls-4" d="M60.8,77.66a.9.9,0,0,0,0-1.79.9.9,0,0,0,0,1.79Z"/><path class="cls-4" d="M68.51,77.66a.9.9,0,0,0,0-1.79.9.9,0,0,0,0,1.79Z"/><path class="cls-4" d="M76.22,77.66a.9.9,0,0,0,0-1.79.9.9,0,0,0,0,1.79Z"/><path class="cls-4" d="M83.93,77.66a.9.9,0,0,0,0-1.79.9.9,0,0,0,0,1.79Z"/><path class="cls-4" d="M91.65,77.66a.9.9,0,0,0,0-1.79.9.9,0,0,0,0,1.79Z"/><path class="cls-4" d="M99.36,77.66a.9.9,0,0,0,0-1.79.9.9,0,0,0,0,1.79Z"/><path class="cls-4" d="M107.07,77.66a.9.9,0,0,0,0-1.79.9.9,0,0,0,0,1.79Z"/><path class="cls-4" d="M114.79,77.66a.9.9,0,0,0,0-1.79.9.9,0,0,0,0,1.79Z"/><path class="cls-4" d="M60.8,85.52a.9.9,0,0,0,0-1.79.9.9,0,0,0,0,1.79Z"/><path class="cls-4" d="M68.51,85.52a.9.9,0,0,0,0-1.79.9.9,0,0,0,0,1.79Z"/><path class="cls-4" d="M76.22,85.52a.9.9,0,0,0,0-1.79.9.9,0,0,0,0,1.79Z"/><path class="cls-4" d="M83.93,85.52a.9.9,0,0,0,0-1.79.9.9,0,0,0,0,1.79Z"/><path class="cls-4" d="M91.65,85.52a.9.9,0,0,0,0-1.79.9.9,0,0,0,0,1.79Z"/><path class="cls-4" d="M99.36,85.52a.9.9,0,0,0,0-1.79.9.9,0,0,0,0,1.79Z"/><path class="cls-4" d="M107.07,85.52a.9.9,0,0,0,0-1.79.9.9,0,0,0,0,1.79Z"/><path class="cls-4" d="M114.79,85.52a.9.9,0,0,0,0-1.79.9.9,0,0,0,0,1.79Z"/><path class="cls-4" d="M60.8,93.38a.9.9,0,0,0,0-1.79.9.9,0,0,0,0,1.79Z"/><path class="cls-4" d="M68.51,93.38a.9.9,0,0,0,0-1.79.9.9,0,0,0,0,1.79Z"/><path class="cls-4" d="M76.22,93.38a.9.9,0,0,0,0-1.79.9.9,0,0,0,0,1.79Z"/><path class="cls-4" d="M83.93,93.38a.9.9,0,0,0,0-1.79.9.9,0,0,0,0,1.79Z"/><path class="cls-4" d="M91.65,93.38a.9.9,0,0,0,0-1.79.9.9,0,0,0,0,1.79Z"/><path class="cls-4" d="M99.36,93.38a.9.9,0,0,0,0-1.79.9.9,0,0,0,0,1.79Z"/><path class="cls-4" d="M107.07,93.38a.9.9,0,0,0,0-1.79.9.9,0,0,0,0,1.79Z"/><path class="cls-4" d="M114.79,93.38a.9.9,0,0,0,0-1.79.9.9,0,0,0,0,1.79Z"/><path class="cls-4" d="M60.8,101.24a.89.89,0,0,0,0-1.78.89.89,0,0,0,0,1.78Z"/><path class="cls-4" d="M68.51,101.24a.89.89,0,0,0,0-1.78.89.89,0,0,0,0,1.78Z"/><path class="cls-4" d="M76.22,101.24a.89.89,0,0,0,0-1.78.89.89,0,0,0,0,1.78Z"/><path class="cls-4" d="M83.93,101.24a.89.89,0,0,0,0-1.78.89.89,0,0,0,0,1.78Z"/><path class="cls-4" d="M91.65,101.24a.89.89,0,0,0,0-1.78.89.89,0,0,0,0,1.78Z"/><path class="cls-4" d="M99.36,101.24a.89.89,0,0,0,0-1.78.89.89,0,0,0,0,1.78Z"/><path class="cls-4" d="M107.07,101.24a.89.89,0,0,0,0-1.78.89.89,0,0,0,0,1.78Z"/><path class="cls-4" d="M114.79,101.24a.89.89,0,0,0,0-1.78.89.89,0,0,0,0,1.78Z"/></g><path class="cls-2" d="M114.64,97.09c5.65-10,26.42,1.24,26.42,1.24V71.39s-20.49-12.65-26.42-2.19Z"/><circle class="cls-5" cx="96.6" cy="96.6" r="96.1"/><circle class="cls-6" cx="114.06" cy="96.6" r="96.1"/></g></g></svg>