<svg xmlns="http://www.w3.org/2000/svg" xmlns:xlink="http://www.w3.org/1999/xlink" viewBox="0 0 210.16 193.2"><defs><style>.cls-1,.cls-2,.cls-6{fill:none;}.cls-2,.cls-6{stroke:#ef5241;}.cls-2{stroke-linecap:round;stroke-linejoin:round;stroke-width:2px;}.cls-3{clip-path:url(#clip-path);}.cls-4{opacity:0.5;}.cls-5,.cls-7{fill:#ef5241;}.cls-6{stroke-miterlimit:10;stroke-dasharray:3 3;opacity:0.3;}.cls-7{opacity:0.2;}</style><clipPath id="clip-path"><polygon class="cls-1" points="74.13 93.21 93.26 83.89 111.86 84.79 130.72 79.09 149.59 85.72 149.59 102.96 129.81 105.06 111.86 104.88 93 103.2 74.13 106.71 74.13 93.21"/></clipPath></defs><title>lp-madad-info-ic</title><g id="Layer_2" data-name="Layer 2"><g id="_Layer_" data-name="&lt;Layer&gt;"><polyline class="cls-2" points="74.13 93.21 93.26 83.89 111.86 84.79 130.72 79.09 149.59 85.72"/><polyline class="cls-2" points="74.13 106.71 93 103.2 111.86 104.88 129.81 105.06 149.59 102.96"/><line class="cls-2" x1="60.22" y1="120.15" x2="149.74" y2="120.15"/><line class="cls-2" x1="60.22" y1="120.15" x2="149.74" y2="120.15"/><line class="cls-2" x1="60.22" y1="112.3" x2="63.99" y2="112.3"/><line class="cls-2" x1="60.22" y1="104.45" x2="63.99" y2="104.45"/><line class="cls-2" x1="60.22" y1="96.6" x2="63.99" y2="96.6"/><line class="cls-2" x1="60.22" y1="88.75" x2="63.99" y2="88.75"/><line class="cls-2" x1="60.22" y1="80.9" x2="63.99" y2="80.9"/><line class="cls-2" x1="60.22" y1="73.05" x2="63.99" y2="73.05"/><g class="cls-3"><g class="cls-4"><path class="cls-5" d="M77.12,78.56a.89.89,0,0,0,0-1.78.89.89,0,0,0,0,1.78Z"/><path class="cls-5" d="M84.84,78.56a.89.89,0,0,0,0-1.78.89.89,0,0,0,0,1.78Z"/><path class="cls-5" d="M92.55,78.56a.89.89,0,0,0,0-1.78.89.89,0,0,0,0,1.78Z"/><path class="cls-5" d="M100.26,78.56a.89.89,0,0,0,0-1.78.89.89,0,0,0,0,1.78Z"/><path class="cls-5" d="M108,78.56a.89.89,0,0,0,0-1.78.89.89,0,0,0,0,1.78Z"/><path class="cls-5" d="M115.69,78.56a.89.89,0,0,0,0-1.78.89.89,0,0,0,0,1.78Z"/><path class="cls-5" d="M123.4,78.56a.89.89,0,0,0,0-1.78.89.89,0,0,0,0,1.78Z"/><path class="cls-5" d="M131.11,78.56a.89.89,0,0,0,0-1.78.89.89,0,0,0,0,1.78Z"/><path class="cls-5" d="M77.12,85.57a.9.9,0,0,0,0-1.79.9.9,0,0,0,0,1.79Z"/><path class="cls-5" d="M84.84,85.57a.9.9,0,0,0,0-1.79.9.9,0,0,0,0,1.79Z"/><path class="cls-5" d="M92.55,85.57a.9.9,0,0,0,0-1.79.9.9,0,0,0,0,1.79Z"/><path class="cls-5" d="M100.26,85.57a.9.9,0,0,0,0-1.79.9.9,0,0,0,0,1.79Z"/><path class="cls-5" d="M108,85.57a.9.9,0,0,0,0-1.79.9.9,0,0,0,0,1.79Z"/><path class="cls-5" d="M115.69,85.57a.9.9,0,0,0,0-1.79.9.9,0,0,0,0,1.79Z"/><path class="cls-5" d="M123.4,85.57a.9.9,0,0,0,0-1.79.9.9,0,0,0,0,1.79Z"/><path class="cls-5" d="M131.11,85.57a.9.9,0,0,0,0-1.79.9.9,0,0,0,0,1.79Z"/><path class="cls-5" d="M77.12,92.57a.89.89,0,0,0,0-1.78.89.89,0,0,0,0,1.78Z"/><path class="cls-5" d="M84.84,92.57a.89.89,0,0,0,0-1.78.89.89,0,0,0,0,1.78Z"/><path class="cls-5" d="M92.55,92.57a.89.89,0,0,0,0-1.78.89.89,0,0,0,0,1.78Z"/><path class="cls-5" d="M100.26,92.57a.89.89,0,0,0,0-1.78.89.89,0,0,0,0,1.78Z"/><path class="cls-5" d="M108,92.57a.89.89,0,0,0,0-1.78.89.89,0,0,0,0,1.78Z"/><path class="cls-5" d="M115.69,92.57a.89.89,0,0,0,0-1.78.89.89,0,0,0,0,1.78Z"/><path class="cls-5" d="M123.4,92.57a.89.89,0,0,0,0-1.78.89.89,0,0,0,0,1.78Z"/><path class="cls-5" d="M131.11,92.57a.89.89,0,0,0,0-1.78.89.89,0,0,0,0,1.78Z"/><path class="cls-5" d="M77.12,99.58a.9.9,0,0,0,0-1.79.9.9,0,0,0,0,1.79Z"/><path class="cls-5" d="M84.84,99.58a.9.9,0,0,0,0-1.79.9.9,0,0,0,0,1.79Z"/><path class="cls-5" d="M92.55,99.58a.9.9,0,0,0,0-1.79.9.9,0,0,0,0,1.79Z"/><path class="cls-5" d="M100.26,99.58a.9.9,0,0,0,0-1.79.9.9,0,0,0,0,1.79Z"/><path class="cls-5" d="M108,99.58a.9.9,0,0,0,0-1.79.9.9,0,0,0,0,1.79Z"/><path class="cls-5" d="M115.69,99.58a.9.9,0,0,0,0-1.79.9.9,0,0,0,0,1.79Z"/><path class="cls-5" d="M123.4,99.58a.9.9,0,0,0,0-1.79.9.9,0,0,0,0,1.79Z"/><path class="cls-5" d="M131.11,99.58a.9.9,0,0,0,0-1.79.9.9,0,0,0,0,1.79Z"/><path class="cls-5" d="M77.12,106.58a.89.89,0,0,0,0-1.78.89.89,0,0,0,0,1.78Z"/><path class="cls-5" d="M84.84,106.58a.89.89,0,0,0,0-1.78.89.89,0,0,0,0,1.78Z"/><path class="cls-5" d="M92.55,106.58a.89.89,0,0,0,0-1.78.89.89,0,0,0,0,1.78Z"/><path class="cls-5" d="M100.26,106.58a.89.89,0,0,0,0-1.78.89.89,0,0,0,0,1.78Z"/><path class="cls-5" d="M108,106.58a.89.89,0,0,0,0-1.78.89.89,0,0,0,0,1.78Z"/><path class="cls-5" d="M115.69,106.58a.89.89,0,0,0,0-1.78.89.89,0,0,0,0,1.78Z"/><path class="cls-5" d="M123.4,106.58a.89.89,0,0,0,0-1.78.89.89,0,0,0,0,1.78Z"/><path class="cls-5" d="M131.11,106.58a.89.89,0,0,0,0-1.78.89.89,0,0,0,0,1.78Z"/><path class="cls-5" d="M77.12,113.59a.9.9,0,0,0,0-1.79.9.9,0,0,0,0,1.79Z"/><path class="cls-5" d="M84.84,113.59a.9.9,0,0,0,0-1.79.9.9,0,0,0,0,1.79Z"/><path class="cls-5" d="M92.55,113.59a.9.9,0,0,0,0-1.79.9.9,0,0,0,0,1.79Z"/><path class="cls-5" d="M100.26,113.59a.9.9,0,0,0,0-1.79.9.9,0,0,0,0,1.79Z"/><path class="cls-5" d="M108,113.59a.9.9,0,0,0,0-1.79.9.9,0,0,0,0,1.79Z"/><path class="cls-5" d="M115.69,113.59a.9.9,0,0,0,0-1.79.9.9,0,0,0,0,1.79Z"/><path class="cls-5" d="M138.89,78.56a.89.89,0,0,0,0-1.78.89.89,0,0,0,0,1.78Z"/><path class="cls-5" d="M146.6,78.56a.89.89,0,0,0,0-1.78.89.89,0,0,0,0,1.78Z"/><path class="cls-5" d="M138.89,85.57a.9.9,0,0,0,0-1.79.9.9,0,0,0,0,1.79Z"/><path class="cls-5" d="M146.6,85.57a.9.9,0,0,0,0-1.79.9.9,0,0,0,0,1.79Z"/><path class="cls-5" d="M138.89,92.57a.89.89,0,0,0,0-1.78.89.89,0,0,0,0,1.78Z"/><path class="cls-5" d="M146.6,92.57a.89.89,0,0,0,0-1.78.89.89,0,0,0,0,1.78Z"/><path class="cls-5" d="M138.89,99.58a.9.9,0,0,0,0-1.79.9.9,0,0,0,0,1.79Z"/><path class="cls-5" d="M146.6,99.58a.9.9,0,0,0,0-1.79.9.9,0,0,0,0,1.79Z"/><path class="cls-5" d="M138.89,106.58a.89.89,0,0,0,0-1.78.89.89,0,0,0,0,1.78Z"/><path class="cls-5" d="M146.6,106.58a.89.89,0,0,0,0-1.78.89.89,0,0,0,0,1.78Z"/><path class="cls-5" d="M138.89,113.59a.9.9,0,0,0,0-1.79.9.9,0,0,0,0,1.79Z"/><path class="cls-5" d="M146.6,113.59a.9.9,0,0,0,0-1.79.9.9,0,0,0,0,1.79Z"/><path class="cls-5" d="M123.4,113.59a.9.9,0,0,0,0-1.79.9.9,0,0,0,0,1.79Z"/><path class="cls-5" d="M131.11,113.59a.9.9,0,0,0,0-1.79.9.9,0,0,0,0,1.79Z"/></g></g><circle class="cls-6" cx="96.6" cy="96.6" r="96.1"/><circle class="cls-7" cx="114.06" cy="96.6" r="96.1"/></g></g></svg>