<?xml version="1.0" encoding="utf-8"?>
<!-- Generator: Adobe Illustrator 23.0.1, SVG Export Plug-In . SVG Version: 6.00 Build 0)  -->
<svg version="1.1" xmlns="http://www.w3.org/2000/svg" xmlns:xlink="http://www.w3.org/1999/xlink" x="0px" y="0px"
	 viewBox="0 0 91.5 49.1" style="enable-background:new 0 0 91.5 49.1;" xml:space="preserve">
<style type="text/css">
	.st0{fill:none;stroke:#FFFFFF;stroke-width:2;stroke-linecap:round;stroke-linejoin:round;stroke-miterlimit:10;}
	.st1{opacity:0.5;fill:#FFFFFF;}
	.st2{opacity:0.5;clip-path:url(#SVGID_2_);}
	.st3{fill:#FFFFFF;}
</style>
<g id="Layer_1">
	<title>lp-madad-ic</title>
</g>
<g id="btns">
	<g>
		<g>
			<g>
				<polyline class="st0" points="14.9,21.2 34,11.8 52.6,12.7 71.5,7 90.4,13.7 				"/>
				<polyline class="st0" points="14.9,34.7 33.8,31.2 52.6,32.8 70.6,33 90.4,30.9 				"/>
				<line class="st0" x1="1" y1="48.1" x2="90.5" y2="48.1"/>
				<polygon class="st1" points="14.9,21.2 34,11.8 52.6,12.7 71.5,7 90.4,13.7 90.4,30.9 70.6,33 52.6,32.8 33.8,31.2 14.9,34.7 
									"/>
			</g>
			<line class="st0" x1="1" y1="48.1" x2="90.5" y2="48.1"/>
			<line class="st0" x1="1" y1="40.3" x2="4.8" y2="40.3"/>
			<line class="st0" x1="1" y1="32.4" x2="4.8" y2="32.4"/>
			<line class="st0" x1="1" y1="24.5" x2="4.8" y2="24.5"/>
			<line class="st0" x1="1" y1="16.7" x2="4.8" y2="16.7"/>
			<line class="st0" x1="1" y1="8.8" x2="4.8" y2="8.8"/>
			<line class="st0" x1="1" y1="1" x2="4.8" y2="1"/>
		</g>
		<g>
			<defs>
				<polygon id="SVGID_1_" points="14.9,21.2 34,11.8 52.6,12.7 71.5,7 90.4,13.7 90.4,30.9 70.6,33 52.6,32.8 33.8,31.2 14.9,34.7 
									"/>
			</defs>
			<clipPath id="SVGID_2_">
				<use xlink:href="#SVGID_1_"  style="overflow:visible;"/>
			</clipPath>
			<g class="st2">
				<g>
					<g>
						<path class="st3" d="M17.9,6.5c1.1,0,1.2-1.8,0-1.8C16.8,4.7,16.8,6.5,17.9,6.5L17.9,6.5z"/>
					</g>
				</g>
				<g>
					<g>
						<path class="st3" d="M25.6,6.5c1.1,0,1.2-1.8,0-1.8C24.5,4.7,24.5,6.5,25.6,6.5L25.6,6.5z"/>
					</g>
				</g>
				<g>
					<g>
						<path class="st3" d="M33.3,6.5c1.1,0,1.2-1.8,0-1.8C32.2,4.7,32.2,6.5,33.3,6.5L33.3,6.5z"/>
					</g>
				</g>
				<g>
					<g>
						<path class="st3" d="M41,6.5c1.1,0,1.2-1.8,0-1.8C39.9,4.7,39.9,6.5,41,6.5L41,6.5z"/>
					</g>
				</g>
				<g>
					<g>
						<path class="st3" d="M48.8,6.5c1.1,0,1.2-1.8,0-1.8C47.6,4.7,47.6,6.5,48.8,6.5L48.8,6.5z"/>
					</g>
				</g>
				<g>
					<g>
						<path class="st3" d="M56.5,6.5c1.1,0,1.2-1.8,0-1.8C55.3,4.7,55.3,6.5,56.5,6.5L56.5,6.5z"/>
					</g>
				</g>
				<g>
					<g>
						<path class="st3" d="M64.2,6.5c1.1,0,1.2-1.8,0-1.8C63,4.7,63,6.5,64.2,6.5L64.2,6.5z"/>
					</g>
				</g>
				<g>
					<g>
						<path class="st3" d="M71.9,6.5c1.1,0,1.2-1.8,0-1.8C70.7,4.7,70.7,6.5,71.9,6.5L71.9,6.5z"/>
					</g>
				</g>
				<g>
					<g>
						<path class="st3" d="M17.9,13.5c1.1,0,1.2-1.8,0-1.8C16.8,11.7,16.8,13.5,17.9,13.5L17.9,13.5z"/>
					</g>
				</g>
				<g>
					<g>
						<path class="st3" d="M25.6,13.5c1.1,0,1.2-1.8,0-1.8C24.5,11.7,24.5,13.5,25.6,13.5L25.6,13.5z"/>
					</g>
				</g>
				<g>
					<g>
						<path class="st3" d="M33.3,13.5c1.1,0,1.2-1.8,0-1.8C32.2,11.7,32.2,13.5,33.3,13.5L33.3,13.5z"/>
					</g>
				</g>
				<g>
					<g>
						<path class="st3" d="M41,13.5c1.1,0,1.2-1.8,0-1.8C39.9,11.7,39.9,13.5,41,13.5L41,13.5z"/>
					</g>
				</g>
				<g>
					<g>
						<path class="st3" d="M48.8,13.5c1.1,0,1.2-1.8,0-1.8C47.6,11.7,47.6,13.5,48.8,13.5L48.8,13.5z"/>
					</g>
				</g>
				<g>
					<g>
						<path class="st3" d="M56.5,13.5c1.1,0,1.2-1.8,0-1.8C55.3,11.7,55.3,13.5,56.5,13.5L56.5,13.5z"/>
					</g>
				</g>
				<g>
					<g>
						<path class="st3" d="M64.2,13.5c1.1,0,1.2-1.8,0-1.8C63,11.7,63,13.5,64.2,13.5L64.2,13.5z"/>
					</g>
				</g>
				<g>
					<g>
						<path class="st3" d="M71.9,13.5c1.1,0,1.2-1.8,0-1.8C70.7,11.7,70.7,13.5,71.9,13.5L71.9,13.5z"/>
					</g>
				</g>
				<g>
					<g>
						<path class="st3" d="M17.9,20.5c1.1,0,1.2-1.8,0-1.8C16.8,18.7,16.8,20.5,17.9,20.5L17.9,20.5z"/>
					</g>
				</g>
				<g>
					<g>
						<path class="st3" d="M25.6,20.5c1.1,0,1.2-1.8,0-1.8C24.5,18.7,24.5,20.5,25.6,20.5L25.6,20.5z"/>
					</g>
				</g>
				<g>
					<g>
						<path class="st3" d="M33.3,20.5c1.1,0,1.2-1.8,0-1.8C32.2,18.7,32.2,20.5,33.3,20.5L33.3,20.5z"/>
					</g>
				</g>
				<g>
					<g>
						<path class="st3" d="M41,20.5c1.1,0,1.2-1.8,0-1.8C39.9,18.7,39.9,20.5,41,20.5L41,20.5z"/>
					</g>
				</g>
				<g>
					<g>
						<path class="st3" d="M48.8,20.5c1.1,0,1.2-1.8,0-1.8C47.6,18.7,47.6,20.5,48.8,20.5L48.8,20.5z"/>
					</g>
				</g>
				<g>
					<g>
						<path class="st3" d="M56.5,20.5c1.1,0,1.2-1.8,0-1.8C55.3,18.7,55.3,20.5,56.5,20.5L56.5,20.5z"/>
					</g>
				</g>
				<g>
					<g>
						<path class="st3" d="M64.2,20.5c1.1,0,1.2-1.8,0-1.8C63,18.7,63,20.5,64.2,20.5L64.2,20.5z"/>
					</g>
				</g>
				<g>
					<g>
						<path class="st3" d="M71.9,20.5c1.1,0,1.2-1.8,0-1.8C70.7,18.7,70.7,20.5,71.9,20.5L71.9,20.5z"/>
					</g>
				</g>
				<g>
					<g>
						<path class="st3" d="M17.9,27.5c1.1,0,1.2-1.8,0-1.8C16.8,25.7,16.8,27.5,17.9,27.5L17.9,27.5z"/>
					</g>
				</g>
				<g>
					<g>
						<path class="st3" d="M25.6,27.5c1.1,0,1.2-1.8,0-1.8C24.5,25.7,24.5,27.5,25.6,27.5L25.6,27.5z"/>
					</g>
				</g>
				<g>
					<g>
						<path class="st3" d="M33.3,27.5c1.1,0,1.2-1.8,0-1.8C32.2,25.7,32.2,27.5,33.3,27.5L33.3,27.5z"/>
					</g>
				</g>
				<g>
					<g>
						<path class="st3" d="M41,27.5c1.1,0,1.2-1.8,0-1.8C39.9,25.7,39.9,27.5,41,27.5L41,27.5z"/>
					</g>
				</g>
				<g>
					<g>
						<path class="st3" d="M48.8,27.5c1.1,0,1.2-1.8,0-1.8C47.6,25.7,47.6,27.5,48.8,27.5L48.8,27.5z"/>
					</g>
				</g>
				<g>
					<g>
						<path class="st3" d="M56.5,27.5c1.1,0,1.2-1.8,0-1.8C55.3,25.7,55.3,27.5,56.5,27.5L56.5,27.5z"/>
					</g>
				</g>
				<g>
					<g>
						<path class="st3" d="M64.2,27.5c1.1,0,1.2-1.8,0-1.8C63,25.7,63,27.5,64.2,27.5L64.2,27.5z"/>
					</g>
				</g>
				<g>
					<g>
						<path class="st3" d="M71.9,27.5c1.1,0,1.2-1.8,0-1.8C70.7,25.7,70.7,27.5,71.9,27.5L71.9,27.5z"/>
					</g>
				</g>
				<g>
					<g>
						<path class="st3" d="M17.9,34.5c1.1,0,1.2-1.8,0-1.8C16.8,32.7,16.8,34.5,17.9,34.5L17.9,34.5z"/>
					</g>
				</g>
				<g>
					<g>
						<path class="st3" d="M25.6,34.5c1.1,0,1.2-1.8,0-1.8C24.5,32.7,24.5,34.5,25.6,34.5L25.6,34.5z"/>
					</g>
				</g>
				<g>
					<g>
						<path class="st3" d="M33.3,34.5c1.1,0,1.2-1.8,0-1.8C32.2,32.7,32.2,34.5,33.3,34.5L33.3,34.5z"/>
					</g>
				</g>
				<g>
					<g>
						<path class="st3" d="M41,34.5c1.1,0,1.2-1.8,0-1.8C39.9,32.7,39.9,34.5,41,34.5L41,34.5z"/>
					</g>
				</g>
				<g>
					<g>
						<path class="st3" d="M48.8,34.5c1.1,0,1.2-1.8,0-1.8C47.6,32.7,47.6,34.5,48.8,34.5L48.8,34.5z"/>
					</g>
				</g>
				<g>
					<g>
						<path class="st3" d="M56.5,34.5c1.1,0,1.2-1.8,0-1.8C55.3,32.7,55.3,34.5,56.5,34.5L56.5,34.5z"/>
					</g>
				</g>
				<g>
					<g>
						<path class="st3" d="M64.2,34.5c1.1,0,1.2-1.8,0-1.8C63,32.7,63,34.5,64.2,34.5L64.2,34.5z"/>
					</g>
				</g>
				<g>
					<g>
						<path class="st3" d="M71.9,34.5c1.1,0,1.2-1.8,0-1.8C70.7,32.7,70.7,34.5,71.9,34.5L71.9,34.5z"/>
					</g>
				</g>
				<g>
					<g>
						<path class="st3" d="M17.9,41.5c1.1,0,1.2-1.8,0-1.8C16.8,39.8,16.8,41.5,17.9,41.5L17.9,41.5z"/>
					</g>
				</g>
				<g>
					<g>
						<path class="st3" d="M25.6,41.5c1.1,0,1.2-1.8,0-1.8C24.5,39.8,24.5,41.5,25.6,41.5L25.6,41.5z"/>
					</g>
				</g>
				<g>
					<g>
						<path class="st3" d="M33.3,41.5c1.1,0,1.2-1.8,0-1.8C32.2,39.8,32.2,41.5,33.3,41.5L33.3,41.5z"/>
					</g>
				</g>
				<g>
					<g>
						<path class="st3" d="M41,41.5c1.1,0,1.2-1.8,0-1.8C39.9,39.8,39.9,41.5,41,41.5L41,41.5z"/>
					</g>
				</g>
				<g>
					<g>
						<path class="st3" d="M48.8,41.5c1.1,0,1.2-1.8,0-1.8C47.6,39.8,47.6,41.5,48.8,41.5L48.8,41.5z"/>
					</g>
				</g>
				<g>
					<g>
						<path class="st3" d="M56.5,41.5c1.1,0,1.2-1.8,0-1.8C55.3,39.8,55.3,41.5,56.5,41.5L56.5,41.5z"/>
					</g>
				</g>
				<g>
					<g>
						<path class="st3" d="M79.7,6.5c1.1,0,1.2-1.8,0-1.8C78.5,4.7,78.5,6.5,79.7,6.5L79.7,6.5z"/>
					</g>
				</g>
				<g>
					<g>
						<path class="st3" d="M87.4,6.5c1.1,0,1.2-1.8,0-1.8C86.2,4.7,86.2,6.5,87.4,6.5L87.4,6.5z"/>
					</g>
				</g>
				<g>
					<g>
						<path class="st3" d="M79.7,13.5c1.1,0,1.2-1.8,0-1.8C78.5,11.7,78.5,13.5,79.7,13.5L79.7,13.5z"/>
					</g>
				</g>
				<g>
					<g>
						<path class="st3" d="M87.4,13.5c1.1,0,1.2-1.8,0-1.8C86.2,11.7,86.2,13.5,87.4,13.5L87.4,13.5z"/>
					</g>
				</g>
				<g>
					<g>
						<path class="st3" d="M79.7,20.5c1.1,0,1.2-1.8,0-1.8C78.5,18.7,78.5,20.5,79.7,20.5L79.7,20.5z"/>
					</g>
				</g>
				<g>
					<g>
						<path class="st3" d="M87.4,20.5c1.1,0,1.2-1.8,0-1.8C86.2,18.7,86.2,20.5,87.4,20.5L87.4,20.5z"/>
					</g>
				</g>
				<g>
					<g>
						<path class="st3" d="M79.7,27.5c1.1,0,1.2-1.8,0-1.8C78.5,25.7,78.5,27.5,79.7,27.5L79.7,27.5z"/>
					</g>
				</g>
				<g>
					<g>
						<path class="st3" d="M87.4,27.5c1.1,0,1.2-1.8,0-1.8C86.2,25.7,86.2,27.5,87.4,27.5L87.4,27.5z"/>
					</g>
				</g>
				<g>
					<g>
						<path class="st3" d="M79.7,34.5c1.1,0,1.2-1.8,0-1.8C78.5,32.7,78.5,34.5,79.7,34.5L79.7,34.5z"/>
					</g>
				</g>
				<g>
					<g>
						<path class="st3" d="M87.4,34.5c1.1,0,1.2-1.8,0-1.8C86.2,32.7,86.2,34.5,87.4,34.5L87.4,34.5z"/>
					</g>
				</g>
				<g>
					<g>
						<path class="st3" d="M79.7,41.5c1.1,0,1.2-1.8,0-1.8C78.5,39.8,78.5,41.5,79.7,41.5L79.7,41.5z"/>
					</g>
				</g>
				<g>
					<g>
						<path class="st3" d="M87.4,41.5c1.1,0,1.2-1.8,0-1.8C86.2,39.8,86.2,41.5,87.4,41.5L87.4,41.5z"/>
					</g>
				</g>
				<g>
					<g>
						<path class="st3" d="M64.2,41.5c1.1,0,1.2-1.8,0-1.8C63,39.8,63,41.5,64.2,41.5L64.2,41.5z"/>
					</g>
				</g>
				<g>
					<g>
						<path class="st3" d="M71.9,41.5c1.1,0,1.2-1.8,0-1.8C70.7,39.8,70.7,41.5,71.9,41.5L71.9,41.5z"/>
					</g>
				</g>
			</g>
		</g>
	</g>
</g>
</svg>
