<svg xmlns="http://www.w3.org/2000/svg" viewBox="0 0 91.52 49.1"><defs><style>.cls-1{fill:none;stroke:#fff;stroke-linecap:round;stroke-linejoin:round;stroke-width:2px;}.cls-2{fill:#fff;opacity:0.5;}</style></defs><title>lp-madad-ic</title><g id="Layer_2" data-name="Layer 2"><g id="btns"><polyline class="cls-1" points="14.91 21.16 34.04 11.84 52.64 12.74 71.5 7.04 90.37 13.67"/><polyline class="cls-1" points="14.91 34.66 33.77 31.16 52.64 32.83 70.59 33.02 90.37 30.91"/><line class="cls-1" x1="1" y1="48.1" x2="90.52" y2="48.1"/><polygon class="cls-2" points="14.91 21.16 34.04 11.84 52.64 12.74 71.5 7.04 90.37 13.67 90.37 30.91 70.59 33.02 52.64 32.83 33.77 31.16 14.91 34.66 14.91 21.16"/><line class="cls-1" x1="1" y1="48.1" x2="90.52" y2="48.1"/><line class="cls-1" x1="1" y1="40.25" x2="4.77" y2="40.25"/><line class="cls-1" x1="1" y1="32.4" x2="4.77" y2="32.4"/><line class="cls-1" x1="1" y1="24.55" x2="4.77" y2="24.55"/><line class="cls-1" x1="1" y1="16.7" x2="4.77" y2="16.7"/><line class="cls-1" x1="1" y1="8.85" x2="4.77" y2="8.85"/><line class="cls-1" x1="1" y1="1" x2="4.77" y2="1"/></g></g></svg>