<svg xmlns="http://www.w3.org/2000/svg" viewBox="0 0 210.16 193.2"><defs><style>.cls-1,.cls-2,.cls-3{fill:none;stroke:#ffb237;stroke-miterlimit:10;}.cls-1,.cls-2{stroke-width:2px;}.cls-2,.cls-5{opacity:0.5;}.cls-3{stroke-dasharray:3 3;opacity:0.3;}.cls-4,.cls-6{fill:#ffb237;}.cls-4{opacity:0.2;}</style></defs><title>lp-orgs-info-ic</title><g id="Layer_2" data-name="Layer 2"><g id="Isolation_Mode" data-name="Isolation Mode"><circle class="cls-1" cx="130.61" cy="93.57" r="9.42"/><circle class="cls-1" cx="99.45" cy="78.49" r="7.42"/><circle class="cls-1" cx="154.03" cy="121.75" r="3.68"/><circle class="cls-1" cx="159.7" cy="93.57" r="3.68"/><circle class="cls-1" cx="140.39" cy="72.75" r="3.68"/><circle class="cls-1" cx="74.52" cy="101.99" r="3.68"/><line class="cls-1" x1="78.21" y1="98.32" x2="93.96" y2="83.47"/><circle class="cls-1" cx="100.77" cy="117.15" r="3.68"/><line class="cls-1" x1="100.77" y1="113.46" x2="100.33" y2="85.86"/><line class="cls-1" x1="106.32" y1="81.28" x2="122.48" y2="88.83"/><line class="cls-1" x1="159.01" y1="97.18" x2="155.14" y2="118.24"/><circle class="cls-1" cx="74.52" cy="78.71" r="3.68"/><line class="cls-1" x1="78.21" y1="78.71" x2="92.03" y2="78.49"/><line class="cls-1" x1="136.71" y1="100.74" x2="151.96" y2="118.71"/><line class="cls-1" x1="134.63" y1="85.05" x2="139.11" y2="76.2"/><line class="cls-1" x1="156.93" y1="90.89" x2="142.87" y2="75.47"/><line class="cls-1" x1="136.71" y1="72.75" x2="106.58" y2="76.43"/><line class="cls-1" x1="74.52" y1="83.18" x2="74.52" y2="98.31"/><line class="cls-1" x1="76.96" y1="104.74" x2="97.46" y2="115.55"/><circle class="cls-2" cx="130.61" cy="93.57" r="9.42"/><circle class="cls-2" cx="99.45" cy="78.49" r="7.42"/><circle class="cls-1" cx="154.03" cy="121.75" r="3.68"/><circle class="cls-1" cx="159.7" cy="93.57" r="3.68"/><circle class="cls-1" cx="140.39" cy="72.75" r="3.68"/><circle class="cls-3" cx="96.6" cy="96.6" r="96.1"/><circle class="cls-4" cx="114.06" cy="96.6" r="96.1"/><g class="cls-5"><path class="cls-6" d="M106.48,73.89a1.49,1.49,0,0,0,0-3,1.49,1.49,0,0,0,0,3Z"/><path class="cls-6" d="M115.8,73.89a1.49,1.49,0,0,0,0-3,1.49,1.49,0,0,0,0,3Z"/><path class="cls-6" d="M125.13,73.89a1.49,1.49,0,0,0,0-3,1.49,1.49,0,0,0,0,3Z"/><path class="cls-6" d="M134.45,73.89a1.49,1.49,0,0,0,0-3,1.49,1.49,0,0,0,0,3Z"/><path class="cls-6" d="M143.77,73.89a1.49,1.49,0,0,0,0-3,1.49,1.49,0,0,0,0,3Z"/><path class="cls-6" d="M153.1,73.89a1.49,1.49,0,0,0,0-3,1.49,1.49,0,0,0,0,3Z"/><path class="cls-6" d="M162.42,73.89a1.49,1.49,0,0,0,0-3,1.49,1.49,0,0,0,0,3Z"/><path class="cls-6" d="M171.74,73.89a1.49,1.49,0,0,0,0-3,1.49,1.49,0,0,0,0,3Z"/><path class="cls-6" d="M106.48,82.36a1.49,1.49,0,0,0,0-3,1.49,1.49,0,0,0,0,3Z"/><path class="cls-6" d="M115.8,82.36a1.49,1.49,0,0,0,0-3,1.49,1.49,0,0,0,0,3Z"/><path class="cls-6" d="M125.13,82.36a1.49,1.49,0,0,0,0-3,1.49,1.49,0,0,0,0,3Z"/><path class="cls-6" d="M134.45,82.36a1.49,1.49,0,0,0,0-3,1.49,1.49,0,0,0,0,3Z"/><path class="cls-6" d="M143.77,82.36a1.49,1.49,0,0,0,0-3,1.49,1.49,0,0,0,0,3Z"/><path class="cls-6" d="M153.1,82.36a1.49,1.49,0,0,0,0-3,1.49,1.49,0,0,0,0,3Z"/><path class="cls-6" d="M162.42,82.36a1.49,1.49,0,0,0,0-3,1.49,1.49,0,0,0,0,3Z"/><path class="cls-6" d="M171.74,82.36a1.49,1.49,0,0,0,0-3,1.49,1.49,0,0,0,0,3Z"/><path class="cls-6" d="M106.48,90.82a1.49,1.49,0,0,0,0-3,1.49,1.49,0,0,0,0,3Z"/><path class="cls-6" d="M115.8,90.82a1.49,1.49,0,0,0,0-3,1.49,1.49,0,0,0,0,3Z"/><path class="cls-6" d="M125.13,90.82a1.49,1.49,0,0,0,0-3,1.49,1.49,0,0,0,0,3Z"/><path class="cls-6" d="M134.45,90.82a1.49,1.49,0,0,0,0-3,1.49,1.49,0,0,0,0,3Z"/><path class="cls-6" d="M143.77,90.82a1.49,1.49,0,0,0,0-3,1.49,1.49,0,0,0,0,3Z"/><path class="cls-6" d="M153.1,90.82a1.49,1.49,0,0,0,0-3,1.49,1.49,0,0,0,0,3Z"/><path class="cls-6" d="M162.42,90.82a1.49,1.49,0,0,0,0-3,1.49,1.49,0,0,0,0,3Z"/><path class="cls-6" d="M171.74,90.82a1.49,1.49,0,0,0,0-3,1.49,1.49,0,0,0,0,3Z"/><path class="cls-6" d="M106.48,99.29a1.49,1.49,0,0,0,0-3,1.49,1.49,0,0,0,0,3Z"/><path class="cls-6" d="M115.8,99.29a1.49,1.49,0,0,0,0-3,1.49,1.49,0,0,0,0,3Z"/><path class="cls-6" d="M125.13,99.29a1.49,1.49,0,0,0,0-3,1.49,1.49,0,0,0,0,3Z"/><path class="cls-6" d="M134.45,99.29a1.49,1.49,0,0,0,0-3,1.49,1.49,0,0,0,0,3Z"/><path class="cls-6" d="M143.77,99.29a1.49,1.49,0,0,0,0-3,1.49,1.49,0,0,0,0,3Z"/><path class="cls-6" d="M153.1,99.29a1.49,1.49,0,0,0,0-3,1.49,1.49,0,0,0,0,3Z"/><path class="cls-6" d="M162.42,99.29a1.49,1.49,0,0,0,0-3,1.49,1.49,0,0,0,0,3Z"/><path class="cls-6" d="M171.74,99.29a1.49,1.49,0,0,0,0-3,1.49,1.49,0,0,0,0,3Z"/><path class="cls-6" d="M106.48,107.76a1.49,1.49,0,0,0,0-3,1.49,1.49,0,0,0,0,3Z"/><path class="cls-6" d="M115.8,107.76a1.49,1.49,0,0,0,0-3,1.49,1.49,0,0,0,0,3Z"/><path class="cls-6" d="M125.13,107.76a1.49,1.49,0,0,0,0-3,1.49,1.49,0,0,0,0,3Z"/><path class="cls-6" d="M134.45,107.76a1.49,1.49,0,0,0,0-3,1.49,1.49,0,0,0,0,3Z"/><path class="cls-6" d="M143.77,107.76a1.49,1.49,0,0,0,0-3,1.49,1.49,0,0,0,0,3Z"/><path class="cls-6" d="M153.1,107.76a1.49,1.49,0,0,0,0-3,1.49,1.49,0,0,0,0,3Z"/><path class="cls-6" d="M162.42,107.76a1.49,1.49,0,0,0,0-3,1.49,1.49,0,0,0,0,3Z"/><path class="cls-6" d="M171.74,107.76a1.49,1.49,0,0,0,0-3,1.49,1.49,0,0,0,0,3Z"/><path class="cls-6" d="M106.48,116.23a1.49,1.49,0,0,0,0-3,1.49,1.49,0,0,0,0,3Z"/><path class="cls-6" d="M115.8,116.23a1.49,1.49,0,0,0,0-3,1.49,1.49,0,0,0,0,3Z"/><path class="cls-6" d="M125.13,116.23a1.49,1.49,0,0,0,0-3,1.49,1.49,0,0,0,0,3Z"/><path class="cls-6" d="M134.45,116.23a1.49,1.49,0,0,0,0-3,1.49,1.49,0,0,0,0,3Z"/><path class="cls-6" d="M143.77,116.23a1.49,1.49,0,0,0,0-3,1.49,1.49,0,0,0,0,3Z"/><path class="cls-6" d="M153.1,116.23a1.49,1.49,0,0,0,0-3,1.49,1.49,0,0,0,0,3Z"/><path class="cls-6" d="M162.42,116.23a1.49,1.49,0,0,0,0-3,1.49,1.49,0,0,0,0,3Z"/><path class="cls-6" d="M171.74,116.23a1.49,1.49,0,0,0,0-3,1.49,1.49,0,0,0,0,3Z"/></g></g></g></svg>