<svg xmlns="http://www.w3.org/2000/svg" xmlns:xlink="http://www.w3.org/1999/xlink" viewBox="0 0 85.33 48.63"><defs><style>.cls-1,.cls-5{fill:none;}.cls-2{clip-path:url(#clip-path);}.cls-3,.cls-6{opacity:0.5;}.cls-4,.cls-6{fill:#fff;}.cls-5{stroke:#fff;stroke-linecap:round;stroke-linejoin:round;stroke-width:2px;}</style><clipPath id="clip-path"><polygon class="cls-1" points="30.56 7.09 55.49 4.05 57.48 6.9 60.58 6.29 72.22 19.05 71.46 21.27 73.77 25.2 69.82 41.54 68.11 42.07 55.49 27.2 58.24 21.27 57.17 17.34 52.16 13.47 45.91 14.22 43.72 17.34 30.48 10.76 30.56 7.09"/></clipPath></defs><title>lp-orgs-ic</title><g id="Layer_2" data-name="Layer 2"><g id="btns"><g class="cls-2"><g class="cls-3"><path class="cls-4" d="M30.48,4.65a.9.9,0,0,0,0-1.79.9.9,0,0,0,0,1.79Z"/><path class="cls-4" d="M38.2,4.65a.9.9,0,0,0,0-1.79.9.9,0,0,0,0,1.79Z"/><path class="cls-4" d="M45.91,4.65a.9.9,0,0,0,0-1.79.9.9,0,0,0,0,1.79Z"/><path class="cls-4" d="M53.62,4.65a.9.9,0,0,0,0-1.79.9.9,0,0,0,0,1.79Z"/><path class="cls-4" d="M61.33,4.65a.9.9,0,0,0,0-1.79.9.9,0,0,0,0,1.79Z"/><path class="cls-4" d="M69.05,4.65a.9.9,0,0,0,0-1.79.9.9,0,0,0,0,1.79Z"/><path class="cls-4" d="M76.76,4.65a.9.9,0,0,0,0-1.79.9.9,0,0,0,0,1.79Z"/><path class="cls-4" d="M84.47,4.65a.9.9,0,0,0,0-1.79.9.9,0,0,0,0,1.79Z"/><path class="cls-4" d="M30.48,11.65a.89.89,0,0,0,0-1.78.89.89,0,0,0,0,1.78Z"/><path class="cls-4" d="M38.2,11.65a.89.89,0,0,0,0-1.78.89.89,0,0,0,0,1.78Z"/><path class="cls-4" d="M45.91,11.65a.89.89,0,0,0,0-1.78.89.89,0,0,0,0,1.78Z"/><path class="cls-4" d="M53.62,11.65a.89.89,0,0,0,0-1.78.89.89,0,0,0,0,1.78Z"/><path class="cls-4" d="M61.33,11.65a.89.89,0,0,0,0-1.78.89.89,0,0,0,0,1.78Z"/><path class="cls-4" d="M69.05,11.65a.89.89,0,0,0,0-1.78.89.89,0,0,0,0,1.78Z"/><path class="cls-4" d="M76.76,11.65a.89.89,0,0,0,0-1.78.89.89,0,0,0,0,1.78Z"/><path class="cls-4" d="M84.47,11.65a.89.89,0,0,0,0-1.78.89.89,0,0,0,0,1.78Z"/><path class="cls-4" d="M30.48,18.66a.9.9,0,0,0,0-1.79.9.9,0,0,0,0,1.79Z"/><path class="cls-4" d="M38.2,18.66a.9.9,0,0,0,0-1.79.9.9,0,0,0,0,1.79Z"/><path class="cls-4" d="M45.91,18.66a.9.9,0,0,0,0-1.79.9.9,0,0,0,0,1.79Z"/><path class="cls-4" d="M53.62,18.66a.9.9,0,0,0,0-1.79.9.9,0,0,0,0,1.79Z"/><path class="cls-4" d="M61.33,18.66a.9.9,0,0,0,0-1.79.9.9,0,0,0,0,1.79Z"/><path class="cls-4" d="M69.05,18.66a.9.9,0,0,0,0-1.79.9.9,0,0,0,0,1.79Z"/><path class="cls-4" d="M76.76,18.66a.9.9,0,0,0,0-1.79.9.9,0,0,0,0,1.79Z"/><path class="cls-4" d="M84.47,18.66a.9.9,0,0,0,0-1.79.9.9,0,0,0,0,1.79Z"/><path class="cls-4" d="M30.48,25.66a.89.89,0,0,0,0-1.78.89.89,0,0,0,0,1.78Z"/><path class="cls-4" d="M38.2,25.66a.89.89,0,0,0,0-1.78.89.89,0,0,0,0,1.78Z"/><path class="cls-4" d="M45.91,25.66a.89.89,0,0,0,0-1.78.89.89,0,0,0,0,1.78Z"/><path class="cls-4" d="M53.62,25.66a.89.89,0,0,0,0-1.78.89.89,0,0,0,0,1.78Z"/><path class="cls-4" d="M61.33,25.66a.89.89,0,0,0,0-1.78.89.89,0,0,0,0,1.78Z"/><path class="cls-4" d="M69.05,25.66a.89.89,0,0,0,0-1.78.89.89,0,0,0,0,1.78Z"/><path class="cls-4" d="M76.76,25.66a.89.89,0,0,0,0-1.78.89.89,0,0,0,0,1.78Z"/><path class="cls-4" d="M84.47,25.66a.89.89,0,0,0,0-1.78.89.89,0,0,0,0,1.78Z"/><path class="cls-4" d="M30.48,32.67a.9.9,0,0,0,0-1.79.9.9,0,0,0,0,1.79Z"/><path class="cls-4" d="M38.2,32.67a.9.9,0,0,0,0-1.79.9.9,0,0,0,0,1.79Z"/><path class="cls-4" d="M45.91,32.67a.9.9,0,0,0,0-1.79.9.9,0,0,0,0,1.79Z"/><path class="cls-4" d="M53.62,32.67a.9.9,0,0,0,0-1.79.9.9,0,0,0,0,1.79Z"/><path class="cls-4" d="M61.33,32.67a.9.9,0,0,0,0-1.79.9.9,0,0,0,0,1.79Z"/><path class="cls-4" d="M69.05,32.67a.9.9,0,0,0,0-1.79.9.9,0,0,0,0,1.79Z"/><path class="cls-4" d="M76.76,32.67a.9.9,0,0,0,0-1.79.9.9,0,0,0,0,1.79Z"/><path class="cls-4" d="M84.47,32.67a.9.9,0,0,0,0-1.79.9.9,0,0,0,0,1.79Z"/><path class="cls-4" d="M30.48,39.67a.89.89,0,0,0,0-1.78.89.89,0,0,0,0,1.78Z"/><path class="cls-4" d="M38.2,39.67a.89.89,0,0,0,0-1.78.89.89,0,0,0,0,1.78Z"/><path class="cls-4" d="M45.91,39.67a.89.89,0,0,0,0-1.78.89.89,0,0,0,0,1.78Z"/><path class="cls-4" d="M53.62,39.67a.89.89,0,0,0,0-1.78.89.89,0,0,0,0,1.78Z"/><path class="cls-4" d="M61.33,39.67a.89.89,0,0,0,0-1.78.89.89,0,0,0,0,1.78Z"/><path class="cls-4" d="M69.05,39.67a.89.89,0,0,0,0-1.78.89.89,0,0,0,0,1.78Z"/><path class="cls-4" d="M76.76,39.67a.89.89,0,0,0,0-1.78.89.89,0,0,0,0,1.78Z"/><path class="cls-4" d="M84.47,39.67a.89.89,0,0,0,0-1.78.89.89,0,0,0,0,1.78Z"/></g></g><circle class="cls-5" cx="50.44" cy="21.27" r="7.8"/><circle class="cls-5" cx="24.67" cy="8.8" r="6.14"/><circle class="cls-5" cx="69.82" cy="44.58" r="3.05"/><circle class="cls-5" cx="74.51" cy="21.27" r="3.05"/><circle class="cls-5" cx="58.54" cy="4.05" r="3.05"/><circle class="cls-5" cx="4.05" cy="28.24" r="3.05"/><line class="cls-5" x1="7.09" y1="25.19" x2="20.12" y2="12.91"/><circle class="cls-5" cx="25.76" cy="40.77" r="3.05"/><line class="cls-5" x1="25.76" y1="37.73" x2="25.39" y2="14.89"/><line class="cls-5" x1="30.35" y1="11.1" x2="43.72" y2="17.35"/><line class="cls-5" x1="73.94" y1="24.26" x2="70.74" y2="41.68"/><circle class="cls-5" cx="4.05" cy="8.97" r="3.05"/><line class="cls-5" x1="7.09" y1="8.97" x2="18.53" y2="8.8"/><line class="cls-5" x1="55.49" y1="27.2" x2="68.11" y2="42.07"/><line class="cls-5" x1="53.77" y1="14.22" x2="57.48" y2="6.9"/><line class="cls-5" x1="72.22" y1="19.05" x2="60.58" y2="6.29"/><line class="cls-5" x1="55.49" y1="4.05" x2="30.56" y2="7.09"/><line class="cls-5" x1="4.05" y1="12.67" x2="4.05" y2="25.19"/><line class="cls-5" x1="6.06" y1="30.51" x2="23.02" y2="39.45"/><circle class="cls-6" cx="50.44" cy="21.27" r="7.8"/><circle class="cls-6" cx="24.67" cy="8.8" r="6.14"/></g></g></svg>