<svg xmlns="http://www.w3.org/2000/svg" xmlns:xlink="http://www.w3.org/1999/xlink" viewBox="0 0 210.16 193.2"><defs><style>.cls-1,.cls-2,.cls-4{fill:none;stroke:#89a33b;}.cls-1,.cls-2{stroke-miterlimit:10;}.cls-2{stroke-dasharray:3 3;opacity:0.3;}.cls-3,.cls-7{fill:#89a33b;}.cls-3{opacity:0.2;}.cls-4{stroke-linecap:round;stroke-linejoin:round;stroke-width:2px;}.cls-5{clip-path:url(#clip-path);}.cls-6{opacity:0.5;}</style><clipPath id="clip-path"><path class="cls-1" d="M110.87,94.21,123.63,67a30.09,30.09,0,1,0,16.48,20.26Z"/></clipPath></defs><title>lp-stats-info-ic</title><g id="Layer_2" data-name="Layer 2"><g id="_Layer_" data-name="&lt;Layer&gt;"><circle class="cls-2" cx="96.6" cy="96.6" r="96.1"/><circle class="cls-3" cx="114.06" cy="96.6" r="96.1"/><path class="cls-4" d="M147.31,85.53c-.14-.58-.27-1.16-.43-1.73A37.56,37.56,0,0,0,128.19,61c-.46-.24-.94-.46-1.41-.69L110.87,94.21Z"/><path class="cls-4" d="M110.87,94.21,123.63,67a30.09,30.09,0,1,0,16.48,20.26Z"/><g class="cls-5"><g class="cls-6"><path class="cls-7" d="M56.22,59.88a1.49,1.49,0,0,0,0-3,1.49,1.49,0,0,0,0,3Z"/><path class="cls-7" d="M85,71.75a1.49,1.49,0,0,0,0-3,1.49,1.49,0,0,0,0,3Z"/><path class="cls-7" d="M95.31,71.75a1.49,1.49,0,0,0,0-3,1.49,1.49,0,0,0,0,3Z"/><path class="cls-7" d="M105.59,71.75a1.49,1.49,0,0,0,0-3,1.49,1.49,0,0,0,0,3Z"/><path class="cls-7" d="M115.88,71.75a1.49,1.49,0,0,0,0-3,1.49,1.49,0,0,0,0,3Z"/><path class="cls-7" d="M126.16,71.75a1.49,1.49,0,0,0,0-3,1.49,1.49,0,0,0,0,3Z"/><path class="cls-7" d="M136.45,71.75a1.49,1.49,0,0,0,0-3,1.49,1.49,0,0,0,0,3Z"/><path class="cls-7" d="M146.74,71.75a1.49,1.49,0,0,0,0-3,1.49,1.49,0,0,0,0,3Z"/><path class="cls-7" d="M56.22,73.44a1.49,1.49,0,0,0,0-3,1.49,1.49,0,0,0,0,3Z"/><path class="cls-7" d="M85,81.09a1.49,1.49,0,0,0,0-3,1.49,1.49,0,0,0,0,3Z"/><path class="cls-7" d="M95.31,81.09a1.49,1.49,0,0,0,0-3,1.49,1.49,0,0,0,0,3Z"/><path class="cls-7" d="M105.59,81.09a1.49,1.49,0,0,0,0-3,1.49,1.49,0,0,0,0,3Z"/><path class="cls-7" d="M115.88,81.09a1.49,1.49,0,0,0,0-3,1.49,1.49,0,0,0,0,3Z"/><path class="cls-7" d="M126.16,81.09a1.49,1.49,0,0,0,0-3,1.49,1.49,0,0,0,0,3Z"/><path class="cls-7" d="M136.45,81.09a1.49,1.49,0,0,0,0-3,1.49,1.49,0,0,0,0,3Z"/><path class="cls-7" d="M146.74,81.09a1.49,1.49,0,0,0,0-3,1.49,1.49,0,0,0,0,3Z"/><path class="cls-7" d="M56.22,87a1.49,1.49,0,0,0,0-3,1.49,1.49,0,0,0,0,3Z"/><path class="cls-7" d="M85,90.43a1.49,1.49,0,0,0,0-3,1.49,1.49,0,0,0,0,3Z"/><path class="cls-7" d="M95.31,90.43a1.49,1.49,0,0,0,0-3,1.49,1.49,0,0,0,0,3Z"/><path class="cls-7" d="M105.59,90.43a1.49,1.49,0,0,0,0-3,1.49,1.49,0,0,0,0,3Z"/><path class="cls-7" d="M115.88,90.43a1.49,1.49,0,0,0,0-3,1.49,1.49,0,0,0,0,3Z"/><path class="cls-7" d="M126.16,90.43a1.49,1.49,0,0,0,0-3,1.49,1.49,0,0,0,0,3Z"/><path class="cls-7" d="M136.45,90.43a1.49,1.49,0,0,0,0-3,1.49,1.49,0,0,0,0,3Z"/><path class="cls-7" d="M146.74,90.43a1.49,1.49,0,0,0,0-3,1.49,1.49,0,0,0,0,3Z"/><path class="cls-7" d="M56.22,100.55a1.49,1.49,0,0,0,0-3,1.49,1.49,0,0,0,0,3Z"/><path class="cls-7" d="M85,99.77a1.49,1.49,0,0,0,0-3,1.49,1.49,0,0,0,0,3Z"/><path class="cls-7" d="M95.31,99.77a1.49,1.49,0,0,0,0-3,1.49,1.49,0,0,0,0,3Z"/><path class="cls-7" d="M105.59,99.77a1.49,1.49,0,0,0,0-3,1.49,1.49,0,0,0,0,3Z"/><path class="cls-7" d="M115.88,99.77a1.49,1.49,0,0,0,0-3,1.49,1.49,0,0,0,0,3Z"/><path class="cls-7" d="M126.16,99.77a1.49,1.49,0,0,0,0-3,1.49,1.49,0,0,0,0,3Z"/><path class="cls-7" d="M136.45,99.77a1.49,1.49,0,0,0,0-3,1.49,1.49,0,0,0,0,3Z"/><path class="cls-7" d="M146.74,99.77a1.49,1.49,0,0,0,0-3,1.49,1.49,0,0,0,0,3Z"/><path class="cls-7" d="M56.22,114.11a1.49,1.49,0,0,0,0-3,1.49,1.49,0,0,0,0,3Z"/><path class="cls-7" d="M85,109.12a1.49,1.49,0,0,0,0-3,1.49,1.49,0,0,0,0,3Z"/><path class="cls-7" d="M95.31,109.12a1.49,1.49,0,0,0,0-3,1.49,1.49,0,0,0,0,3Z"/><path class="cls-7" d="M105.59,109.12a1.49,1.49,0,0,0,0-3,1.49,1.49,0,0,0,0,3Z"/><path class="cls-7" d="M115.88,109.12a1.49,1.49,0,0,0,0-3,1.49,1.49,0,0,0,0,3Z"/><path class="cls-7" d="M126.16,109.12a1.49,1.49,0,0,0,0-3,1.49,1.49,0,0,0,0,3Z"/><path class="cls-7" d="M136.45,109.12a1.49,1.49,0,0,0,0-3,1.49,1.49,0,0,0,0,3Z"/><path class="cls-7" d="M146.74,109.12a1.49,1.49,0,0,0,0-3,1.49,1.49,0,0,0,0,3Z"/><path class="cls-7" d="M56.22,127.67a1.49,1.49,0,0,0,0-3,1.49,1.49,0,0,0,0,3Z"/><path class="cls-7" d="M85,118.46a1.49,1.49,0,0,0,0-3,1.49,1.49,0,0,0,0,3Z"/><path class="cls-7" d="M95.31,118.46a1.49,1.49,0,0,0,0-3,1.49,1.49,0,0,0,0,3Z"/><path class="cls-7" d="M105.59,118.46a1.49,1.49,0,0,0,0-3,1.49,1.49,0,0,0,0,3Z"/><path class="cls-7" d="M115.88,118.46a1.49,1.49,0,0,0,0-3,1.49,1.49,0,0,0,0,3Z"/><path class="cls-7" d="M126.16,118.46a1.49,1.49,0,0,0,0-3,1.49,1.49,0,0,0,0,3Z"/><path class="cls-7" d="M136.45,118.46a1.49,1.49,0,0,0,0-3,1.49,1.49,0,0,0,0,3Z"/><path class="cls-7" d="M146.74,118.46a1.49,1.49,0,0,0,0-3,1.49,1.49,0,0,0,0,3Z"/></g></g><path class="cls-1" d="M110.87,94.21,123.63,67a30.09,30.09,0,1,0,16.48,20.26Z"/></g></g></svg>