<svg xmlns="http://www.w3.org/2000/svg" viewBox="0 0 34.57 23.36"><defs><style>.cls-1{fill:#59334d;}</style></defs><title>lp-selected-cyrcle-element</title><g id="Layer_2" data-name="Layer 2"><g id="Circle"><path class="cls-1" d="M22.89,6.37a5.31,5.31,0,1,0,5.31,5.31A5.31,5.31,0,0,0,22.89,6.37Z"/><path class="cls-1" d="M22.89,0A11.69,11.69,0,0,0,11.23,11.23H4.85A1,1,0,0,0,4.59,11l-4-2.48A1.8,1.8,0,0,1,0,7v9.5A1.8,1.8,0,0,1,.56,15l4-2.48a1,1,0,0,0,.31-.32h6.34A11.67,11.67,0,1,0,22.89,0Zm0,22.36A10.68,10.68,0,1,1,33.57,11.68,10.69,10.69,0,0,1,22.89,22.36Z"/></g></g></svg>