<svg xmlns="http://www.w3.org/2000/svg" xmlns:xlink="http://www.w3.org/1999/xlink" viewBox="0 0 56.28 49.98"><defs><style>.cls-1,.cls-2{fill:none;}.cls-2{stroke:#fff;stroke-linecap:round;stroke-linejoin:round;stroke-width:2px;}.cls-3,.cls-6{fill:#fff;}.cls-3,.cls-5{opacity:0.5;}.cls-4{clip-path:url(#clip-path);}</style><clipPath id="clip-path"><path class="cls-1" d="M28,26.44,37.53,6A22.6,22.6,0,1,0,49.88,21.22Z"/></clipPath></defs><title>lp-stats-ic</title><g id="Layer_2" data-name="Layer 2"><g id="btns"><path class="cls-2" d="M55.28,19.93c-.1-.43-.2-.87-.32-1.3a28.2,28.2,0,0,0-14-17.12c-.34-.18-.7-.34-1.06-.51L28,26.44Z"/><path class="cls-3" d="M55.28,19.93c-.1-.43-.2-.87-.32-1.3a28.2,28.2,0,0,0-14-17.12c-.34-.18-.7-.34-1.06-.51L28,26.44Z"/><path class="cls-2" d="M28,26.44,37.53,6A22.6,22.6,0,1,0,49.88,21.22Z"/><g class="cls-4"><g class="cls-5"><path class="cls-6" d="M.86,9.37a.89.89,0,0,0,0-1.78.89.89,0,0,0,0,1.78Z"/><path class="cls-6" d="M8.58,9.37a.89.89,0,0,0,0-1.78.89.89,0,0,0,0,1.78Z"/><path class="cls-6" d="M16.29,9.37a.89.89,0,0,0,0-1.78.89.89,0,0,0,0,1.78Z"/><path class="cls-6" d="M24,9.37a.89.89,0,0,0,0-1.78.89.89,0,0,0,0,1.78Z"/><path class="cls-6" d="M31.71,9.37a.89.89,0,0,0,0-1.78.89.89,0,0,0,0,1.78Z"/><path class="cls-6" d="M39.43,9.37a.89.89,0,0,0,0-1.78.89.89,0,0,0,0,1.78Z"/><path class="cls-6" d="M47.14,9.37a.89.89,0,0,0,0-1.78.89.89,0,0,0,0,1.78Z"/><path class="cls-6" d="M54.85,9.37a.89.89,0,0,0,0-1.78.89.89,0,0,0,0,1.78Z"/><path class="cls-6" d="M.86,16.38a.9.9,0,0,0,0-1.79.9.9,0,0,0,0,1.79Z"/><path class="cls-6" d="M8.58,16.38a.9.9,0,0,0,0-1.79.9.9,0,0,0,0,1.79Z"/><path class="cls-6" d="M16.29,16.38a.9.9,0,0,0,0-1.79.9.9,0,0,0,0,1.79Z"/><path class="cls-6" d="M24,16.38a.9.9,0,0,0,0-1.79.9.9,0,0,0,0,1.79Z"/><path class="cls-6" d="M31.71,16.38a.9.9,0,0,0,0-1.79.9.9,0,0,0,0,1.79Z"/><path class="cls-6" d="M39.43,16.38a.9.9,0,0,0,0-1.79.9.9,0,0,0,0,1.79Z"/><path class="cls-6" d="M47.14,16.38a.9.9,0,0,0,0-1.79.9.9,0,0,0,0,1.79Z"/><path class="cls-6" d="M54.85,16.38a.9.9,0,0,0,0-1.79.9.9,0,0,0,0,1.79Z"/><path class="cls-6" d="M.86,23.38a.89.89,0,0,0,0-1.78.89.89,0,0,0,0,1.78Z"/><path class="cls-6" d="M8.58,23.38a.89.89,0,0,0,0-1.78.89.89,0,0,0,0,1.78Z"/><path class="cls-6" d="M16.29,23.38a.89.89,0,0,0,0-1.78.89.89,0,0,0,0,1.78Z"/><path class="cls-6" d="M24,23.38a.89.89,0,0,0,0-1.78.89.89,0,0,0,0,1.78Z"/><path class="cls-6" d="M31.71,23.38a.89.89,0,0,0,0-1.78.89.89,0,0,0,0,1.78Z"/><path class="cls-6" d="M39.43,23.38a.89.89,0,0,0,0-1.78.89.89,0,0,0,0,1.78Z"/><path class="cls-6" d="M47.14,23.38a.89.89,0,0,0,0-1.78.89.89,0,0,0,0,1.78Z"/><path class="cls-6" d="M54.85,23.38a.89.89,0,0,0,0-1.78.89.89,0,0,0,0,1.78Z"/><path class="cls-6" d="M.86,30.39a.9.9,0,0,0,0-1.79.9.9,0,0,0,0,1.79Z"/><path class="cls-6" d="M8.58,30.39a.9.9,0,0,0,0-1.79.9.9,0,0,0,0,1.79Z"/><path class="cls-6" d="M16.29,30.39a.9.9,0,0,0,0-1.79.9.9,0,0,0,0,1.79Z"/><path class="cls-6" d="M24,30.39a.9.9,0,0,0,0-1.79.9.9,0,0,0,0,1.79Z"/><path class="cls-6" d="M31.71,30.39a.9.9,0,0,0,0-1.79.9.9,0,0,0,0,1.79Z"/><path class="cls-6" d="M39.43,30.39a.9.9,0,0,0,0-1.79.9.9,0,0,0,0,1.79Z"/><path class="cls-6" d="M47.14,30.39a.9.9,0,0,0,0-1.79.9.9,0,0,0,0,1.79Z"/><path class="cls-6" d="M54.85,30.39a.9.9,0,0,0,0-1.79.9.9,0,0,0,0,1.79Z"/><path class="cls-6" d="M.86,37.39a.89.89,0,0,0,0-1.78.89.89,0,0,0,0,1.78Z"/><path class="cls-6" d="M8.58,37.39a.89.89,0,0,0,0-1.78.89.89,0,0,0,0,1.78Z"/><path class="cls-6" d="M16.29,37.39a.89.89,0,0,0,0-1.78.89.89,0,0,0,0,1.78Z"/><path class="cls-6" d="M24,37.39a.89.89,0,0,0,0-1.78.89.89,0,0,0,0,1.78Z"/><path class="cls-6" d="M31.71,37.39a.89.89,0,0,0,0-1.78.89.89,0,0,0,0,1.78Z"/><path class="cls-6" d="M39.43,37.39a.89.89,0,0,0,0-1.78.89.89,0,0,0,0,1.78Z"/><path class="cls-6" d="M47.14,37.39a.89.89,0,0,0,0-1.78.89.89,0,0,0,0,1.78Z"/><path class="cls-6" d="M54.85,37.39a.89.89,0,0,0,0-1.78.89.89,0,0,0,0,1.78Z"/><path class="cls-6" d="M.86,44.4a.9.9,0,0,0,0-1.79.9.9,0,0,0,0,1.79Z"/><path class="cls-6" d="M8.58,44.4a.9.9,0,0,0,0-1.79.9.9,0,0,0,0,1.79Z"/><path class="cls-6" d="M16.29,44.4a.9.9,0,0,0,0-1.79.9.9,0,0,0,0,1.79Z"/><path class="cls-6" d="M24,44.4a.9.9,0,0,0,0-1.79.9.9,0,0,0,0,1.79Z"/><path class="cls-6" d="M31.71,44.4a.9.9,0,0,0,0-1.79.9.9,0,0,0,0,1.79Z"/><path class="cls-6" d="M39.43,44.4a.9.9,0,0,0,0-1.79.9.9,0,0,0,0,1.79Z"/><path class="cls-6" d="M47.14,44.4a.9.9,0,0,0,0-1.79.9.9,0,0,0,0,1.79Z"/><path class="cls-6" d="M54.85,44.4a.9.9,0,0,0,0-1.79.9.9,0,0,0,0,1.79Z"/></g></g></g></g></svg>