<svg xmlns="http://www.w3.org/2000/svg" viewBox="0 0 101.24 24.24"><defs><style>.cls-1{fill:#ef5241;}.cls-2{fill:#fff;}</style></defs><title>madad-lable</title><g id="Layer_2" data-name="Layer 2"><g id="Hide"><path class="cls-1" d="M89.12,24.24h-77A12.12,12.12,0,0,1,0,12.12H0A12.12,12.12,0,0,1,12.12,0h77a12.12,12.12,0,0,1,8.49,3.47h0a12.12,12.12,0,0,1,0,17.3h0A12.08,12.08,0,0,1,89.12,24.24Z"/><path class="cls-2" d="M12.71,10H12a5.85,5.85,0,0,1-.6,0,3.82,3.82,0,0,1-.57-.11,5.8,5.8,0,0,1-.63-.21L10.44,9c.07-.21.15-.43.22-.65a6.81,6.81,0,0,0,.66.18l.54.09.57,0h1.51a5.08,5.08,0,0,1,1.1.12,2.37,2.37,0,0,1,1,.47,2.45,2.45,0,0,1,.69.94A3.92,3.92,0,0,1,17,11.72v6H15.45V11.89a4.69,4.69,0,0,0-.08-.92,1.4,1.4,0,0,0-.28-.6,1.12,1.12,0,0,0-.55-.32,3.47,3.47,0,0,0-.87-.1Z"/><path class="cls-2" d="M21.44,10h-.69a5.66,5.66,0,0,1-.6,0,3.82,3.82,0,0,1-.57-.11,5.27,5.27,0,0,1-.64-.21L19.17,9c.07-.21.15-.43.22-.65.25.08.47.14.65.18l.55.09.56,0h5.72V10H25.1v7.8H23.58V10Z"/><path class="cls-2" d="M33.06,8.62v4.72a2.63,2.63,0,0,0,.12.8c.08.26.18.51.27.78q.25.69.48,1.38c.15.47.29.95.4,1.45H32.92q-.12-.46-.27-1t-.33-1l-.22-.56-.47.55-.34.39a3.65,3.65,0,0,0-.27.3l-.28.28a4.35,4.35,0,0,1-1,.78,3.47,3.47,0,0,1-1.26.42c-.06-.23-.11-.45-.16-.68s-.1-.45-.14-.67c.2-.05.38-.1.55-.16a3.17,3.17,0,0,0,.46-.19A2.42,2.42,0,0,0,29.6,16a3,3,0,0,0,.41-.4l1.58-1.73V10h-2V8.62Z"/><path class="cls-2" d="M35.91,17.83c.09-.58.17-1.09.25-1.52s.14-.81.2-1.15.1-.63.15-.9.09-.52.13-.78.09-.52.13-.78.09-.58.14-.92a3.72,3.72,0,0,0,0-.74,2,2,0,0,0-.15-.59,4.16,4.16,0,0,0-.33-.61L35.92,9l.32-.19.29-.18.32-.19.42-.24.35.49.26.39c.07.12.14.24.2.36s.12.24.17.37c.25-.23.49-.43.71-.61a4.51,4.51,0,0,1,.69-.45,3.74,3.74,0,0,1,.75-.28,3.85,3.85,0,0,1,.87-.1A3.05,3.05,0,0,1,43.2,9a3,3,0,0,1,1,1.85,5.83,5.83,0,0,1,.1.87c0,.35,0,.71,0,1.08s0,.74,0,1.09v.91c0,.41,0,.79,0,1.16s0,.68,0,.92,0,.27,0,.41a3.49,3.49,0,0,1-.05.44H39.89V16.41h2.94l0-.32c0-.12,0-.28,0-.47s0-.45,0-.77,0-.71,0-1.21c0-.22,0-.45,0-.68l0-.66c0-.22,0-.42-.05-.61a4.56,4.56,0,0,0-.07-.48,4.07,4.07,0,0,0-.2-.59,1.72,1.72,0,0,0-.32-.46,1.42,1.42,0,0,0-.46-.28,1.65,1.65,0,0,0-.62-.1,2.36,2.36,0,0,0-.75.12,3.27,3.27,0,0,0-.68.33,5.43,5.43,0,0,0-.62.48c-.2.18-.39.37-.57.56-.11.65-.2,1.23-.28,1.72s-.15.95-.21,1.34-.13.75-.17,1.06-.1.6-.15.86-.09.53-.13.79-.09.51-.13.79Z"/><path class="cls-2" d="M49.21,10h-.69a5.47,5.47,0,0,1-.59,0,4,4,0,0,1-.58-.11,5.8,5.8,0,0,1-.63-.21L46.94,9c.07-.21.15-.43.23-.65a6,6,0,0,0,.65.18,5.25,5.25,0,0,0,.55.09l.56,0h2.4a5,5,0,0,1,1.09.12,2.37,2.37,0,0,1,1,.47,2.41,2.41,0,0,1,.68.94,3.92,3.92,0,0,1,.27,1.57v6H52.82V11.89a4.8,4.8,0,0,0-.08-.93,1.29,1.29,0,0,0-.27-.59,1,1,0,0,0-.54-.32A3.64,3.64,0,0,0,51,10Zm-2.35,5v-.7l0-.57c0-.18,0-.36.07-.55s.07-.38.13-.61l.74.11.74.11q0,.32-.09.57a4.26,4.26,0,0,0-.06.5,4.45,4.45,0,0,0,0,.53c0,.18,0,.4,0,.64v2.73H46.86Z"/><path class="cls-2" d="M63.84,10h-.7a5.65,5.65,0,0,1-.59,0A3.82,3.82,0,0,1,62,9.79a5.27,5.27,0,0,1-.64-.21L61.57,9c.07-.21.14-.43.22-.65a6.69,6.69,0,0,0,.65.18l.55.09.56,0h5.72V10H67.5v7.8H66V10Z"/><path class="cls-2" d="M73.41,10h-.69a5.66,5.66,0,0,1-.6,0,3.82,3.82,0,0,1-.57-.11,5.27,5.27,0,0,1-.64-.21L71.14,9c.07-.21.15-.43.22-.65.25.08.47.14.65.18l.55.09.56,0h5.72V10H77.07v7.8H75.55V10Z"/><path class="cls-2" d="M80.56,17.83c.09-.58.17-1.09.25-1.52s.14-.81.19-1.15.11-.63.16-.9.09-.52.13-.78.09-.52.13-.78.08-.58.14-.92a3.72,3.72,0,0,0,0-.74,2,2,0,0,0-.15-.59,4.16,4.16,0,0,0-.33-.61L80.57,9l.32-.19.29-.18.32-.19.42-.24.35.49c.09.14.18.27.25.39a3.35,3.35,0,0,1,.21.36c.06.12.11.24.17.37.25-.23.48-.43.71-.61a4.07,4.07,0,0,1,.69-.45,3.52,3.52,0,0,1,.75-.28,3.85,3.85,0,0,1,.87-.1A3.07,3.07,0,0,1,87.85,9a3,3,0,0,1,1,1.85,5.83,5.83,0,0,1,.1.87c0,.35,0,.71,0,1.08s0,.74,0,1.09v.91c0,.41,0,.79,0,1.16s0,.68,0,.92,0,.27,0,.41,0,.29,0,.44H84.54V16.41h2.94c0-.1,0-.21,0-.32s0-.28,0-.47,0-.45,0-.77V13q0-.35,0-.66c0-.22,0-.42,0-.61a4.56,4.56,0,0,0-.07-.48,3.14,3.14,0,0,0-.21-.59,1.49,1.49,0,0,0-.31-.46,1.42,1.42,0,0,0-.46-.28,1.68,1.68,0,0,0-.62-.1A2.36,2.36,0,0,0,85,9.9a3.27,3.27,0,0,0-.68.33,5.43,5.43,0,0,0-.62.48c-.2.18-.39.37-.57.56-.11.65-.2,1.23-.28,1.72s-.15.95-.22,1.34-.12.75-.17,1.06-.09.6-.14.86-.09.53-.13.79-.09.51-.14.79Z"/></g></g></svg>