<svg xmlns="http://www.w3.org/2000/svg" viewBox="0 0 36.07 30.41"><defs><style>.cls-1{fill:none;stroke:#ef5241;stroke-linecap:round;stroke-linejoin:round;stroke-width:2px;}</style></defs><title>market-ic</title><g id="Layer_2" data-name="Layer 2"><g id="Text"><path class="cls-1" d="M12.08,5.28V3.67A2.68,2.68,0,0,1,14.75,1h6.56A2.67,2.67,0,0,1,24,3.67V5.28"/><path class="cls-1" d="M6.41,5.28H3.34A2.34,2.34,0,0,0,1,7.62V27.07a2.34,2.34,0,0,0,2.34,2.34H32.73a2.34,2.34,0,0,0,2.34-2.34V7.62a2.34,2.34,0,0,0-2.34-2.34H6.41Z"/><line class="cls-1" x1="1" y1="19.02" x2="14.37" y2="19.02"/><line class="cls-1" x1="21.7" y1="19.02" x2="35.07" y2="19.02"/><rect class="cls-1" x="14.37" y="17.5" width="7.33" height="3.34" rx="1.07"/></g></g></svg>