<?xml version="1.0" encoding="utf-8"?>
<!-- Generator: Adobe Illustrator 23.0.1, SVG Export Plug-In . SVG Version: 6.00 Build 0)  -->
<svg version="1.1" id="Layer_1" xmlns="http://www.w3.org/2000/svg" xmlns:xlink="http://www.w3.org/1999/xlink" x="0px" y="0px"
	 viewBox="0 0 28.1 28.1" style="enable-background:new 0 0 28.1 28.1;" xml:space="preserve">
<style type="text/css">
	.st0{fill:#FFFFFF;}
</style>
<title>close-ic</title>
<g>
	<g id="overlay">
		<g>
			<path class="st0" d="M1.1,1.1c2.6,1.7,5,3.7,7.3,5.7c2.3,2,4.6,4.1,6.7,6.3c2.2,2.2,4.3,4.4,6.3,6.7c2,2.3,3.9,4.7,5.7,7.3
				c-2.6-1.7-5-3.7-7.3-5.7c-2.3-2-4.6-4.1-6.7-6.3c-2.2-2.2-4.3-4.4-6.3-6.7C4.7,6.1,2.8,3.7,1.1,1.1z"/>
		</g>
		<g>
			<path class="st0" d="M27,1.1c-1.7,2.6-3.7,5-5.7,7.3c-2,2.3-4.1,4.6-6.3,6.7c-2.2,2.2-4.4,4.3-6.7,6.3c-2.3,2-4.7,3.9-7.3,5.7
				c1.7-2.6,3.7-5,5.7-7.3c2-2.3,4.1-4.6,6.3-6.7c2.2-2.2,4.4-4.3,6.7-6.3C22,4.7,24.4,2.8,27,1.1z"/>
		</g>
	</g>
</g>
</svg>
