<svg xmlns="http://www.w3.org/2000/svg" viewBox="0 0 21.64 35.68"><defs><style>.cls-1{fill:none;stroke:#fff;stroke-linecap:round;stroke-linejoin:round;stroke-width:2px;}</style></defs><title>neg-health-ic</title><g id="Layer_2" data-name="Layer 2"><g id="Text"><path class="cls-1" d="M10,2.69a2,2,0,0,0-2,2v11.2a2,2,0,0,0,2,2s4.43.23,4.37,2.74,2.74,2.48,3.48,8.05c0,0-.74,6.31-6.92,6-4.26-.22-7.34-2.86-7.45-7.92"/><path class="cls-1" d="M18.64,2.69a2,2,0,0,1,2,2v11.2a2,2,0,0,1-2,2"/><line class="cls-1" x1="10.71" y1="1" x2="10.71" y2="4.55"/><line class="cls-1" x1="17.9" y1="1" x2="17.9" y2="4.55"/><line class="cls-1" x1="17.9" y1="1" x2="17.9" y2="4.55"/><circle class="cls-1" cx="3.45" cy="24.36" r="2.45"/><path class="cls-1" d="M17.9,17.89s-3.16-.12-3.56,2.74"/></g></g></svg>