<svg xmlns="http://www.w3.org/2000/svg" viewBox="0 0 36.69 34.65"><defs><style>.cls-1{fill:none;stroke:#ef5241;stroke-linecap:round;stroke-linejoin:round;stroke-width:2px;}</style></defs><title>occupation-ic</title><g id="Layer_2" data-name="Layer 2"><g id="Text"><line class="cls-1" x1="1" y1="18.83" x2="35.69" y2="18.83"/><path class="cls-1" d="M11,18.83,11.75,4A3.21,3.21,0,0,1,15,1h6.61a3.21,3.21,0,0,1,3.2,3l.75,14.83"/><path class="cls-1" d="M7.37,18.85l.94-4.44a2,2,0,0,1,2-2h1"/><path class="cls-1" d="M29.32,18.85l-.94-4.44a2,2,0,0,0-2-2h-1"/><rect class="cls-1" x="3.13" y="18.85" width="30.42" height="3.61"/><polyline class="cls-1" points="31.25 22.46 31.25 33.51 29.32 33.51"/><polyline class="cls-1" points="5.44 22.46 5.44 33.51 7.37 33.51"/><line class="cls-1" x1="18.34" y1="25.14" x2="18.34" y2="33.41"/><polyline class="cls-1" points="22.43 33.65 22.43 30.69 14.25 30.69 14.25 33.65"/><rect class="cls-1" x="11.09" y="22.46" width="14.5" height="2.68" rx="1.34"/></g></g></svg>