<svg xmlns="http://www.w3.org/2000/svg" viewBox="0 0 40.4 49.87"><defs><style>.cls-1{fill:none;stroke:#59334d;stroke-linecap:round;stroke-linejoin:round;}.cls-2{fill:#59334d;}</style></defs><title>pdf-ic</title><g id="Layer_2" data-name="Layer 2"><g id="Cards"><path class="cls-1" d="M39.9,13.52V45.36a4,4,0,0,1-4,4H4.51a4,4,0,0,1-4-4V4.51a4,4,0,0,1,4-4H25.85v9a4,4,0,0,0,4,4h10l-14-13"/><path class="cls-2" d="M21.44,15.87a19.68,19.68,0,0,1-1.7,6.28A16.7,16.7,0,0,0,25,28.31c2.29-.53,4.64-1,7-.28a8.36,8.36,0,0,1,2.57,1.32c1.3,1,1,2.39-.53,2.94a7.93,7.93,0,0,1-4,.17,16.71,16.71,0,0,1-5.45-2.1c-2.93.74-5.84,1.56-8.76,2.33a.63.63,0,0,1-.39.29,52.6,52.6,0,0,1-3.61,5.46A5.06,5.06,0,0,1,9.44,40a2.15,2.15,0,0,1-2.66-2.79,6.26,6.26,0,0,1,2.69-3.27c1.27-.86,2.68-1.51,4-2.29a1.82,1.82,0,0,0,.76-.77c1.12-2.73,2.21-5.48,3.28-8.23a1.52,1.52,0,0,0-.07-.86c-.37-1.38-.89-2.74-1.13-4.14a6,6,0,0,1,2.77-6.15C20.84,12.47,21,14.25,21.44,15.87Zm-5,14.64,6-1.58-3.69-4.39Zm-4,3.76a9,9,0,0,0-3.63,2.94,2.24,2.24,0,0,0-.18.83c.3,0,.67,0,.89-.12A8.64,8.64,0,0,0,12.45,34.27Zm6.2-14.63c.85-2.07,1-4.4.27-5.54C17.79,15.87,18.05,17.64,18.65,19.64ZM32.93,30.56a6.65,6.65,0,0,0-5.2-.76A8.7,8.7,0,0,0,32.93,30.56Z"/></g></g></svg>