<svg xmlns="http://www.w3.org/2000/svg" viewBox="0 0 47.71 33.6"><defs><style>.cls-1{fill:none;stroke:#ef5241;stroke-linecap:round;stroke-linejoin:round;stroke-width:2px;}</style></defs><title>poverty-ic</title><g id="Layer_2" data-name="Layer 2"><g id="Text"><path class="cls-1" d="M29.41,22.67s-5.06,3.69-6.27,4.25-4-.19-9.74-.37c-4-.1-3.38-4.62-.1-4.53,1.5-.18,6.47.18,10.12-2.59,7.12-5.63,13.58-3.51,15-2.86l8.3.15M43.34,27.51s-5.78-.13-7.93,0-7,2.49-10.21,4.34-14.43-.09-15-.46S2,20.63,1.41,19.8s-.66-1.38.46-2.68a1.71,1.71,0,0,1,2.44-.18L11,23.07"/><circle class="cls-1" cx="13.25" cy="5.81" r="4.81"/></g></g></svg>