<svg xmlns="http://www.w3.org/2000/svg" viewBox="0 0 104.49 96.33"><defs><style>.cls-1{fill:#e6e6e6;opacity:0.4;}.cls-2{fill:none;stroke:#59334d;stroke-miterlimit:10;stroke-dasharray:3 3;opacity:0.3;}.cls-3{fill:#59334d;}</style></defs><title>question-ic</title><g id="Layer_2" data-name="Layer 2"><g id="characters"><circle class="cls-1" cx="56.83" cy="48.17" r="47.67"/><circle class="cls-2" cx="48.17" cy="48.17" r="47.67"/><path class="cls-3" d="M67.86,32.28q0,7-7.51,12.84L54,49.65q-3.94,3.15-4.83,6.29c-.33,1.21-1.34,1.81-3,1.81q-3.69,0-3.69-5.16T48,42.86Q53,38.66,53,34.8a6.84,6.84,0,0,0-1.3-4.28,4.52,4.52,0,0,0-3.9-1.93,4.41,4.41,0,0,0-3.82,2,7.17,7.17,0,0,0-1.26,4.28A9.93,9.93,0,0,0,43.91,40a7.9,7.9,0,0,1-4.74,1.43,10,10,0,0,1-5.79-1.77,7.34,7.34,0,0,1-3.32-4.82,9.64,9.64,0,0,1-.21-2q0-5.79,5.79-9.82A22.75,22.75,0,0,1,48.9,19.15,24.12,24.12,0,0,1,62,22.51Q67.86,26.2,67.86,32.28Z"/><path class="cls-3" d="M51.63,67.79a5.5,5.5,0,0,1-5.55,5.53,5.59,5.59,0,1,1,.11-11.18A5.52,5.52,0,0,1,51.63,67.79Z"/></g></g></svg>