<svg xmlns="http://www.w3.org/2000/svg" viewBox="0 0 40.09 22.64"><defs><style>.cls-1{fill:#ef5241;}</style></defs><title>religious-ic</title><g id="Layer_2" data-name="Layer 2"><g id="Layer_1-2" data-name="Layer 1"><path class="cls-1" d="M4,6.94a3.85,3.85,0,0,0-.53,2l-1-.16q-.93-.15-.93-.9a2.94,2.94,0,0,1,.37-1.25l.64-1.13.23.11L2.7,6a1.87,1.87,0,0,0-.08.38c0,.22.25.38.75.46ZM8.61,1.71A3,3,0,0,0,8.2,3.36c0,.05,0,.31,0,.79H7.48l.45,2.08a12.69,12.69,0,0,0,.29,1.24A2,2,0,0,1,7.48,9l-.2,0q0-1.29,0-1.38a11.39,11.39,0,0,0-.1-1.37L6.94,4.15H1.64a9.4,9.4,0,0,0,.1-1.42,7.53,7.53,0,0,0-.11-1.28l.19.06.11.65h.61L2.48.56H2.25V0h.57V.56H2.57l.07,1.6H8.15l.32-.55Zm6.94,1.57a3.34,3.34,0,0,1,.27,1.36q0,.6,0,1l-.3,3.19L15.18,9l-.45-3.51a1.81,1.81,0,0,0-.36-.9,1,1,0,0,0-.81-.44H9.43a2.24,2.24,0,0,0,.1-.68,4.1,4.1,0,0,0-.24-1.31h4.62a2,2,0,0,1,.68.16,1.8,1.8,0,0,1,1,1Zm8,2.92a7.82,7.82,0,0,0-.7,2.6h-6a3.17,3.17,0,0,0,.16-1,6.56,6.56,0,0,0-.09-1h5.31l-.13-2.66h-5A6.88,6.88,0,0,0,17,2.81c0-.25-.15-.68-.32-1.3l.1-.06.43.71h.4L17.48.56h-.21V0h.57V.56h-.25l.08,1.6h4.83l.2-.4.16.1a3.51,3.51,0,0,0-.31,1.61v.12l.13,3.22h.22l.42-.74Zm7.3-2h-1l.43,1.79.12.51c0,.29,0,.71-.06,1.28s-.07,1-.07,1.27H30a8.58,8.58,0,0,1-.69-2.49q0-.39.06-1.17c0-.52.06-.92.06-1.18h-1l-.15-1.58L27.2,1.22l-.39,1.05L27,4.15H26c.07.42.19,1,.35,1.84l.14.76c0,.26,0,.63-.06,1.13s-.06.87-.06,1.12l-.25,0a6.35,6.35,0,0,1-.58-2.23V4.15h-1a3.88,3.88,0,0,0,.06-.74A8.07,8.07,0,0,0,24.21,1l.16,0,.37,1.17h1.93l.61-1.4,1.27,1.4H30a.71.71,0,0,1,.57.3,1,1,0,0,1,.21.61ZM34,6.94a4,4,0,0,0-.53,2l-1-.16c-.63-.1-.94-.4-.94-.9a2.94,2.94,0,0,1,.37-1.25l.64-1.13.23.11L32.7,6a3.2,3.2,0,0,0-.08.38c0,.22.25.38.76.46Zm4.59-5.23a3.1,3.1,0,0,0-.41,1.65c0,.05,0,.31,0,.79h-.73l.45,2.08c.19.88.28,1.3.28,1.24A1.93,1.93,0,0,1,37.48,9l-.2,0c0-.86,0-1.32,0-1.38a11.73,11.73,0,0,0-.11-1.37L37,4.15H31.64a9.39,9.39,0,0,0,.11-1.42,6.62,6.62,0,0,0-.12-1.28l.2.06.1.65h.61L32.48.56h-.23V0h.58V.56h-.25l.07,1.6h5.51l.33-.55Z"/><path class="cls-1" d="M6.91,16.69a3.4,3.4,0,0,0,.16,1.06H6.14l.69,2.51a3.37,3.37,0,0,1,.1.66,2,2,0,0,1-.24.89,6.67,6.67,0,0,1-.47.78H6a8.63,8.63,0,0,0,.1-1.31c0-.11,0-.31,0-.61l-.31-2.92h-4A3.24,3.24,0,0,0,2,19.07c.25.57.39.89.41,1a2.9,2.9,0,0,1,.21,1,1.23,1.23,0,0,1-.45,1,1.63,1.63,0,0,1-1.07.38H0A3.68,3.68,0,0,0,.24,21l-.07-.56H1a.7.7,0,0,0,.37-.11A.34.34,0,0,0,1.56,20a4,4,0,0,0-.14-.91,4.51,4.51,0,0,1-.14-.9,1.71,1.71,0,0,1,.06-.43H.4a2.21,2.21,0,0,0,.25-1.1,2.82,2.82,0,0,0-.12-.89H7.07a2.68,2.68,0,0,0-.16.93Zm3.5.22A5.66,5.66,0,0,1,9.2,20.18L8.91,20a3.4,3.4,0,0,0,.6-1.85c0-.25-.18-.38-.52-.38H8.23L8,18.32l-.13,0A4,4,0,0,0,8,17.63a12.48,12.48,0,0,0-.25-2.53,4.09,4.09,0,0,1-.09-.71h.18l.26,1.37H9.31a1,1,0,0,1,.79.34A1.2,1.2,0,0,1,10.41,16.91Zm7.66-1.6a3.13,3.13,0,0,0-.43,1.75c0,.17,0,.4.05.69H17l.44,2.07c.06.22.11.43.16.63a2.88,2.88,0,0,1,.11.61A1.9,1.9,0,0,1,17,22.59h-.21c0-.12,0-.31,0-.56s0-.44,0-.57a14.79,14.79,0,0,0-.13-1.85c-.08-.62-.16-1.24-.25-1.85H11.13c0-.15,0-.37,0-.67s0-.53,0-.68a10.22,10.22,0,0,0-.1-1.35l.19,0,.1.66h.78l-.09-1.6h-.21l0-.56h.58v.56h-.24l.08,1.6h5.35l.31-.55Zm6.79,1.57a3.11,3.11,0,0,1,.28,1.35q0,.6,0,1l-.3,3.2-.31.17-.45-3.51a1.91,1.91,0,0,0-.36-.89,1,1,0,0,0-.81-.44H18.75a2.24,2.24,0,0,0,.1-.68,4.05,4.05,0,0,0-.24-1.31h4.62a1.83,1.83,0,0,1,.68.16,1.75,1.75,0,0,1,.95,1Zm7.43.87h-1l.43,1.78.13.52c0,.28,0,.71-.07,1.27s-.07,1-.07,1.27h-.25a8.46,8.46,0,0,1-.69-2.48c0-.26,0-.66.05-1.18s.06-.91.06-1.17h-1l-.15-1.59-1.05-1.34-.4,1,.17,1.89h-1c.07.41.19,1,.35,1.84l.14.76c0,.25,0,.63-.06,1.13s-.06.87-.06,1.11l-.25.05A6.64,6.64,0,0,1,27,20.41V17.75h-1a4.06,4.06,0,0,0,.06-.75,8,8,0,0,0-.44-2.39l.16,0,.37,1.17h1.94l.6-1.4L30,15.76h1.4a.7.7,0,0,1,.57.3,1.12,1.12,0,0,1,.22.61Zm3.2,2.78a4,4,0,0,0-.53,2l-1-.16c-.62-.1-.94-.39-.94-.89a3,3,0,0,1,.38-1.25L34,19.09l.23.1-.1.4a2.54,2.54,0,0,0-.08.38c0,.22.26.38.76.46Zm4.6-5.22A3,3,0,0,0,39.67,17s0,.31,0,.79H39l.45,2.08c.19.88.29,1.29.29,1.24A1.9,1.9,0,0,1,39,22.6h-.19q0-1.29,0-1.38a9.88,9.88,0,0,0-.11-1.37l-.26-2.09h-5.3a11.07,11.07,0,0,0,.1-1.43,6.52,6.52,0,0,0-.12-1.27l.2,0,.1.66H34l0-1.6h-.23l0-.56h.58v.56h-.24l.07,1.6h5.51l.32-.55Z"/></g></g></svg>