<svg xmlns="http://www.w3.org/2000/svg" viewBox="0 0 39.42 27.76"><defs><style>.cls-1{fill:none;stroke:#ef5241;stroke-linecap:round;stroke-linejoin:round;stroke-width:2px;}</style></defs><title>religious-ic</title><g id="Layer_2" data-name="Layer 2"><g id="Text"><path class="cls-1" d="M24.59,26.76s.26-7.14-7.39-6.17l-2-3M18,7.42c.24-2,.2-5.13-2.27-6s-3.74,0-6.15.52A3.23,3.23,0,0,0,6.75,4.3V7.35S5.54,8.2,5.44,8.72a3.65,3.65,0,0,0,.29,2.72c.65,1,1,.72,1,.72h0c.29,3.6,2.68,6.42,5.59,6.42S17.65,15.79,18,12.2c0,0,1.07-.11,1.21-1.8S19,7.61,18,7.42ZM1,26.76s-.26-7.14,7.39-6.17L9.88,18"/><path class="cls-1" d="M26.9,1.05a5.27,5.27,0,0,1,2.68.33c2.45.91,2.5,4.08,2.26,6,1,.19,1.27,1.29,1.17,3a2.15,2.15,0,0,1-1.21,1.8h0a7.36,7.36,0,0,1-2.41,5.53l1.67,2.86c7.61-1,7.36,6.17,7.36,6.17"/><path class="cls-1" d="M20.22,1.05a5.28,5.28,0,0,1,2.68.33c2.45.91,2.49,4.08,2.26,6,1,.19,1.27,1.29,1.17,3a2.15,2.15,0,0,1-1.21,1.8h0a7.4,7.4,0,0,1-2.41,5.53l1.67,2.86c7.61-1,7.35,6.17,7.35,6.17"/><path class="cls-1" d="M8.52,20.9S10,24,12.8,24s4.28-3.14,4.28-3.14"/></g></g></svg>