<svg xmlns="http://www.w3.org/2000/svg" viewBox="0 0 45.48 45.48"><defs><style>.cls-1{fill:#43263a;}.cls-2{fill:#fff;}</style></defs><title>selected-langu</title><g id="Layer_2" data-name="Layer 2"><g id="overlay"><circle class="cls-1" cx="22.74" cy="22.74" r="22.74"/><path class="cls-2" d="M20.65,25.55v1.73h-7.6V25.55h4.22V21c0-.78-.36-1.17-1.09-1.17H13.05V18.15h3.77a2.76,2.76,0,0,1,2,.72,3.11,3.11,0,0,1,.74,2.28v4.4Z"/><path class="cls-2" d="M29.67,18.15a36.83,36.83,0,0,1-.25,4.8,5,5,0,0,1-1.22,2.74A5.57,5.57,0,0,1,25,27.23l-3.42.68-.32-1.81,2.54-.48L22,18.15h2.3l1.62,7a2.14,2.14,0,0,0,1-1.08,5.32,5.32,0,0,0,.39-1.74c.05-.68.07-1.72.07-3.1v-1Z"/><polygon class="cls-2" points="40.36 21.25 34.39 21.25 37.38 24.23 40.36 21.25"/></g></g></svg>