<?xml version="1.0" encoding="utf-8"?>
<!-- Generator: Adobe Illustrator 23.0.6, SVG Export Plug-In . SVG Version: 6.00 Build 0)  -->
<svg version="1.1" id="Layer_1" xmlns="http://www.w3.org/2000/svg" xmlns:xlink="http://www.w3.org/1999/xlink" x="0px" y="0px"
	 viewBox="0 0 360 360" style="enable-background:new 0 0 360 360;" xml:space="preserve">
<style type="text/css">
	.st0{fill:#59334D;}
	.st1{fill:#FFFFFF;}
	.st2{fill:none;}
</style>
<rect x="404" y="401" class="st0" width="360" height="360"/>
<title>landingpage-logo</title>
<g>
	<g id="logos_1_">
		<path class="st0" d="M196.1,543.9c11,0.3,14.8,3.9,13.3,14.7l0.2,111.8c0.2,15.3,5,22.2,21.3,15.4c3.1-1.3,5.9-3.2,9.1-4.1
			c1.9-0.6,5.3-0.7,6.2,0.4c1.3,2,1.6,4.4,0.8,6.6c-2.1,3.6-4.7,6.8-7.8,9.6c-15.3,13.8-35.8,15.8-55.4,14.3
			c-12.5-1-21.9-5.8-28.6-16.2c-4-6.1-4.4-20.2-4.4-20.2l-0.2-98.6c1.5-8.8-4.4-17-13.2-18.5c-0.8-0.1-1.5-0.2-2.3-0.2
			c-1.2,0-2.4-0.1-3.6-0.2c-4-1-7-3-6.7-7.6c0.3-4.6,3.7-6.3,7.7-6.5C139.9,544.1,186.1,543.7,196.1,543.9z"/>
		<path class="st0" d="M206.1,482.2c0.1,17.1-13.7,31.1-30.8,31.2c-0.2,0-0.3,0-0.5,0c-17.3-0.2-31.2-14.3-31.3-31.6
			c0.1-17.5,14.4-31.6,31.8-31.5c0,0,0,0,0.1,0c17.2,0.2,30.9,14.3,30.7,31.5C206.1,482,206.1,482.1,206.1,482.2z"/>
		<path class="st0" d="M196.1,543.9c11,0.3,14.8,3.9,13.3,14.7l0.2,111.8c0.2,15.3,5,22.2,21.3,15.4c3.1-1.3,5.9-3.2,9.1-4.1
			c1.9-0.6,5.3-0.7,6.2,0.4c1.3,2,1.6,4.4,0.8,6.6c-2.1,3.6-4.7,6.8-7.8,9.6c-15.3,13.8-35.8,15.8-55.4,14.3
			c-12.5-1-21.9-5.8-28.6-16.2c-4-6.1-4.4-20.2-4.4-20.2l-0.2-98.6c1.5-8.8-4.4-17-13.2-18.5c-0.8-0.1-1.5-0.2-2.3-0.2
			c-1.2,0-2.4-0.1-3.6-0.2c-4-1-7-3-6.7-7.6c0.3-4.6,3.7-6.3,7.7-6.5C139.9,544.1,186.1,543.7,196.1,543.9z"/>
	</g>
</g>
<rect x="404" class="st0" width="360" height="360"/>
<g>
	<g id="logos_3_">
		<path class="st0" d="M280.9,124.6c4.4,0.1,5.9,1.6,5.3,5.9l0.1,44.7c0.1,6.1,2,8.9,8.5,6.2c1.2-0.5,2.4-1.3,3.6-1.7
			c0.8-0.2,2.1-0.3,2.5,0.2c0.5,0.8,0.6,1.8,0.3,2.7c-0.8,1.4-1.9,2.7-3.1,3.8c-6.1,5.5-14.3,6.3-22.2,5.7c-5-0.4-8.8-2.3-11.5-6.5
			c-1.6-2.5-1.8-8.1-1.8-8.1l-0.1-39.4c0.6-3.5-1.8-6.8-5.3-7.4c-0.3-0.1-0.6-0.1-0.9-0.1c-0.5,0-1,0-1.5-0.1
			c-1.6-0.4-2.8-1.2-2.7-3.1c0.1-1.9,1.5-2.5,3.1-2.6C258.3,124.6,276.9,124.5,280.9,124.6z"/>
		<path class="st0" d="M284.9,99.9c0,6.9-5.5,12.4-12.3,12.5c-0.1,0-0.1,0-0.2,0c-6.9-0.1-12.5-5.7-12.5-12.6
			c0-7,5.7-12.6,12.7-12.6c0,0,0,0,0,0c6.9,0.1,12.4,5.7,12.3,12.6C284.9,99.8,284.9,99.8,284.9,99.9z"/>
		<path class="st0" d="M188.8,225.6c0,2.6-2.1,4.7-4.6,4.7c0,0-0.1,0-0.1,0c-2.6,0-4.7-2.2-4.7-4.8c0-2.6,2.2-4.7,4.8-4.7
			C186.7,220.8,188.8,222.9,188.8,225.6C188.8,225.6,188.8,225.6,188.8,225.6z"/>
		<path class="st0" d="M104.8,188.4l-18.5,2.8v-46.7c0-1.6-0.7-2.4-2-2.4H67.7v48H37.6l3.7-16.4h8.1v-26.4l5.7-4.3
			c0.3-0.2,0.4-0.4,0.3-0.5c-0.1-0.2-0.1-0.3-0.4-0.3H44.5v-16.4h40.2c13.4,0,20.2,6.9,20.2,20.8V188.4z"/>
		<path class="st0" d="M179,128.4l-5.4,28.8c-1.6,8.4-4.9,15.2-9.9,20.3s-12,9.3-21.1,12.5l-30.4,10.6l3.2-18l15.5-5.6l-8.8-34.3
			c-0.1-0.5-0.5-0.8-1.2-0.8h-6.5v-16.2h20.6c1.8,0,3,1,3.3,3l7.5,36.5l-5,7.4c-0.2,0.2-0.2,0.4-0.1,0.7c0.2,0.1,0.4,0,0.7-0.1
			l1.8-0.8c7.1-3,11.1-7.7,12.2-14.2l2.8-16.1h-6.9v-16.4h25.4C178.5,125.7,179.3,126.6,179,128.4z"/>
		<path class="st0" d="M243.5,140.1l-8.5,2.8c-1.9,0.7-2.8,1.8-2.8,3.5v41.5l-18.4,3.3v-42.6l6.7-5.7c0.6-0.5,0.6-0.7-0.1-0.7h-33.7
			v-16.4h56.7V140.1z"/>
		<path class="st0" d="M322.4,162.5l-18.4,3.4v-22.5c0-0.9-0.4-1.3-1.1-1.3h-5.6v-16.4h15.3c6.5,0,9.8,3.4,9.8,10.2V162.5z"/>
		<path class="st0" d="M38.4,233v-4.7h0.3c0.3,1.2,0.9,2.3,1.8,3.2c0.8,0.6,1.8,0.9,2.9,0.9c1.8,0,2.7-0.6,2.7-1.7
			c0-0.5-0.2-0.9-0.7-1.1c-0.8-0.4-1.7-0.7-2.6-0.9c-1.1-0.3-2.1-0.7-3-1.2c-1-0.7-1.5-1.8-1.4-3c-0.1-1.2,0.4-2.4,1.2-3.2
			c0.9-0.8,2.1-1.2,3.4-1.1c0.9,0,1.8,0.2,2.6,0.6c0.2,0.1,0.5,0.2,0.8,0.2c0.2,0,0.3-0.1,0.4-0.2c0.2-0.2,0.3-0.4,0.4-0.7h0.3v4
			h-0.3c-0.9-2.3-2.3-3.4-4.1-3.4c-0.6,0-1.3,0.1-1.8,0.4c-0.4,0.2-0.6,0.6-0.6,1.1c0,0.2,0.1,0.4,0.2,0.6c0.1,0.1,0.2,0.2,0.3,0.3
			c0.1,0.1,0.2,0.2,0.3,0.2c0.2,0.1,0.3,0.1,0.4,0.2l0.5,0.2c0.2,0.1,0.3,0.1,0.5,0.1c0.9,0.2,1.7,0.5,2.6,0.8
			c0.5,0.2,1,0.5,1.5,0.8c1,0.7,1.5,2,1.4,3.2c0.1,1.3-0.4,2.5-1.3,3.3c-1,0.8-2.3,1.2-3.6,1.1c-1.1,0-2.2-0.3-3.1-0.8
			c-0.1-0.1-0.3-0.2-0.5-0.2c-0.4,0-0.8,0.3-1.1,1L38.4,233z"/>
		<path class="st0" d="M49.6,213.2h6.3v9.6c0.2-0.8,0.7-1.4,1.3-1.9c0.8-0.5,1.7-0.8,2.6-0.7c2.7,0,4,1.5,4,4.4v7.9h1.5v0.5h-7.3
			v-0.5h1.1v-8.5c0-0.7,0-1.3-0.2-2c-0.1-0.3-0.4-0.5-0.8-0.4c-0.7,0.1-1.2,0.5-1.5,1.1c-0.4,0.8-0.7,1.7-0.6,2.7v7.2H57v0.5h-7.4
			v-0.5H51v-18.7h-1.4V213.2z"/>
		<path class="st0" d="M67.9,231.3c-1.2-1.3-1.8-3.1-1.7-4.8c-0.1-1.8,0.6-3.5,1.9-4.7c1.4-1.1,3.1-1.7,4.8-1.6c4,0,5.9,2,5.7,5.9
			h-7.4v1c-0.1,1.3,0.2,2.6,0.7,3.9c0.4,0.9,1.3,1.4,2.3,1.3c2,0,3.3-1.1,4-3.2l0.5,0.1c-0.3,1.1-0.9,2.2-1.8,2.9
			c-1.1,0.8-2.5,1.1-3.9,1C71.1,233.2,69.3,232.5,67.9,231.3z M71.2,225.5h2.7v-1.3c0-1,0-1.9-0.2-2.9c-0.1-0.5-0.5-0.8-1-0.8
			c-0.5,0-0.9,0.3-1.1,0.8c-0.3,0.9-0.4,1.9-0.4,2.8L71.2,225.5z"/>
		<path class="st0" d="M93.6,232.8v-0.5h1.2l-3-6.1l-0.5,0.1v5.9h1.2v0.5h-7.5v-0.5h1.4v-18.6H85v-0.5h6.4v12.6l0.4-0.2l5.9-4.9
			h-2.4v-0.5h5.1v0.5h-1.8l-3.1,2.6l4.5,8.9h0.9v0.5H93.6z"/>
		<path class="st0" d="M101.7,220.4h6.3v2.4c0.2-0.7,0.7-1.4,1.3-1.9c0.8-0.5,1.7-0.8,2.6-0.7c2.7,0,4,1.5,4,4.4v7.9h1.5v0.5H110
			v-0.5h1.1v-8.5c0-0.7,0-1.3-0.2-2c-0.1-0.3-0.4-0.5-0.8-0.4c-0.6,0-1,0.4-1.5,1.1c-0.4,0.8-0.7,1.7-0.6,2.7v7.2h1.1v0.5h-7.4v-0.5
			h1.4v-11.5h-1.4V220.4z"/>
		<path class="st0" d="M120,231.4c-1.2-1.3-1.8-3-1.7-4.8c-0.1-1.8,0.5-3.5,1.8-4.8c1.4-1.2,3.2-1.8,5-1.7c1.8-0.1,3.5,0.4,4.8,1.6
			c1.2,1.3,1.7,3,1.6,4.7c0,4.4-2.2,6.7-6.6,6.7C123.1,233.2,121.4,232.6,120,231.4z M126.6,227.6v-2.2c0-1.2-0.1-2.5-0.3-3.7
			c-0.2-0.8-0.6-1.2-1.3-1.2c-0.3,0-0.7,0.1-0.9,0.3c-0.3,0.3-0.4,0.7-0.5,1.1c-0.2,1.2-0.3,2.4-0.2,3.6v2c0,1.1,0,2.3,0.2,3.4
			c0.1,0.3,0.2,0.6,0.3,0.9c0.2,0.4,0.7,0.7,1.1,0.6c0.7,0,1.3-0.5,1.3-1.2C126.5,230.1,126.6,228.9,126.6,227.6z"/>
		<path class="st0" d="M140.9,220.8v-0.5h6.7v0.5h-1l2.3,8.8l2.3-8.8h-1.8v-0.5h3.5v0.5h-1.1l-3.1,12h-3.6l-2.3-8l-2.4,8h-3.5
			l-3.9-12h-1.2v-0.5h7.9v0.5h-1.6l2.4,8.9l1.9-6.1l-0.7-2.8H140.9z"/>
		<path class="st0" d="M153.6,233v-4.7h0.3c0.3,1.2,0.9,2.3,1.8,3.2c0.8,0.6,1.8,0.9,2.9,0.9c1.8,0,2.7-0.6,2.7-1.7
			c0-0.5-0.2-0.9-0.7-1.1c-0.8-0.4-1.7-0.7-2.6-0.9c-1.1-0.3-2.1-0.7-3-1.2c-1-0.7-1.5-1.8-1.4-3c-0.1-1.2,0.4-2.4,1.3-3.2
			c0.9-0.8,2.1-1.2,3.4-1.1c0.9,0,1.8,0.2,2.6,0.6c0.2,0.1,0.5,0.2,0.8,0.2c0.2,0,0.3-0.1,0.4-0.2c0.2-0.2,0.3-0.4,0.4-0.7h0.3v4
			h-0.3c-0.9-2.3-2.3-3.4-4.1-3.4c-0.6,0-1.3,0.1-1.8,0.4c-0.4,0.2-0.6,0.6-0.6,1.1c0,0.2,0.1,0.4,0.2,0.6c0.1,0.1,0.2,0.2,0.3,0.3
			c0.1,0.1,0.2,0.2,0.3,0.2l0.4,0.2l0.5,0.2c0.2,0.1,0.3,0.1,0.5,0.1c0.9,0.2,1.7,0.5,2.6,0.8c0.5,0.2,1,0.5,1.5,0.8
			c1,0.7,1.5,1.9,1.4,3.2c0.1,1.3-0.4,2.5-1.3,3.3c-1,0.8-2.3,1.2-3.6,1.1c-1.1,0-2.2-0.3-3.1-0.8c-0.1-0.1-0.3-0.2-0.5-0.2
			c-0.4,0-0.8,0.3-1.1,1L153.6,233z"/>
		<path class="st0" d="M226.7,230.6c0,0.6-0.1,1.1-0.3,1.6c-0.2,0.7-0.6,1.1-1.1,1.1h-20.3c-0.5,0-1-0.2-1.3-0.6
			c-0.4-0.3-0.6-0.7-0.6-1.2v-2.7c0-1,0.5-1.9,1.4-2.4l2.8-1.6v4.3h15.2v-2.7h-3.6c-0.9,0-1.8-0.4-2.4-1.2c-0.6-0.7-0.9-1.7-0.9-2.6
			c0-1,0.3-2.1,1-2.9c0.8-0.9,2-1.3,3.1-1.2c0.3,0,0.8,0,1.4,0.1s1.1,0.1,1.5,0.1c1.5,0.1,3-0.5,4.1-1.6V230.6z M222.5,223.6v-2.2
			h-2.2c-0.8,0-1.2,0.4-1.2,1.2s0.4,1,1.1,1H222.5z M223.5,214.1c0,0.4-0.1,0.7-0.4,1c-0.3,0.3-0.7,0.4-1.1,0.4
			c-0.8,0-1.4-0.6-1.4-1.3c0,0,0-0.1,0-0.1c0-0.4,0.1-0.7,0.4-1c0.3-0.3,0.6-0.4,1-0.4c0.4,0,0.8,0.1,1.1,0.4
			C223.3,213.3,223.4,213.7,223.5,214.1L223.5,214.1z"/>
		<path class="st0" d="M242.2,233.3h-4.7v2c0,2.3-1.8,4.1-4.1,4.2c0,0-0.1,0-0.1,0c-1.2,0-2.3-0.4-3.1-1.2c-0.9-0.8-1.4-1.8-1.5-3
			h4.6v-6.1c-0.1-1.1,0.3-2.1,1.1-2.8c0.1-0.1,1.1-0.6,3-1.6v4.3h4.7L242.2,233.3z"/>
		<path class="st0" d="M258.4,233.3h-21.2l2.5-4.2h6.5c-0.7-1.1-1.1-2.4-1.3-3.8c0-1,0.4-2,1.2-2.7c0.8-0.7,1.8-1,2.8-1
			c0.3,0,0.8,0,1.4,0s1.1,0.1,1.4,0.1c1.9,0,2.9-0.2,3.1-0.5l1.1-1.5v6.1h-6.4c-0.4,0-0.5,0.2-0.5,0.6c0,0.7,0.3,1.3,0.8,1.8
			c0.4,0.5,1,0.9,1.7,0.9h6.9V233.3z"/>
		<path class="st0" d="M270.2,231.5c0,0.5-0.3,0.9-0.6,1.2c-0.3,0.3-0.8,0.6-1.3,0.6h-15l2.5-4.2h10.8c-0.1-1.4,0-2.7,0.4-4.1
			c0.9-1,2-1.8,3.2-2.5L270.2,231.5z M263.2,217.8c0,0.8-0.6,1.4-1.4,1.4c-0.8,0-1.4-0.6-1.4-1.4c0-0.4,0.1-0.7,0.4-1
			c0.6-0.5,1.5-0.5,2.1,0C263.1,217.1,263.2,217.5,263.2,217.8L263.2,217.8z M269.4,217.8c0,0.4-0.1,0.7-0.4,1
			c-0.3,0.3-0.6,0.4-1,0.4c-0.8,0-1.4-0.7-1.4-1.5c0-0.4,0.2-0.7,0.4-1c0.3-0.3,0.6-0.4,1-0.4c0.4,0,0.7,0.1,1,0.4
			C269.2,217.1,269.4,217.4,269.4,217.8L269.4,217.8z"/>
		<path class="st0" d="M305.2,233.3H299v-7.6c-0.4-0.1-0.7-0.2-1.1-0.2c-1.7,0.1-3.1,1.4-3.1,3.1v0.2c0,0.1,0,0.1,0,0.2v5.7
			c0,1.5-0.8,2.8-2.5,4.1c-2.8,2.2-6.8,2.3-9.6,0.1c-1.4-1-2.3-2.7-2.2-4.5c0-2,1-3.8,2.6-5c0.3-0.3,0.6-0.5,1-0.7l0,0v4.9
			c0,0.8,0.5,1.6,1.2,2c1.5,0.8,3.4,0.8,4.9-0.1c0.8-0.5,1.2-1.5,1.2-3c0-0.6,0-3,0-3c-0.1-1.1,0.1-2.3,0.4-3.4
			c0.5-1.3,1.3-2.4,2.3-3.3c0.7-0.6,1.6-0.9,2.5-1l2.9-0.3c1.2-0.3,2.3-0.9,3.2-1.8v9.3h2.5L305.2,233.3z M287.2,243.6
			c0,0.9-0.5,1.3-1.4,1.3c-1,0-1.5-0.4-1.5-1.3s0.5-1.3,1.5-1.3S287.2,242.8,287.2,243.6L287.2,243.6z M293.8,243.6
			c0,0.9-0.5,1.3-1.4,1.3s-1.5-0.4-1.5-1.3s0.5-1.3,1.5-1.3S293.8,242.8,293.8,243.6L293.8,243.6z"/>
		<path class="st0" d="M322.4,231.5c0,0.5-0.3,0.9-0.6,1.2c-0.3,0.4-0.8,0.6-1.3,0.6h-20.4l2.5-4.2h4.2c0.3-1.7,1-3.3,2.1-4.6
			c1.1-1.3,2.4-2.3,4-3c-0.1-1.2,0.2-2.3,0.8-3.3c0.9-0.8,1.8-1.6,2.8-2.4v5.6c1.8,0,3.5,0.9,4.5,2.4c1,1.5,1.4,3.3,1.4,5.1
			L322.4,231.5z M313,229.1v-3.6c-0.7,0.3-1.3,0.8-1.8,1.4c-0.4,0.7-0.6,1.4-0.8,2.2H313z M318.9,228.3c0.1-0.7-0.1-1.4-0.5-1.9
			c-0.5-0.5-1.1-0.8-1.8-0.8v3.5h2.3C318.9,228.8,318.9,228.6,318.9,228.3L318.9,228.3z"/>
		<path class="st0" d="M280.9,124.6c4.4,0.1,5.9,1.6,5.3,5.9l0.1,44.7c0.1,6.1,2,8.9,8.5,6.2c1.2-0.5,2.4-1.3,3.6-1.7
			c0.8-0.2,2.1-0.3,2.5,0.2c0.5,0.8,0.6,1.8,0.3,2.7c-0.8,1.4-1.9,2.7-3.1,3.8c-6.1,5.5-14.3,6.3-22.2,5.7c-5-0.4-8.8-2.3-11.5-6.5
			c-1.6-2.5-1.8-8.1-1.8-8.1l-0.1-39.4c0.6-3.5-1.8-6.8-5.3-7.4c-0.3-0.1-0.6-0.1-0.9-0.1c-0.5,0-1,0-1.5-0.1
			c-1.6-0.4-2.8-1.2-2.7-3.1c0.1-1.9,1.5-2.5,3.1-2.6C258.3,124.6,276.9,124.5,280.9,124.6z"/>
	</g>
</g>
<g>
	<g id="logos_2_">
		<path class="st1" d="M684.9,124.6c4.4,0.1,5.9,1.6,5.3,5.9l0.1,44.7c0.1,6.1,2,8.9,8.5,6.2c1.2-0.5,2.4-1.3,3.6-1.7
			c0.8-0.2,2.1-0.3,2.5,0.2c0.5,0.8,0.6,1.8,0.3,2.7c-0.8,1.4-1.9,2.7-3.1,3.8c-6.1,5.5-14.3,6.3-22.2,5.7c-5-0.4-8.8-2.3-11.5-6.5
			c-1.6-2.5-1.8-8.1-1.8-8.1l-0.1-39.4c0.6-3.5-1.8-6.8-5.3-7.4c-0.3-0.1-0.6-0.1-0.9-0.1c-0.5,0-1,0-1.5-0.1
			c-1.6-0.4-2.8-1.2-2.7-3.1c0.1-1.9,1.5-2.5,3.1-2.6C662.3,124.6,680.9,124.5,684.9,124.6z"/>
		<path class="st1" d="M688.9,99.9c0,6.9-5.5,12.4-12.3,12.5c-0.1,0-0.1,0-0.2,0c-6.9-0.1-12.5-5.7-12.5-12.6
			c0-7,5.7-12.6,12.7-12.6c0,0,0,0,0,0c6.9,0.1,12.4,5.7,12.3,12.6C688.9,99.8,688.9,99.8,688.9,99.9z"/>
		<path class="st1" d="M592.8,225.6c0,2.6-2.1,4.7-4.6,4.7c0,0-0.1,0-0.1,0c-2.6,0-4.7-2.2-4.7-4.8c0-2.6,2.2-4.7,4.8-4.7
			C590.7,220.8,592.8,222.9,592.8,225.6C592.8,225.6,592.8,225.6,592.8,225.6z"/>
		<path class="st1" d="M508.8,188.4l-18.5,2.8v-46.7c0-1.6-0.7-2.4-2-2.4h-16.7v48h-30.1l3.7-16.4h8.1v-26.4l5.7-4.3
			c0.3-0.2,0.4-0.4,0.3-0.5c-0.1-0.2-0.1-0.3-0.4-0.3h-10.5v-16.4h40.2c13.4,0,20.2,6.9,20.2,20.8V188.4z"/>
		<path class="st1" d="M583,128.4l-5.4,28.8c-1.6,8.4-4.9,15.2-9.9,20.3s-12,9.3-21.1,12.5l-30.4,10.6l3.2-18l15.5-5.6l-8.8-34.3
			c-0.1-0.5-0.5-0.8-1.2-0.8h-6.5v-16.2h20.6c1.8,0,3,1,3.3,3l7.5,36.5l-5,7.4c-0.2,0.2-0.2,0.4-0.1,0.7c0.2,0.1,0.4,0,0.7-0.1
			l1.8-0.8c7.1-3,11.1-7.7,12.2-14.2l2.8-16.1h-6.9v-16.4h25.4C582.5,125.7,583.3,126.6,583,128.4z"/>
		<path class="st1" d="M647.5,140.1l-8.5,2.8c-1.9,0.7-2.8,1.8-2.8,3.5v41.5l-18.4,3.3v-42.6l6.7-5.7c0.6-0.5,0.6-0.7-0.1-0.7h-33.7
			v-16.4h56.7V140.1z"/>
		<path class="st1" d="M726.4,162.5l-18.4,3.4v-22.5c0-0.9-0.4-1.3-1.1-1.3h-5.6v-16.4h15.3c6.5,0,9.8,3.4,9.8,10.2V162.5z"/>
		<path class="st1" d="M442.4,233v-4.7h0.3c0.3,1.2,0.9,2.3,1.8,3.2c0.8,0.6,1.8,0.9,2.9,0.9c1.8,0,2.7-0.6,2.7-1.7
			c0-0.5-0.2-0.9-0.6-1.1c-0.8-0.4-1.7-0.7-2.6-0.9c-1.1-0.3-2.1-0.7-3-1.2c-1-0.7-1.5-1.8-1.4-3c-0.1-1.2,0.4-2.4,1.2-3.2
			c0.9-0.8,2.1-1.2,3.4-1.1c0.9,0,1.8,0.2,2.6,0.6c0.2,0.1,0.5,0.2,0.8,0.2c0.2,0,0.3-0.1,0.4-0.2c0.2-0.2,0.3-0.4,0.4-0.7h0.3v4
			h-0.3c-0.9-2.3-2.3-3.4-4.1-3.4c-0.6,0-1.3,0.1-1.8,0.4c-0.4,0.2-0.6,0.6-0.6,1.1c0,0.2,0.1,0.4,0.2,0.6c0.1,0.1,0.2,0.2,0.3,0.3
			c0.1,0.1,0.2,0.2,0.3,0.2c0.1,0.1,0.3,0.1,0.4,0.2l0.5,0.2c0.2,0.1,0.3,0.1,0.5,0.1c0.9,0.2,1.7,0.5,2.6,0.8
			c0.5,0.2,1,0.5,1.5,0.8c1,0.7,1.5,2,1.4,3.2c0.1,1.3-0.4,2.5-1.3,3.3c-1,0.8-2.3,1.2-3.6,1.1c-1.1,0-2.2-0.3-3.1-0.8
			c-0.1-0.1-0.3-0.2-0.5-0.2c-0.4,0-0.8,0.3-1.1,1L442.4,233z"/>
		<path class="st1" d="M453.6,213.2h6.3v9.6c0.2-0.8,0.7-1.4,1.3-1.9c0.8-0.5,1.7-0.8,2.6-0.7c2.7,0,4,1.5,4,4.4v7.9h1.5v0.5h-7.3
			v-0.5h1.1v-8.5c0-0.7,0-1.3-0.2-2c-0.1-0.3-0.4-0.5-0.8-0.4c-0.7,0.1-1.2,0.5-1.5,1.1c-0.4,0.8-0.7,1.7-0.6,2.7v7.2h1.1v0.5h-7.4
			v-0.5h1.4v-18.7h-1.4V213.2z"/>
		<path class="st1" d="M471.9,231.3c-1.2-1.3-1.8-3.1-1.7-4.8c-0.1-1.8,0.6-3.5,1.9-4.7c1.4-1.1,3.1-1.7,4.8-1.6c4,0,5.9,2,5.7,5.9
			h-7.4v1c-0.1,1.3,0.2,2.6,0.6,3.9c0.4,0.9,1.3,1.4,2.3,1.3c2,0,3.3-1.1,4-3.2l0.5,0.1c-0.3,1.1-0.9,2.2-1.8,2.9
			c-1.1,0.8-2.5,1.1-3.9,1C475.1,233.2,473.3,232.5,471.9,231.3z M475.2,225.5h2.7v-1.3c0-1,0-1.9-0.2-2.9c-0.1-0.5-0.5-0.8-1-0.8
			c-0.5,0-0.9,0.3-1.1,0.8c-0.3,0.9-0.4,1.9-0.4,2.8L475.2,225.5z"/>
		<path class="st1" d="M497.6,232.8v-0.5h1.2l-2.9-6.1l-0.5,0.1v5.9h1.2v0.5h-7.5v-0.5h1.4v-18.6H489v-0.5h6.4v12.6l0.4-0.2l5.9-4.9
			h-2.5v-0.5h5.1v0.5h-1.8l-3.1,2.6l4.5,8.9h0.9v0.5H497.6z"/>
		<path class="st1" d="M505.7,220.4h6.3v2.4c0.2-0.7,0.7-1.4,1.3-1.9c0.8-0.5,1.7-0.8,2.6-0.7c2.7,0,4,1.5,4,4.4v7.9h1.5v0.5H514
			v-0.5h1.1v-8.5c0-0.7,0-1.3-0.2-2c-0.1-0.3-0.4-0.5-0.8-0.4c-0.5,0-1,0.4-1.5,1.1c-0.4,0.8-0.7,1.7-0.6,2.7v7.2h1.1v0.5h-7.4v-0.5
			h1.4v-11.5h-1.4V220.4z"/>
		<path class="st1" d="M524,231.4c-1.2-1.3-1.8-3-1.7-4.8c-0.1-1.8,0.5-3.5,1.8-4.8c1.4-1.2,3.2-1.8,5-1.7c1.8-0.1,3.5,0.4,4.8,1.6
			c1.2,1.3,1.7,3,1.6,4.7c0,4.4-2.2,6.7-6.6,6.7C527.1,233.2,525.4,232.6,524,231.4z M530.6,227.6v-2.2c0-1.2-0.1-2.5-0.3-3.7
			c-0.2-0.8-0.6-1.2-1.3-1.2c-0.3,0-0.7,0.1-0.9,0.3c-0.3,0.3-0.4,0.7-0.5,1.1c-0.2,1.2-0.3,2.4-0.2,3.6v2c0,1.1,0,2.3,0.2,3.4
			c0.1,0.3,0.2,0.6,0.3,0.9c0.2,0.4,0.7,0.7,1.1,0.6c0.7,0,1.3-0.5,1.3-1.2C530.5,230.1,530.6,228.9,530.6,227.6z"/>
		<path class="st1" d="M544.9,220.8v-0.5h6.7v0.5h-1l2.3,8.8l2.3-8.8h-1.8v-0.5h3.5v0.5h-1.1l-3.1,12h-3.6l-2.3-8l-2.5,8h-3.5
			l-3.9-12h-1.2v-0.5h7.9v0.5h-1.6l2.4,8.9l1.9-6.1l-0.7-2.8H544.9z"/>
		<path class="st1" d="M557.6,233v-4.7h0.3c0.3,1.2,0.9,2.3,1.8,3.2c0.8,0.6,1.8,0.9,2.9,0.9c1.8,0,2.7-0.6,2.7-1.7
			c0-0.5-0.2-0.9-0.7-1.1c-0.8-0.4-1.7-0.7-2.6-0.9c-1.1-0.3-2.1-0.7-3-1.2c-1-0.7-1.5-1.8-1.4-3c-0.1-1.2,0.4-2.4,1.3-3.2
			c0.9-0.8,2.1-1.2,3.4-1.1c0.9,0,1.8,0.2,2.6,0.6c0.2,0.1,0.5,0.2,0.8,0.2c0.2,0,0.3-0.1,0.4-0.2c0.2-0.2,0.3-0.4,0.5-0.7h0.3v4
			h-0.3c-0.9-2.3-2.3-3.4-4.1-3.4c-0.6,0-1.3,0.1-1.8,0.4c-0.4,0.2-0.6,0.6-0.6,1.1c0,0.2,0.1,0.4,0.2,0.6c0.1,0.1,0.2,0.2,0.3,0.3
			c0.1,0.1,0.2,0.2,0.3,0.2l0.4,0.2l0.5,0.2c0.2,0.1,0.3,0.1,0.5,0.1c0.9,0.2,1.7,0.5,2.6,0.8c0.5,0.2,1,0.5,1.5,0.8
			c1,0.7,1.5,1.9,1.4,3.2c0.1,1.3-0.4,2.5-1.3,3.3c-1,0.8-2.3,1.2-3.6,1.1c-1.1,0-2.2-0.3-3.1-0.8c-0.1-0.1-0.3-0.2-0.5-0.2
			c-0.4,0-0.8,0.3-1.1,1L557.6,233z"/>
		<path class="st1" d="M630.7,230.6c0,0.6-0.1,1.1-0.3,1.6c-0.2,0.7-0.6,1.1-1.1,1.1H609c-0.5,0-1-0.2-1.3-0.6
			c-0.4-0.3-0.6-0.7-0.6-1.2v-2.7c0-1,0.5-1.9,1.4-2.4l2.8-1.6v4.3h15.2v-2.7h-3.6c-0.9,0-1.8-0.4-2.3-1.2c-0.6-0.7-0.9-1.7-0.9-2.6
			c0-1,0.3-2.1,1-2.9c0.8-0.9,2-1.3,3.1-1.2c0.3,0,0.8,0,1.4,0.1c0.6,0.1,1.1,0.1,1.5,0.1c1.5,0.1,3-0.5,4.1-1.6V230.6z
			 M626.5,223.6v-2.2h-2.2c-0.8,0-1.2,0.4-1.2,1.2s0.4,1,1.1,1H626.5z M627.5,214.1c0,0.4-0.1,0.7-0.4,1c-0.3,0.3-0.7,0.4-1,0.4
			c-0.8,0-1.4-0.6-1.4-1.3c0,0,0-0.1,0-0.1c0-0.4,0.1-0.7,0.4-1c0.3-0.3,0.6-0.4,1-0.4c0.4,0,0.8,0.1,1.1,0.4
			C627.3,213.3,627.4,213.7,627.5,214.1L627.5,214.1z"/>
		<path class="st1" d="M646.2,233.3h-4.7v2c0,2.3-1.8,4.1-4.1,4.2c0,0-0.1,0-0.1,0c-1.2,0-2.3-0.4-3.1-1.2c-0.9-0.8-1.4-1.8-1.5-3
			h4.6v-6.1c-0.1-1.1,0.3-2.1,1.1-2.8c0.1-0.1,1.1-0.6,3-1.6v4.3h4.7L646.2,233.3z"/>
		<path class="st1" d="M662.4,233.3h-21.2l2.5-4.2h6.5c-0.7-1.1-1.1-2.4-1.3-3.8c0-1,0.4-2,1.2-2.7c0.8-0.7,1.8-1,2.8-1
			c0.3,0,0.8,0,1.4,0s1.1,0.1,1.4,0.1c1.9,0,2.9-0.2,3.1-0.5l1.1-1.5v6.1h-6.4c-0.4,0-0.5,0.2-0.5,0.6c0,0.7,0.3,1.3,0.8,1.8
			c0.4,0.5,1,0.9,1.7,0.9h6.9V233.3z"/>
		<path class="st1" d="M674.2,231.5c0,0.5-0.3,0.9-0.6,1.2c-0.3,0.3-0.8,0.6-1.3,0.6h-15l2.5-4.2h10.8c-0.1-1.4,0-2.7,0.4-4.1
			c0.9-1,2-1.8,3.2-2.5L674.2,231.5z M667.2,217.8c0,0.8-0.6,1.4-1.4,1.4c-0.8,0-1.4-0.6-1.4-1.4c0-0.4,0.1-0.7,0.4-1
			c0.6-0.5,1.5-0.5,2.1,0C667.1,217.1,667.2,217.5,667.2,217.8L667.2,217.8z M673.4,217.8c0,0.4-0.1,0.7-0.4,1
			c-0.3,0.3-0.6,0.4-1,0.4c-0.8,0-1.4-0.7-1.4-1.5c0-0.4,0.2-0.7,0.4-1c0.3-0.3,0.6-0.4,1-0.4c0.4,0,0.7,0.1,1,0.4
			C673.2,217.1,673.4,217.4,673.4,217.8L673.4,217.8z"/>
		<path class="st1" d="M709.2,233.3H703v-7.6c-0.4-0.1-0.7-0.2-1.1-0.2c-1.7,0.1-3.1,1.4-3.1,3.1v0.2c0,0.1,0,0.1,0,0.2v5.7
			c0,1.5-0.8,2.8-2.5,4.1c-2.8,2.2-6.8,2.3-9.6,0.1c-1.4-1-2.3-2.7-2.2-4.5c0-2,1-3.8,2.6-5c0.3-0.3,0.6-0.5,1-0.7l0,0v4.9
			c0,0.8,0.5,1.6,1.2,2c1.5,0.8,3.4,0.8,4.9-0.1c0.8-0.5,1.2-1.5,1.2-3c0-0.6,0-3,0-3c-0.1-1.1,0.1-2.3,0.4-3.4
			c0.5-1.3,1.3-2.4,2.3-3.3c0.7-0.6,1.6-0.9,2.5-1l2.9-0.3c1.2-0.3,2.3-0.9,3.2-1.8v9.3h2.5L709.2,233.3z M691.2,243.6
			c0,0.9-0.5,1.3-1.4,1.3c-0.9,0-1.4-0.4-1.4-1.3s0.5-1.3,1.4-1.3C690.7,242.3,691.2,242.8,691.2,243.6L691.2,243.6z M697.8,243.6
			c0,0.9-0.5,1.3-1.4,1.3c-1,0-1.5-0.4-1.5-1.3s0.5-1.3,1.5-1.3C697.4,242.3,697.8,242.8,697.8,243.6L697.8,243.6z"/>
		<path class="st1" d="M726.4,231.5c0,0.5-0.3,0.9-0.6,1.2c-0.3,0.4-0.8,0.6-1.3,0.6h-20.4l2.5-4.2h4.2c0.3-1.7,1-3.3,2.1-4.6
			c1.1-1.3,2.4-2.3,4-3c-0.1-1.2,0.2-2.3,0.8-3.3c0.9-0.8,1.8-1.6,2.8-2.4v5.6c1.8,0,3.5,0.9,4.5,2.4c1,1.5,1.4,3.3,1.4,5.1
			L726.4,231.5z M717,229.1v-3.6c-0.7,0.3-1.3,0.8-1.8,1.4c-0.4,0.7-0.6,1.4-0.8,2.2H717z M722.9,228.3c0.1-0.7-0.1-1.4-0.5-1.9
			c-0.5-0.5-1.1-0.8-1.8-0.8v3.5h2.3C722.9,228.8,722.9,228.6,722.9,228.3L722.9,228.3z"/>
		<path class="st1" d="M684.9,124.6c4.4,0.1,5.9,1.6,5.3,5.9l0.1,44.7c0.1,6.1,2,8.9,8.5,6.2c1.2-0.5,2.4-1.3,3.6-1.7
			c0.8-0.2,2.1-0.3,2.5,0.2c0.5,0.8,0.6,1.8,0.3,2.7c-0.8,1.4-1.9,2.7-3.1,3.8c-6.1,5.5-14.3,6.3-22.2,5.7c-5-0.4-8.8-2.3-11.5-6.5
			c-1.6-2.5-1.8-8.1-1.8-8.1l-0.1-39.4c0.6-3.5-1.8-6.8-5.3-7.4c-0.3-0.1-0.6-0.1-0.9-0.1c-0.5,0-1,0-1.5-0.1
			c-1.6-0.4-2.8-1.2-2.7-3.1c0.1-1.9,1.5-2.5,3.1-2.6C662.3,124.6,680.9,124.5,684.9,124.6z"/>
	</g>
</g>
<circle class="st2" cx="180" cy="581" r="180"/>
<g>
	<g id="logos_4_">
		<path class="st1" d="M600.1,543.9c11,0.3,14.8,3.9,13.3,14.7l0.2,111.8c0.2,15.3,5,22.2,21.3,15.4c3.1-1.3,5.9-3.2,9.1-4.1
			c1.9-0.6,5.3-0.7,6.2,0.4c1.3,2,1.6,4.4,0.8,6.6c-2.1,3.6-4.7,6.8-7.8,9.6c-15.3,13.8-35.8,15.8-55.4,14.3
			c-12.5-1-21.9-5.8-28.6-16.2c-4-6.1-4.4-20.2-4.4-20.2l-0.2-98.6c1.5-8.8-4.4-17-13.2-18.5c-0.8-0.1-1.5-0.2-2.3-0.2
			c-1.2,0-2.4-0.1-3.6-0.2c-4-1-7-3-6.7-7.6s3.7-6.3,7.7-6.5C543.9,544.1,590.1,543.7,600.1,543.9z"/>
		<path class="st1" d="M610.1,482.2c0.1,17.1-13.7,31.1-30.8,31.2c-0.2,0-0.3,0-0.5,0c-17.3-0.2-31.2-14.3-31.3-31.6
			c0.1-17.5,14.4-31.6,31.8-31.5c0,0,0,0,0.1,0c17.2,0.2,30.9,14.3,30.7,31.5C610.1,482,610.1,482.1,610.1,482.2z"/>
		<path class="st1" d="M600.1,543.9c11,0.3,14.8,3.9,13.3,14.7l0.2,111.8c0.2,15.3,5,22.2,21.3,15.4c3.1-1.3,5.9-3.2,9.1-4.1
			c1.9-0.6,5.3-0.7,6.2,0.4c1.3,2,1.6,4.4,0.8,6.6c-2.1,3.6-4.7,6.8-7.8,9.6c-15.3,13.8-35.8,15.8-55.4,14.3
			c-12.5-1-21.9-5.8-28.6-16.2c-4-6.1-4.4-20.2-4.4-20.2l-0.2-98.6c1.5-8.8-4.4-17-13.2-18.5c-0.8-0.1-1.5-0.2-2.3-0.2
			c-1.2,0-2.4-0.1-3.6-0.2c-4-1-7-3-6.7-7.6s3.7-6.3,7.7-6.5C543.9,544.1,590.1,543.7,600.1,543.9z"/>
	</g>
</g>
</svg>
