<svg xmlns="http://www.w3.org/2000/svg" viewBox="0 0 254.74 24.06"><defs><style>.cls-1{opacity:0.3;}.cls-2{fill:#59334d;}</style></defs><title>sticky-logo</title><g id="Layer_2" data-name="Layer 2"><g id="header"><g class="cls-1"><path class="cls-2" d="M8.24,19.76l-2,.58V12a.82.82,0,0,0-.92-.94H0V9H5a3.5,3.5,0,0,1,2.49.75,3.4,3.4,0,0,1,.78,2.51Z"/><path class="cls-2" d="M19.75,10.78l-1.47.39c-.16,0-.23.17-.23.41v8.18l-2,.58V11.86l.84-.71v-.07H10.38V9h9.37Z"/><path class="cls-2" d="M28.25,19.76l-1.7.51-.65-3.19s0-.07-.1-.07a.22.22,0,0,0-.14.09l-.52,1.27a2.89,2.89,0,0,1-.51.7,4.5,4.5,0,0,1-1.73.87l-1.77.56-.05-.07.45-2.23,1.18-.38a8.85,8.85,0,0,0,2.86-1.52.69.69,0,0,0,.09-.57L25,11.42a.34.34,0,0,0-.37-.34H22.28V9h2.66a2.08,2.08,0,0,1,1.44.4A2.31,2.31,0,0,1,27,10.83Z"/><path class="cls-2" d="M40.73,19.64c0,.34-.13.51-.41.51H34.16l0-.07.81-2h3.82V12.59a1.76,1.76,0,0,0-.33-1.28A2.35,2.35,0,0,0,37,11H36a2,2,0,0,0-1.49.51,3.72,3.72,0,0,0-.75,1.67l-1.44,6.67-2,.48L31.69,14a4.31,4.31,0,0,0,0-1,3.6,3.6,0,0,0-.21-.9,3.17,3.17,0,0,0-.3-.79c-.09-.14-.17-.22-.24-.23H30V9h1.76a1.56,1.56,0,0,1,.77.14,1.3,1.3,0,0,1,.4.64l.37,1.06q.14.45.21.48s.12,0,.2-.26a9.2,9.2,0,0,1,.71-1.44A3.32,3.32,0,0,1,36.87,9a5.35,5.35,0,0,1,2.79.53,2.86,2.86,0,0,1,1.07,2.61Z"/><path class="cls-2" d="M46.72,19.76l-2,.58v-9c0-.15-.06-.23-.19-.23H42.88V9h2.55a1.35,1.35,0,0,1,.81.28,1.19,1.19,0,0,1,.48,1Z"/><path class="cls-2" d="M63.8,20.15H54.2V11.92l.64-.82v0H53.5V9h7.2q3.11,0,3.1,3.09Zm-2-2V11.86a.69.69,0,0,0-.79-.78H56.17v7Z"/><path class="cls-2" d="M69.91,15.39l-2,.59V11.29c0-.14-.06-.21-.19-.21H66V9h2.26c1.12,0,1.67.59,1.67,1.77Z"/><path class="cls-2" d="M86.14,9.52l-1.39,6.26a5.12,5.12,0,0,1-5.5,4.44h-.14c-3,0-4.72-1.39-5.14-4.17l-.72-5H72V9h2.49a.44.44,0,0,1,.48.43l.66,4.91c0,.2.09.3.23.3a2.31,2.31,0,0,0,2.5-2.14L78.61,11h-1.3V9h3c.34,0,.47.14.41.43L80,13.05a3.73,3.73,0,0,1-1,2.06,3.45,3.45,0,0,1-2.23,1l-.89-.77-.09.07a3.31,3.31,0,0,0,1.15,2.36,4,4,0,0,0,2.23.48h.1A3.51,3.51,0,0,0,83,15.16L83.88,11H82.62V9h3.11C86.09,9,86.22,9.2,86.14,9.52Z"/><path class="cls-2" d="M93.09,20.15H87.26l.7-2h3.12V11.77c0-.46-.19-.69-.58-.69H88.22V9h2.24a2.74,2.74,0,0,1,2,.63,2.93,2.93,0,0,1,.65,2.17Z"/><path class="cls-2" d="M110.58,9.5l-1.23,5.7a6.75,6.75,0,0,1-1.46,3.22,7.15,7.15,0,0,1-3.24,1.8L99.4,21.87l.53-2.27,3.23-1-1.63-7.42c0-.1-.08-.14-.2-.14H99.84V9h2.89a.54.54,0,0,1,.57.53l1.49,7.79-.72.94.05.13,1-.34a3.39,3.39,0,0,0,2.28-2.7l.88-4.31h-1.65V9h3.55C110.5,9,110.64,9.19,110.58,9.5Z"/><path class="cls-2" d="M121.59,10.78l-1.46.39c-.16,0-.24.17-.24.41v8.18l-2,.58V11.86l.83-.71v-.07h-6.5V9h9.36Z"/><path class="cls-2" d="M127.3,15.39l-2,.59V11.29c0-.14-.06-.21-.19-.21h-1.76V9h2.26q1.68,0,1.68,1.77Z"/><path class="cls-2" d="M139.68,10.71l-1.63.37a1.06,1.06,0,0,0-.78.58,1.6,1.6,0,0,0-.16.95l.94,7.15-1.88.58-.91-6.81a1.58,1.58,0,0,1,.43-1.3l.89-1.06v-.09h-2.65V9h5.75Z"/><path class="cls-2" d="M149.82,16.14a3.94,3.94,0,0,1-1,2.61,3.71,3.71,0,0,1-3,1.4H141l.64-2h5c.75,0,1.13-.36,1.13-1.08V12.16c0-.72-.38-1.08-1.13-1.08h-5.15V9h4.77q3.52,0,3.52,3.39Z"/><path class="cls-2" d="M160.05,19.76l-2,.58V12c0-.63-.3-.94-.91-.94h-5.33V9h5a3.5,3.5,0,0,1,2.49.75,3.44,3.44,0,0,1,.77,2.51Z"/><path class="cls-2" d="M173,19.64c0,.34-.14.51-.41.51h-6.16l0-.07.81-2H171V12.59a1.71,1.71,0,0,0-.34-1.28,2.32,2.32,0,0,0-1.44-.3h-.93a2,2,0,0,0-1.49.51,3.72,3.72,0,0,0-.75,1.67l-1.44,6.67-2,.48L163.93,14a3.46,3.46,0,0,0,0-1,3.44,3.44,0,0,0-.2-.9,4.34,4.34,0,0,0-.3-.79c-.09-.14-.18-.22-.25-.23h-1V9H164a1.52,1.52,0,0,1,.76.14,1.3,1.3,0,0,1,.41.64l.36,1.06a1.36,1.36,0,0,0,.21.48c.06,0,.12,0,.2-.26a10.49,10.49,0,0,1,.72-1.44A3.3,3.3,0,0,1,169.11,9a5.3,5.3,0,0,1,2.79.53A2.86,2.86,0,0,1,173,12.11Z"/><path class="cls-2" d="M182,23.43h-1.61V5H182Z"/></g><g class="cls-1"><path class="cls-2" d="M245.58,7.32c1,0,1.3.35,1.17,1.3v9.85c0,1.35.45,2,1.88,1.36a8.25,8.25,0,0,1,.8-.37c.17-.05.47-.06.54,0a.63.63,0,0,1,.07.58,3.27,3.27,0,0,1-.68.85,6.35,6.35,0,0,1-4.88,1.26A3.1,3.1,0,0,1,242,20.76a4.64,4.64,0,0,1-.39-1.78V10.29a1.44,1.44,0,0,0-1.37-1.66l-.32,0c-.35-.08-.62-.26-.59-.67s.32-.56.68-.57C240.62,7.34,244.7,7.3,245.58,7.32Z"/><path class="cls-2" d="M246.46,2.81a2.73,2.73,0,0,1-2.76,2.75,2.8,2.8,0,0,1-2.76-2.78A2.79,2.79,0,0,1,243.76,0,2.74,2.74,0,0,1,246.46,2.81Z"/><path class="cls-2" d="M206.8,21.37l-4.07.61V11.7c0-.35-.14-.52-.43-.52h-3.67V21.74H192l.82-3.61h1.78V12.31l1.26-.94c.06,0,.07-.08.06-.12s0-.07-.09-.07h-2.31V7.58h8.85q4.44,0,4.44,4.58Z"/><path class="cls-2" d="M223.13,8.16,222,14.5A8.49,8.49,0,0,1,219.78,19a11.68,11.68,0,0,1-4.66,2.74l-6.71,2.35.71-4,3.4-1.23-1.92-7.55c0-.11-.11-.16-.26-.16h-1.43V7.58h4.52a.7.7,0,0,1,.74.67l1.66,8-1.11,1.63a.09.09,0,1,0,.12.12l.4-.18a4.05,4.05,0,0,0,2.69-3.12l.62-3.56H217V7.58h5.61C223,7.58,223.2,7.77,223.13,8.16Z"/><path class="cls-2" d="M237.35,10.73l-1.87.61a.79.79,0,0,0-.62.77v9.14l-4.05.73V12.6l1.48-1.26c.14-.11.13-.16,0-.16h-7.41V7.58h12.5Z"/><path class="cls-2" d="M254.74,15.68l-4.05.74v-5c0-.19-.08-.28-.24-.28h-1.23V7.58h3.37c1.43,0,2.15.75,2.15,2.25Z"/></g></g></g></svg>