<svg xmlns="http://www.w3.org/2000/svg" viewBox="0 0 48.06 28.97"><defs><style>.cls-1{fill:none;stroke:#ef5241;stroke-linecap:round;stroke-linejoin:round;stroke-width:2px;}</style></defs><title>suburbs-ic</title><g id="Layer_2" data-name="Layer 2"><g id="Text"><path class="cls-1" d="M44.19,28A91.9,91.9,0,0,0,27,25.11c-2.4-.17-4.85-.26-7.33-.26A98,98,0,0,0,1,26.61"/><path class="cls-1" d="M37.76,14.63a65,65,0,0,1,9.3,1"/><path class="cls-1" d="M5.39,16.52A73.14,73.14,0,0,1,19,14.25Q21.9,14,24.84,14A43.28,43.28,0,0,1,30,14.2"/><path class="cls-1" d="M19.66,24.85S19.08,14.08,30,14.2"/><path class="cls-1" d="M21.72,14S10.6,15.79,8.21,25.25"/><line class="cls-1" x1="33.94" y1="25.87" x2="33.94" y2="18"/><path class="cls-1" d="M37.48,14.67c0,6.28-1.58,6.19-3.54,6.19S30.4,21,30.4,14.67A17.8,17.8,0,0,1,33.94,4.13,17.8,17.8,0,0,1,37.48,14.67Z"/><line class="cls-1" x1="12.92" y1="14.85" x2="12.92" y2="10.82"/><path class="cls-1" d="M15.13,4.8c0,3.92-1,5.41-2.21,5.41S10.71,8.72,10.71,4.8,12.92,1,12.92,1,15.13.87,15.13,4.8Z"/></g></g></svg>