<svg xmlns="http://www.w3.org/2000/svg" viewBox="0 0 32.45 33.15"><defs><style>.cls-1{fill:none;stroke:#ef5241;stroke-linecap:round;stroke-linejoin:round;stroke-width:2px;}</style></defs><title>violence-ic</title><g id="Layer_2" data-name="Layer 2"><g id="Text"><path class="cls-1" d="M1,23.77l4.84-4s-1.12-2.72,0-4.51S8.1,10.47,9.9,9.79s4.84-1.35,5.63-.56,3,3.94,2.82,4.95-1,2.25-1.86,2.14S13.39,14,13.39,14"/><path class="cls-1" d="M12.26,18.91a9.75,9.75,0,0,0,1.47-2.59,13.37,13.37,0,0,0,0-2"/><path class="cls-1" d="M13.34,17.26s.2,1.2.46,1.16S23,14.89,23,14.53s-1.66-8.42-6.57-5.07"/><path class="cls-1" d="M14.83,18.05c-.85.33.62,3.07.62,3.07s.36.71,5.84-1.72c2.57-1.07,2.79-1.17,2.4-2.11S23,14.9,22.33,14.94"/><path class="cls-1" d="M17.28,20.94s-.43,2.74,1.22,2.58,2.73-.2,3.44-.78,1.46-1.36,1.4-2a7.5,7.5,0,0,0-.75-1.89"/><path class="cls-1" d="M5.82,32.15l6.75-6.1s4.34.65,4.8.29,3.15-3,3.15-3"/><polyline class="cls-1" points="23.84 23.91 28.63 25.07 26.78 19.66 31.45 16.62 27.26 13.69 30.15 7.72 23.57 8.53 24.31 1 19.2 5.51 15.55 1.36 14.56 6.13"/></g></g></svg>