<?xml version="1.0" standalone="no"?>
<!DOCTYPE svg PUBLIC "-//W3C//DTD SVG 20010904//EN"
 "http://www.w3.org/TR/2001/REC-SVG-20010904/DTD/svg10.dtd">
<svg version="1.0" xmlns="http://www.w3.org/2000/svg"
 width="261.000000pt" height="261.000000pt" viewBox="0 0 261.000000 261.000000"
 preserveAspectRatio="xMidYMid meet">
<metadata>
Created by potrace 1.11, written by Peter Selinger 2001-2013
</metadata>
<g transform="translate(0.000000,261.000000) scale(0.100000,-0.100000)"
fill="#000000" stroke="none">
<path d="M1100 2595 c-148 -27 -249 -60 -375 -122 -164 -82 -322 -210 -444
-361 -179 -221 -284 -544 -275 -844 8 -273 124 -589 283 -773 37 -42 171 -176
202 -201 167 -135 413 -244 609 -269 29 -4 62 -9 74 -11 45 -9 215 -6 296 6
89 12 231 44 265 59 11 5 45 19 75 31 101 40 253 132 326 196 109 96 182 177
252 281 77 114 167 319 186 428 3 17 8 41 11 55 19 89 25 278 12 400 -28 277
-180 577 -392 778 -66 63 -229 187 -247 187 -3 0 -10 4 -14 8 -13 13 -144 72
-209 95 -62 21 -153 46 -215 57 -74 13 -345 13 -420 0z m263 -235 c143 -39
224 -226 159 -362 -121 -250 -487 -175 -498 103 -5 119 60 215 178 260 44 17
99 17 161 -1z m160 -699 c22 -7 39 -21 44 -34 4 -12 7 -263 8 -557 1 -494 2
-538 19 -572 29 -59 83 -63 194 -12 64 29 88 30 102 4 29 -53 -94 -167 -232
-216 -77 -27 -227 -37 -328 -22 -139 22 -227 108 -244 238 -3 25 -6 250 -7
500 -1 347 -5 461 -14 480 -24 47 -59 70 -115 77 -59 7 -90 30 -90 67 0 44 28
52 177 55 76 1 139 3 140 4 8 8 317 -3 346 -12z"/>
</g>
</svg>
